<?xml version="1.0" encoding="UTF-8"?><svg xmlns="http://www.w3.org/2000/svg" viewBox="0 0 500 500"><defs><style>.d{fill:#bccbd3;}</style></defs><g id="a"><g><path class="d" d="M250.9,436.97c-57.65,0-115.3,0-172.95,0-1.17,0-2.33,.02-3.5,0-3.33-.07-3.34-.07-3.42-3.19-.03-1.17,0-2.33,0-3.5,0-62.48,0-124.97,0-187.45,0-1.17-.12-2.35,.03-3.5,.27-2.14-.7-3.25-2.54-4.27-8.36-4.66-13.34-11.84-15.06-21.23-.36-1.95-.4-3.97-.41-5.96-.04-8.83,.04-17.66-.06-26.49-.03-2.58,.58-4.84,1.72-7.14,8.95-18.03,17.77-36.13,26.72-54.16,1.22-2.46,1.86-4.88,1.82-7.63-.11-7.33-.06-14.66-.03-21.99,.02-5.55,1.58-10.52,5.74-14.41,3.41-3.19,7.44-4.98,12.16-5.01,1.17,0,2.33-.01,3.5-.01,97.64,0,195.28,0,292.92,0,2.32,0,4.66-.16,6.96,.4,8.61,2.1,14.09,9.16,14.25,18.72,.12,7.33,.11,14.66-.01,21.99-.05,2.92,.6,5.49,1.9,8.11,8.9,17.87,17.64,35.82,26.53,53.7,1.22,2.46,1.87,4.86,1.84,7.62-.1,9.16,.1,18.33-.08,27.49-.22,10.96-4.97,19.64-14.37,25.29-2.92,1.76-3.66,3.55-3.65,6.68,.09,44.15,.06,88.31,.06,132.46,0,19.33,0,38.66,0,57.98,0,1.17-.05,2.33,0,3.5,.06,1.53-.7,2.05-2.12,1.99-1.33-.05-2.67,0-4,0-57.98,0-115.97,0-173.95,0Zm.04-354c-48.49,0-96.98,0-145.46,0-1.5,0-3.01-.09-4.5,.06-3.22,.32-5.15,2.14-5.69,5.33-.19,1.14-.13,2.32-.13,3.49,0,7.16-.17,14.33,.06,21.49,.13,4.14-.89,7.75-2.74,11.43-8.74,17.39-17.27,34.89-25.89,52.34-.81,1.64-1.65,3.2-1.64,5.15,.07,9.16-.1,18.33,.09,27.49,.15,7.5,4.99,13.79,12,16.23,10.43,3.63,20.89-2.36,23.7-13.55q.84-3.35,3.94-3.41c.67-.01,1.34-.06,2,0,1.95,.19,4.3-.84,5.76,.54,1.01,.96,.91,3.06,1.39,4.62,2.4,7.8,9.09,12.79,17.13,12.81,8.05,.02,14.78-4.94,17.2-12.71,.34-1.11,.65-2.24,.79-3.39,.14-1.14,.5-1.88,1.78-1.87,2.83,.01,5.67,.02,8.5,0,1.26-.01,1.75,.63,1.82,1.82,.04,.66,.17,1.32,.34,1.96,2.26,8.72,9.06,14.19,17.62,14.2,8.56,0,15.35-5.46,17.63-14.18q.99-3.77,4.64-3.81c.5,0,1-.01,1.5,0,1.82,.05,3.91-.42,5.4,.31,1.67,.82,1.05,3.28,1.61,4.97,2.56,7.73,9.21,12.72,17.26,12.71,8.04-.01,14.73-5,17.14-12.8,.34-1.11,.64-2.25,.78-3.39,.14-1.19,.61-1.8,1.86-1.79,2.83,.03,5.67,0,8.5,.01,.93,0,1.54,.39,1.68,1.4,.14,.98,.31,1.97,.58,2.93,2.32,8.39,9.11,13.67,17.51,13.64,8.38-.03,15.1-5.35,17.41-13.79,.34-1.26,.3-2.85,1.07-3.7,1.04-1.14,2.83-.41,4.29-.48,1.83-.08,3.66-.01,5.5,0,.95,0,1.5,.44,1.64,1.44,.14,.98,.32,1.97,.58,2.93,2.33,8.39,9.13,13.65,17.54,13.6,8.22-.05,14.86-5.2,17.21-13.36,.41-1.41,.37-3.23,1.27-4.13,1.16-1.16,3.16-.4,4.79-.48,1.5-.07,3,.04,4.5-.02,1.45-.06,2.11,.54,2.17,2.01,.03,.82,.3,1.63,.52,2.43,2.35,8.38,9.15,13.62,17.58,13.55,8.21-.06,14.78-5.25,17.24-13.39,.43-1.41-.05-3.27,1.19-4.17,1.36-.99,3.21-.32,4.85-.42,1-.06,2-.03,3,0q3.02,.05,3.73,3.04c2.08,8.6,8.05,14.14,16.04,14.89,10.42,.98,19.46-6.8,19.75-17.32,.23-8.32-.03-16.66,.11-24.99,.05-2.92-.58-5.5-1.88-8.11-8.91-17.87-17.67-35.81-26.58-53.68-1.23-2.46-1.84-4.89-1.8-7.64,.1-7.5,.04-15,.03-22.49,0-8.31-1.48-9.76-9.94-9.76-48.65,0-97.31,0-145.96,0Zm95.83,143.61c-.95,1.03-1.62,1.77-2.3,2.48-12.65,13.18-30.07,13.24-42.79,.18-.88-.9-1.39-2.36-3.14-2.37-.86,.9-1.76,1.87-2.69,2.82-12.17,12.39-29.5,12.36-41.74,0-1.01-1.02-1.64-2.55-3.36-2.86-1.06,1.06-2.12,2.1-3.16,3.15-11.88,11.94-29.1,11.99-41.04,.15-1.14-1.13-1.93-2.72-3.56-3.31-12.77,14.66-31.58,17.77-48.16-.13-1.38,1.4-2.72,2.84-4.15,4.18-5.57,5.23-12.16,8.14-19.84,8.06-7.86-.08-14.51-3.15-20.13-8.63-1.26-1.22-2.12-2.97-4.03-3.56-.67,.71-1.26,1.29-1.81,1.91-4.92,5.6-11.08,8.94-18.42,10.16-3.41,.57-3.4,.59-3.46,3.8-.01,.83,0,1.67,0,2.5,0,58-.01,116,.01,174,0,6.84-.92,5.91,5.69,5.91,58.17,.03,116.33,.01,174.5,.01,1.17,0,2.34-.06,3.5,0,1.67,.1,2.38-.54,2.37-2.29-.05-8.5-.03-17-.01-25.5,0-1.28-.42-1.92-1.66-2.62-5.79-3.23-5.89-8.13-.19-11.18,1.47-.78,1.94-1.52,1.86-2.99-.06-1.16-.01-2.33-.01-3.5,0-30.67-.02-61.33,.03-92,0-3.13-.43-6.29,.33-9.4,3.22-1.21,6.55-.49,9.82-.5,31.17-.07,62.33-.04,93.5-.04,4.65,0,4.27-.37,4.27,4.34,0,11.5,0,23,0,34.5,0,21.67,0,43.33,0,65,0,1.89-.5,3.79,2.22,4.76,5.14,1.83,4.84,9.11-.03,10.77-2.08,.71-2.24,1.99-2.23,3.76,.05,7.83,0,15.67,.03,23.5,.01,3.28,.07,3.34,3.26,3.35,11,.03,22,.05,33,0,6.71-.04,5.76,.97,5.77-5.83,.03-58.17,.02-116.33,.02-174.5,0-.83,.02-1.67,0-2.5-.07-2.85-.07-2.9-2.89-3.32-7.35-1.09-13.58-4.27-18.62-9.78-.75-.82-1.25-2.01-2.55-2.2-14.62,16.26-33.48,16.07-48.19-.3Zm-65.79,129.42c0,21.15,0,42.3,0,63.45,0,1.33,0,2.66,.04,4,.02,.98,.54,1.51,1.52,1.54,1,.03,2,.04,3,.04,24.98,0,49.96,0,74.95,0,4.96,0,4.55,.39,4.55-4.57,0-42.97,0-85.94,0-128.91,0-4.96,.41-4.57-4.55-4.57-24.98,0-49.96,0-74.95,0-1,0-2,0-3,.04-.98,.03-1.5,.56-1.52,1.54-.03,1.33-.04,2.66-.04,4,0,21.15,0,42.3,0,63.45Z"/><path class="d" d="M256.93,112.97c.02,3.25-2.78,6.02-6.02,5.96-3.26-.06-5.96-2.91-5.83-6.15,.12-3.06,2.71-5.62,5.77-5.71,3.24-.09,6.07,2.64,6.08,5.9Z"/><path class="d" d="M280.93,112.94c.03,3.25-2.75,6.03-5.99,5.99-3.26-.04-5.97-2.88-5.86-6.12,.1-3.06,2.68-5.64,5.74-5.74,3.24-.11,6.08,2.61,6.11,5.87Z"/><path class="d" d="M299.08,107.07c3.25,.05,5.97,2.9,5.85,6.14-.12,3.05-2.71,5.63-5.77,5.72-3.24,.1-6.06-2.63-6.09-5.89-.03-3.25,2.76-6.02,6.01-5.97Z"/><path class="d" d="M322.79,107.07c3.24-.13,6.09,2.59,6.14,5.84,.05,3.24-2.72,6.04-5.97,6.02-3.05-.02-5.7-2.54-5.89-5.6-.2-3.22,2.46-6.14,5.71-6.26Z"/><path class="d" d="M352.93,113.11c-.07,3.25-2.95,5.96-6.17,5.82-3.24-.14-5.9-3.08-5.69-6.29,.2-3.06,2.86-5.56,5.91-5.57,3.25,0,6.01,2.8,5.94,6.04Z"/><path class="d" d="M371.18,118.93c-3.24,.11-6.07-2.61-6.11-5.87-.04-3.04,2.44-5.74,5.49-5.99,3.2-.26,6.18,2.37,6.37,5.61,.19,3.2-2.5,6.13-5.74,6.24Z"/><path class="d" d="M400.93,112.94c.03,3.25-2.76,6.03-6,5.99-3.26-.04-5.97-2.88-5.86-6.12,.11-3.06,2.69-5.63,5.75-5.74,3.24-.11,6.08,2.62,6.11,5.87Z"/><path class="d" d="M82.81,190.93c-3.25-.11-5.92-3.02-5.74-6.24,.19-3.25,3.16-5.87,6.36-5.61,3.04,.24,5.53,2.95,5.49,5.99-.04,3.25-2.89,5.98-6.12,5.87Z"/><path class="d" d="M107.13,179.07c3.25,.08,5.95,2.96,5.8,6.18-.15,3.05-2.77,5.61-5.82,5.67-3.24,.07-6.05-2.69-6.04-5.94,0-3.26,2.81-6,6.06-5.92Z"/><path class="d" d="M131.18,190.93c-3.24,.11-6.07-2.61-6.11-5.87-.04-3.04,2.44-5.74,5.49-5.99,3.2-.26,6.18,2.37,6.37,5.61,.19,3.2-2.5,6.13-5.74,6.24Z"/><path class="d" d="M155.23,179.07c3.24,.14,5.91,3.08,5.7,6.28-.21,3.25-3.21,5.85-6.41,5.57-3.05-.27-5.51-2.99-5.45-6.03,.06-3.25,2.92-5.96,6.16-5.82Z"/><path class="d" d="M178.78,190.93c-3.24-.13-5.91-3.06-5.71-6.27,.2-3.25,3.18-5.85,6.39-5.58,3.05,.26,5.52,2.98,5.46,6.02-.06,3.25-2.92,5.97-6.15,5.83Z"/><path class="d" d="M208.93,184.85c.09,3.24-2.66,6.07-5.9,6.08-3.25,.01-6.01-2.78-5.95-6.03,.06-3.06,2.59-5.67,5.65-5.83,3.22-.16,6.11,2.53,6.2,5.78Z"/><path class="d" d="M232.93,185.17c-.1,3.23-3.02,5.94-6.22,5.76-3.24-.18-5.87-3.15-5.63-6.35,.23-3.05,2.92-5.54,5.97-5.51,3.25,.03,5.99,2.86,5.88,6.1Z"/><path class="d" d="M251.13,179.07c3.25,.08,5.95,2.97,5.79,6.19-.15,3.05-2.77,5.61-5.82,5.67-3.24,.07-6.04-2.69-6.04-5.94,0-3.26,2.81-6,6.06-5.92Z"/><path class="d" d="M275.09,190.93c-3.24,.05-6.04-2.71-6.02-5.97,.02-3.26,2.83-5.99,6.08-5.89,3.06,.09,5.65,2.66,5.77,5.71,.13,3.23-2.59,6.09-5.84,6.14Z"/><path class="d" d="M298.83,190.93c-3.25-.1-5.93-3-5.76-6.22,.17-3.24,3.14-5.88,6.34-5.64,3.05,.23,5.54,2.93,5.52,5.97-.03,3.25-2.86,5.99-6.1,5.89Z"/><path class="d" d="M328.93,184.97c.02,3.25-2.78,6.02-6.02,5.96-3.26-.06-5.96-2.91-5.83-6.15,.12-3.06,2.71-5.62,5.77-5.71,3.24-.09,6.07,2.64,6.08,5.9Z"/><path class="d" d="M347.06,190.93c-3.25,.04-6.02-2.74-5.99-5.99,.04-3.26,2.86-5.97,6.11-5.87,3.06,.1,5.64,2.69,5.74,5.74,.11,3.24-2.62,6.08-5.87,6.12Z"/><path class="d" d="M370.98,190.93c-3.25-.01-5.99-2.82-5.91-6.07,.08-3.25,2.96-5.94,6.19-5.79,3.06,.15,5.61,2.77,5.66,5.82,.06,3.24-2.7,6.05-5.95,6.04Z"/><path class="d" d="M400.93,185.02c-.01,3.25-2.83,6-6.07,5.91-3.25-.09-5.94-2.97-5.78-6.2,.15-3.06,2.76-5.6,5.82-5.66,3.24-.06,6.05,2.7,6.04,5.95Z"/><path class="d" d="M419.06,190.93c-3.25,.04-6.02-2.74-5.99-5.99,.04-3.26,2.86-5.97,6.11-5.87,3.06,.1,5.64,2.69,5.74,5.74,.11,3.24-2.62,6.08-5.87,6.12Z"/><path class="d" d="M112.93,112.94c.03,3.25-2.75,6.03-5.99,5.99-3.26-.04-5.97-2.88-5.86-6.12,.1-3.06,2.68-5.64,5.74-5.74,3.24-.11,6.08,2.61,6.11,5.87Z"/><path class="d" d="M136.93,112.81c.11,3.23-2.62,6.08-5.87,6.11-3.25,.04-6.02-2.75-5.98-6,.04-3.06,2.55-5.69,5.62-5.86,3.21-.18,6.13,2.5,6.24,5.74Z"/><path class="d" d="M160.93,113.23c-.14,3.24-3.09,5.91-6.29,5.7-3.26-.22-5.84-3.19-5.56-6.41,.26-3.06,2.98-5.51,6.02-5.45,3.25,.06,5.96,2.93,5.82,6.16Z"/><path class="d" d="M184.93,112.94c.04,3.25-2.75,6.03-5.99,5.99-3.26-.04-5.97-2.88-5.86-6.12,.1-3.06,2.68-5.63,5.74-5.74,3.24-.11,6.08,2.61,6.11,5.87Z"/><path class="d" d="M208.93,112.81c.11,3.23-2.62,6.08-5.87,6.11-3.04,.03-5.74-2.45-5.98-5.5-.25-3.21,2.37-6.17,5.61-6.36,3.21-.18,6.12,2.5,6.24,5.75Z"/><path class="d" d="M232.93,113.13c-.08,3.24-2.98,5.95-6.19,5.79-3.24-.16-5.89-3.11-5.67-6.32,.21-3.05,2.89-5.55,5.94-5.54,3.25,0,6,2.82,5.92,6.06Z"/><path class="d" d="M172.64,352.97c-14.66,0-29.32,.01-43.98,0-3.56,0-3.62-.06-3.63-3.47-.02-23.65-.02-47.31,0-70.96,0-3.44,.06-3.5,3.6-3.5,29.65-.02,59.3-.02,88.96,0,3.3,0,3.37,.07,3.37,3.22,.02,23.82,.02,47.64,0,71.46,0,3.18-.07,3.24-3.35,3.25-14.99,.02-29.99,.01-44.98,.01Zm.35-66c-10.82,0-21.64-.02-32.46,.01-3.48,0-3.54,.06-3.55,3.55-.02,15.65-.02,31.29,0,46.94,0,3.47,.07,3.53,3.57,3.54,21.64,.02,43.28,.02,64.92,0,3.48,0,3.54-.06,3.55-3.55,.02-15.65,.02-31.29,0-46.94,0-3.47-.06-3.53-3.57-3.54-10.82-.03-21.64-.01-32.46-.01Z"/><path class="d" d="M106.93,389.19c-.11,3.23-3.05,5.93-6.25,5.74-3.24-.19-5.86-3.17-5.6-6.37,.24-3.05,2.94-5.53,5.99-5.49,3.25,.04,5.98,2.89,5.86,6.12Z"/><path class="d" d="M125.23,383.07c3.24,.14,5.91,3.08,5.7,6.28-.21,3.25-3.21,5.85-6.41,5.57-3.05-.27-5.51-2.99-5.45-6.03,.06-3.25,2.92-5.96,6.16-5.82Z"/><path class="d" d="M149.23,383.07c3.24,.14,5.91,3.08,5.7,6.28-.21,3.25-3.21,5.85-6.41,5.57-3.05-.27-5.51-2.99-5.45-6.03,.06-3.25,2.92-5.96,6.16-5.82Z"/><path class="d" d="M178.93,388.79c.12,3.23-2.6,6.09-5.85,6.14-3.24,.05-6.03-2.72-6.01-5.97,.02-3.07,2.52-5.7,5.59-5.89,3.21-.2,6.14,2.48,6.26,5.72Z"/><path class="d" d="M202.93,389.19c-.11,3.23-3.05,5.93-6.25,5.74-3.24-.19-5.86-3.17-5.6-6.37,.24-3.05,2.94-5.53,5.99-5.49,3.25,.04,5.98,2.89,5.86,6.12Z"/><path class="d" d="M221.17,394.93c-3.24,.1-6.07-2.62-6.1-5.88-.03-3.25,2.75-6.02,6-5.98,3.05,.04,5.69,2.57,5.86,5.63,.18,3.2-2.52,6.13-5.75,6.23Z"/><path class="d" d="M250.93,389.23c-.14,3.24-3.09,5.91-6.29,5.7-3.26-.22-5.84-3.19-5.56-6.41,.26-3.06,2.98-5.51,6.02-5.45,3.25,.06,5.96,2.93,5.82,6.16Z"/><path class="d" d="M406.93,389.19c-.11,3.23-3.05,5.93-6.25,5.74-3.24-.19-5.86-3.17-5.6-6.37,.24-3.05,2.94-5.53,5.99-5.49,3.25,.04,5.98,2.89,5.86,6.12Z"/><path class="d" d="M352.94,362.09c-.05,4.8-4.1,8.83-8.9,8.85-4.99,.02-9.17-4.3-8.97-9.28,.18-4.8,4.36-8.72,9.15-8.6,4.8,.12,8.77,4.23,8.73,9.03Z"/></g></g><g id="b"/><g id="c"/></svg>