<?xml version="1.0" encoding="UTF-8"?><svg xmlns="http://www.w3.org/2000/svg" viewBox="0 0 500 500"><defs><style>.d{fill:#bccbd3;}</style></defs><g id="a"><g><path class="d" d="M53.43,424.95c-.88-2.09-.56-3.77-.56-5.4-.02-105.81,0-211.63-.06-317.44,0-7.6,2.21-14.12,7.83-19.18,4.16-3.74,9.13-6.02,14.89-6.06,1,0,2-.01,3-.01,114.98,0,229.96,.01,344.94-.05,4.77,0,9.19,.7,13.42,3.01,7.87,4.3,11.62,11.06,12.24,19.78,.11,1.49,.03,3,.03,4.5,0,104.82,0,209.63-.02,314.45,0,1.97,.34,3.98-.3,5.82-.2,.2-.31,.34-.44,.43-.13,.09-.29,.2-.43,.2-130.64,.06-261.28,.11-391.92,.16-.81,0-1.62-.12-2.61-.19Zm11.86-278.39c0,88.76,0,177.06,.01,265.36,0,.13,.16,.27,.26,.4,.11,.13,.23,.24,.35,.36,15.46,.89,366.58,.45,370.71-.48V146.6c-4.13,3.1-8.23,3.31-10.46,.69-1.85-2.18-1.73-6.81,.25-8.82,2.35-2.4,6.33-2.08,10.44,.96,0-12.3-.04-24.45,.04-36.61,.01-1.9-.66-3.6-1.06-5.35-.89-3.87-3.47-6.34-7.34-7.36-2.74-.72-5.51-.99-8.36-.99-112.8,.03-225.6,.03-338.4,.03-1.17,0-2.35-.14-3.49,.03-3.78,.57-7.59,1.1-10.21,4.42-2.06,2.62-2.74,5.78-2.79,8.86-.19,12.28-.08,24.57-.08,37.07,4.18-3.2,8.22-3.49,10.55-.96,1.92,2.08,1.93,6.72,.03,8.82-2.3,2.54-6.38,2.27-10.44-.84Z"/><path class="d" d="M94.85,280.48c0-27.82,.11-55.64-.07-83.47-.05-8.07,4.19-12.94,10.52-16.75,2.09-1.26,4.37-1.43,6.73-1.42,10.16,.02,20.32,0,30.49,0,26.16,0,52.31,.11,78.47-.07,8.07-.06,12.95,4.19,16.73,10.54,1.04,1.75,1.54,3.67,1.41,5.73-.04,.66,.01,1.33,.01,2,0,55.98,0,111.95,0,167.93,0,8.11-4.29,14.36-11.82,17.35-.91,.36-1.9,.69-2.86,.72-3.33,.1-6.67,.21-9.99,.05-3.81-.19-5.65-2.36-5.61-6.18,.03-3.81,1.87-5.78,5.78-6.04,1.66-.11,3.34,.05,5-.05,4.4-.27,6.94-2.87,7.21-7.32,.06-1,.01-2,.01-3,0-52.98,0-105.96,0-158.93,0-1,.04-2-.01-3-.26-4.67-2.87-7.38-7.63-7.39-34.82-.06-69.64-.06-104.46,0-4.74,0-7.34,2.74-7.59,7.42-.05,1,0,2,0,3,0,52.98,0,105.96,0,158.93,0,1.17-.08,2.34,.03,3.5,.36,3.88,2.86,6.44,6.72,6.78,1.82,.16,3.67-.05,5.49,.07,3.91,.26,5.73,2.23,5.75,6.06,.02,3.82-1.81,5.96-5.65,6.15-3.32,.16-6.67,.13-9.99-.04-6.24-.34-14.69-9.11-14.62-15.1,.02-1.83-.04-3.66-.04-5.5,0-27.32,0-54.64,0-81.97Z"/><path class="d" d="M335.02,233.15c-17.99,0-35.98-.15-53.96,.07-8.3,.1-13.21-4.38-17-10.92-.94-1.62-1.22-3.4-1.21-5.28,.04-7.33,.36-14.68-.09-21.98-.41-6.7,9.56-16.54,16.25-16.28,10.98,.42,21.98,.09,32.97,.09,25.65,0,51.3,.12,76.94-.07,8.3-.06,13.19,4.39,17.01,10.92,1.05,1.8,1.21,3.76,1.2,5.78-.02,6.99-.45,14.03,.12,20.97,.59,7.13-9.68,17.02-16.78,16.84-18.47-.47-36.97-.16-55.45-.16h0Zm-.36-12.29c16.64,0,33.28,0,49.92,0,1.16,0,2.34,.08,3.49-.03,3.86-.36,6.57-2.88,6.72-6.75,.21-5.32,.2-10.65,0-15.97-.15-4.12-2.88-6.63-7.04-6.93-.99-.07-2-.02-2.99-.02-33.11,0-66.22,0-99.34,0-1.16,0-2.34-.08-3.49,.03-3.86,.36-6.57,2.88-6.71,6.75-.2,5.32-.2,10.65,0,15.97,.15,4.12,2.87,6.63,7.04,6.94,1.16,.08,2.33,.02,3.49,.02,16.31,0,32.61,0,48.92,0Z"/><path class="d" d="M406.92,263.2v11.07c-.16,.16-.27,.28-.4,.39-.12,.11-.26,.28-.38,.28-46.92,.07-93.84,.13-140.76,.18-.63,0-1.27-.17-2.2-.31-.54-3.85-.39-7.57-.13-11.25,3.91-.89,134.68-1.22,143.87-.37Z"/><path class="d" d="M263.14,310.97v-11.53c4.23-.73,138.12-.85,143.54-.15,.84,1.79,.43,3.81,.44,5.74,.01,1.8,.33,3.64-.29,5.33-.19,.19-.29,.32-.43,.42-.13,.09-.28,.16-.43,.21-.16,.05-.32,.1-.49,.1-46.26,.02-92.52,.05-138.78,.06-.99,0-1.98-.09-3.56-.17Z"/><path class="d" d="M263.11,347.15v-11.51c1.5-1.42,3.43-.76,5.17-.76,29.95-.04,59.91-.03,89.86-.03h48.54c.79,4.12,.49,7.85,.3,11.36-.35,.35-.45,.48-.59,.58-.13,.09-.28,.19-.43,.2-1.49,.07-2.99,.16-4.48,.16-45.92,0-91.84,0-138.37,0Z"/><path class="d" d="M346.91,371.23c.1,1.08,.23,1.88,.23,2.68,.03,2.81,0,5.62,0,8.13-.41,.41-.52,.54-.65,.64-.12,.1-.25,.25-.39,.27-.66,.09-1.32,.19-1.98,.19-26.6-.02-53.19-.05-79.79-.1-.29,0-.58-.25-1.32-.59-.28-3.51-.27-7.23,0-10.89,3.93-.86,75.92-1.13,83.88-.33Z"/><path class="d" d="M101.14,112.86c.03,7.67-4.38,12.23-11.86,12.28-7.67,.05-12.01-4.68-12.55-12.26-.43-6.1,5.84-12.61,12.27-12.15,7.58,.55,12.11,4.57,12.14,12.12Z"/><path class="d" d="M137.14,112.94c.01,7.63-4.42,12.16-11.95,12.2-7.6,.04-12.37-4.74-12.33-12.35,.04-7.51,4.61-11.53,12.2-12.06,6.32-.44,13.15,6.02,12.07,12.21Z"/><path class="d" d="M156.92,124.9c-8.31-3.99-9.73-9.49-7.12-17.21,1.95-5.76,9.32-8.43,15.52-6.49,5.59,1.76,8.89,8.18,7.72,15.02-1.07,6.22-6.9,9.35-16.12,8.67Z"/><path class="d" d="M101.13,142.9c.04,3.97-2.11,6.19-6.04,6.23-3.96,.04-6.19-2.12-6.23-6.04-.04-3.97,2.11-6.19,6.04-6.23,3.97-.04,6.19,2.11,6.23,6.04Z"/><path class="d" d="M119.2,136.86c3.88,.08,6.02,2.36,5.94,6.33-.08,3.88-2.37,6.02-6.33,5.94-3.88-.08-6.02-2.37-5.94-6.33,.08-3.88,2.36-6.02,6.33-5.94Z"/><path class="d" d="M142.8,149.14c-3.88-.08-6.02-2.36-5.94-6.34,.08-3.88,2.36-6.02,6.33-5.94,3.88,.08,6.02,2.36,5.94,6.33-.08,3.88-2.37,6.02-6.33,5.94Z"/><path class="d" d="M173.13,143c0,3.96-2.18,6.13-6.14,6.13-3.96,0-6.13-2.18-6.13-6.14,0-3.96,2.18-6.13,6.14-6.13,3.96,0,6.13,2.18,6.13,6.14Z"/><path class="d" d="M184.86,142.56c.19-3.83,2.57-5.9,6.57-5.7,3.84,.19,5.9,2.56,5.7,6.57-.19,3.83-2.57,5.9-6.57,5.7-3.84-.19-5.89-2.56-5.7-6.57Z"/><path class="d" d="M221.13,142.8c.09,3.97-2.05,6.25-5.93,6.34-3.97,.09-6.25-2.06-6.33-5.94-.09-3.97,2.05-6.25,5.93-6.33,3.97-.09,6.25,2.05,6.33,5.93Z"/><path class="d" d="M238.94,149.14c-3.94-.02-6.1-2.23-6.08-6.2,.02-3.94,2.23-6.1,6.19-6.08,3.94,.03,6.1,2.23,6.08,6.19-.02,3.94-2.23,6.1-6.19,6.08Z"/><path class="d" d="M269.13,142.82c.07,3.97-2.07,6.24-5.96,6.31-3.97,.07-6.24-2.07-6.31-5.96-.07-3.97,2.07-6.24,5.96-6.31,3.98-.07,6.23,2.05,6.31,5.96Z"/><path class="d" d="M280.86,142.56c.19-3.83,2.57-5.9,6.57-5.7,3.84,.19,5.9,2.56,5.7,6.57-.19,3.83-2.57,5.9-6.57,5.7-3.84-.19-5.89-2.56-5.7-6.57Z"/><path class="d" d="M311.18,136.86c3.89,.07,6.03,2.34,5.95,6.31-.07,3.89-2.35,6.03-6.32,5.95-3.9-.08-6.03-2.34-5.95-6.31,.07-3.89,2.35-6.03,6.31-5.96Z"/><path class="d" d="M335.2,149.13c-3.97,.09-6.25-2.06-6.33-5.94-.08-3.97,2.05-6.25,5.94-6.33,3.97-.08,6.25,2.05,6.33,5.94,.09,3.97-2.05,6.25-5.94,6.33Z"/><path class="d" d="M358.84,149.13c-3.9-.07-6.04-2.33-5.97-6.3,.07-3.9,2.33-6.04,6.3-5.97,3.9,.07,6.04,2.33,5.97,6.3-.07,3.89-2.33,6.04-6.3,5.97Z"/><path class="d" d="M383,136.86c3.96,0,6.13,2.18,6.13,6.14,0,3.96-2.18,6.13-6.14,6.13-3.96,0-6.13-2.18-6.13-6.14,0-3.96,2.18-6.13,6.14-6.13Z"/><path class="d" d="M406.89,149.13c-3.92-.04-6.07-2.27-6.03-6.24,.04-3.92,2.27-6.07,6.24-6.03,3.92,.05,6.07,2.27,6.03,6.24-.05,3.92-2.28,6.07-6.24,6.03Z"/><path class="d" d="M143.16,370.86c3.9,.07,6.04,2.33,5.97,6.3-.07,3.9-2.33,6.04-6.3,5.97-3.89-.07-6.04-2.33-5.97-6.3,.07-3.9,2.33-6.04,6.3-5.97Z"/><path class="d" d="M167,383.13c-3.96,0-6.14-2.17-6.14-6.13,0-3.96,2.17-6.14,6.13-6.14,3.96,0,6.14,2.17,6.14,6.13,0,3.96-2.17,6.14-6.13,6.14Z"/><path class="d" d="M190.84,383.13c-3.9-.07-6.04-2.33-5.97-6.3,.07-3.9,2.33-6.04,6.3-5.97,3.9,.07,6.04,2.33,5.97,6.3-.07,3.89-2.33,6.04-6.3,5.97Z"/></g></g><g id="b"/><g id="c"/></svg>