<?xml version="1.0" encoding="UTF-8"?><svg xmlns="http://www.w3.org/2000/svg" viewBox="0 0 500 500"><defs><style>.e{fill:#bccbd3;}.f{fill:#f16b97;}.g{fill:#4cc290;}.h{fill:none;}</style></defs><g id="a"/><g id="b"/><g id="c"/><g id="d"><g><path class="e" d="M274.12,254.51c1.07,1.49,2.47,1.72,3.61,2.35,18.97,10.53,29.53,26.65,32,48.14,.11,.99,.06,1.99,.1,2.99,.05,1.21-.44,1.85-1.72,1.84-2.66-.02-5.32-.07-7.98,.03-1.82,.07-2.18-.86-2.25-2.43-.33-6.89-2.08-13.44-5.27-19.55-9.59-18.39-28.92-28.17-48.4-25.57-21.58,2.88-37.62,18.42-41.24,38.92-.38,2.13-.93,4.23-.81,6.41,.1,1.8-.83,2.29-2.44,2.21-1.49-.07-2.99,0-4.49-.01-5.5-.01-5.54-.02-4.84-5.55,2.73-21.68,13.69-37.71,33.01-47.99,.86-.46,1.92-.63,2.4-1.65-26.42-21.72-19.14-51.39-4.67-64.88,17.4-16.22,44.22-15.72,59.48,2.64,16.11,19.39,15.86,44.14-6.49,62.09Zm5.86-34.02c.15-16.58-12.91-30.15-29.26-30.38-16.82-.25-30.48,12.91-30.64,29.51-.16,16.78,13.11,30.33,29.76,30.39,16.52,.07,29.99-13.13,30.14-29.52Z"/><g><path class="h" d="M405.98,315.84c-16.75-.09-30.21,13.24-30.22,29.93,0,16.47,13.27,29.88,29.68,29.98,16.75,.1,30.21-13.24,30.22-29.93,.01-16.47-13.27-29.88-29.68-29.97Z"/><path class="h" d="M431.01,313.05c-1.23-1.01-2.45-1.91-3.66-2.71,.21,.16,.43,.32,.66,.47,1.05,.71,2.05,1.46,3,2.24Z"/><path class="e" d="M425.97,306.39c.46-1.22,.15-2.16-.68-3.17-2.74-3.37-6.07-4.02-8.72-.56-.94,1.23-1.77,1.77-2.66,1.93,3.75,.8,8.47,2.45,13.44,5.75-1.31-1-2.08-2.08-1.38-3.95Z"/><path class="f" d="M431.01,313.05c.24,.19,.47,.39,.71,.6-.23-.2-.47-.4-.71-.6Z"/><path class="f" d="M445.92,336.85c-2.88-9.26-7.13-17.15-14.2-23.2-.24-.2-.47-.4-.71-.6-.95-.78-1.94-1.53-3-2.24-.23-.16-.45-.32-.66-.47-4.97-3.3-9.68-4.94-13.44-5.75-.8,.14-1.65-.01-2.66-.25-1.12-.26-2.3-.34-3.46-.39-28.84-1.09-48.15,25.09-43.16,49.66,3.96,19.51,21.1,34.05,41,34.05,5.63,0,11.68-1.26,16.91-3.59,9.31-4.15,16.45-10.76,20.7-19.98,3.99-8.65,5.73-17.43,2.68-27.24Zm-40.48,38.89c-16.41-.09-29.69-13.5-29.68-29.98,0-16.69,13.48-30.02,30.22-29.93,16.41,.09,29.69,13.51,29.68,29.97-.01,16.69-13.48,30.03-30.22,29.93Z"/></g><path class="g" d="M250.91,471.49c-21.64-.04-40.56-15.61-42.67-38.76-.15-1.63,.1-3.27-.75-4.86-.84-1.57-.42-3.35,.37-4.8,1.21-2.21,1.77-4.61,2.57-6.95,6.03-17.7,22.98-29.31,41.86-28.31,18.94,1,33.03,14.99,37.9,32.23,3.19,11.29,1.21,21.2-4.22,30.78-5.56,9.82-14.12,16.14-25.03,19.13-3.52,.97-7.11,1.67-10.02,1.51Zm29.07-41.72c.06-16.51-13.15-29.97-29.54-30.11-16.77-.14-30.3,13.12-30.36,29.79-.06,16.5,13.15,29.97,29.54,30.12,16.77,.14,30.3-13.14,30.36-29.79Z"/><path class="f" d="M136.25,345.26c-.34,24.41-19.48,43.08-43.27,42.34-20.72-.64-36.15-16.14-39.69-33.76-3.29-16.36,4.4-33.88,18.33-43.17,22.58-15.07,55.14-4.22,62.54,25.11,.82,3.26,3.21,6.24,2.1,9.47Zm-41.73-29.43c-16.5-.05-29.97,13.17-30.1,29.55-.14,16.77,13.14,30.3,29.79,30.36,16.51,.05,29.96-13.15,30.1-29.55,.14-16.77-13.14-30.3-29.79-30.35Z"/><path class="g" d="M404.8,112.31c19.39,0,35.48,13.19,40.78,31.14,4.27,14.45,.76,26.61-8.12,37.87-4.53,5.73-10.49,10.12-17.22,12.34-13.42,4.44-26.65,3.26-38.41-5.23-13.51-9.75-19.81-23.27-17.48-39.76,2.5-17.71,12.95-29.36,30.13-34.73,2.05-.64,4.19-1.04,6.31-1.37,1.63-.25,3.31-.22,4.02-.26Zm30.86,42.13c.09-16.53-13.07-30.03-29.44-30.21-16.78-.18-30.37,13.07-30.46,29.69-.09,16.54,13.06,30.03,29.44,30.21,16.77,.18,30.37-13.07,30.46-29.69Z"/><path class="f" d="M249.96,28.49c18.66-.03,35.07,13.27,40.04,31.5,1.89,6.92,2.38,13.5,.71,20.32-1.6,6.55-4.57,12.49-9.13,17.46-11.4,12.43-25.54,17.29-41.88,13.02-16.47-4.3-26.83-15.32-30.58-32.04-5.52-24.63,13.36-49.99,40.84-50.27Zm-29.87,41.42c-.15,16.58,12.9,30.15,29.25,30.4,16.81,.25,30.49-12.92,30.65-29.5,.16-16.78-13.1-30.33-29.75-30.4-16.51-.07-30,13.13-30.15,29.5Z"/><path class="e" d="M71.24,235.02c2.02,.04,5.03,3.28,4.97,5.36-.08,3.01-2.98,6.12-5.81,6.23-2.25,.09-5.11-3.14-5.06-5.72,.05-3.3,2.69-5.93,5.9-5.87Z"/><path class="e" d="M434.74,259.04c0,3.2-2.69,5.93-5.85,5.92-2,0-5.05-3.22-5.03-5.3,.04-2.98,2.88-6.1,5.74-6.29,2.24-.15,5.13,3.05,5.13,5.67Z"/><path class="e" d="M194.14,77.81c.03-3.24,2.73-6.05,5.84-6.07,1.84-.01,5.04,3.37,5.07,5.35,.04,3.32-3.07,6.45-6.21,6.24-2.09-.14-4.72-3.22-4.7-5.52Z"/><path class="e" d="M303.67,80.55c.25-3.21,3.09-6.12,5.88-6.03,1.89,.07,5.09,3.58,4.97,5.45-.21,3.29-3.49,6.53-6.3,6.22-2.02-.22-4.71-3.56-4.55-5.65Z"/><path class="e" d="M76.4,264.73c-.13,3.16-3.17,6.07-6.05,5.81-1.88-.17-4.88-3.65-4.81-5.58,.12-3.25,2.82-5.98,5.94-6,2.32-.01,5.03,3.16,4.92,5.76Z"/><path class="e" d="M423.65,235.59c-.01-3.18,2.67-6.07,5.74-6.18,1.82-.07,5.12,3.28,5.18,5.27,.1,3.33-2.92,6.46-6.12,6.34-2.09-.08-4.79-3.12-4.8-5.42Z"/><path class="e" d="M431.91,282.93c-.33,3.26-3.2,6.07-5.98,5.86-1.94-.15-4.96-3.64-4.8-5.55,.28-3.22,3.75-6.52,6.4-6.08,1.98,.33,4.58,3.75,4.37,5.77Z"/><path class="e" d="M72.94,222.88c-1.92-.03-4.98-3.45-4.87-5.44,.18-3.29,2.72-6.1,5.68-6.26,1.83-.1,5.28,3.27,5.28,5.17,0,3.2-3.16,6.59-6.09,6.54Z"/><path class="e" d="M162.28,409.54c.12-3.16,3.03-5.95,6.07-5.81,2.05,.09,4.85,3.27,4.81,5.46-.05,3.14-2.86,6.11-5.83,6.17-2.08,.04-5.14-3.48-5.05-5.82Z"/><path class="e" d="M295.09,422.19c.35-3.25,3.39-5.9,6.35-5.52,2.35,.29,4.68,3.57,4.43,6.2-.26,2.7-3.44,5.55-5.98,5.36-2.09-.16-5.03-3.86-4.8-6.03Z"/><path class="e" d="M136.92,105.24c2.02-.03,5.11,3.15,5.07,5.21-.07,3.25-3.21,6.47-6.17,6.33-2.02-.1-4.67-3.26-4.68-5.58-.02-3.25,2.56-5.91,5.78-5.95Z"/><path class="e" d="M368.9,389.06c-.1,3.19-2.95,5.85-6.03,5.65-2.1-.14-4.91-3.38-4.75-5.47,.24-3.1,3.08-5.99,5.92-6.02,2.27-.02,4.94,3.19,4.86,5.84Z"/><path class="e" d="M349.57,402.95c-.42,3.23-3.4,5.94-6.23,5.68-2.54-.24-4.86-3.67-4.47-6.63,.33-2.52,4.03-5.41,6.29-4.92,1.93,.42,4.64,4.04,4.41,5.87Z"/><path class="e" d="M161.3,97c-.07,3.09-3,6.06-5.9,5.98-1.83-.05-5.06-3.58-4.97-5.44,.15-3.34,3.33-6.46,6.3-6.18,2.08,.19,4.62,3.33,4.57,5.64Z"/><path class="e" d="M375.79,116.58c-.02,3.42-2.65,5.98-5.97,5.81-2.21-.11-5.02-3.2-4.9-5.39,.18-3.3,3.01-6.04,6.09-5.89,2.19,.1,4.8,3.09,4.79,5.47Z"/><path class="e" d="M356.92,101.96c-.11,3.11-3.13,6-5.99,5.73-2.02-.19-4.98-3.53-4.83-5.46,.26-3.36,2.82-5.95,5.91-5.98,2.37-.02,5.01,3.05,4.91,5.72Z"/><path class="e" d="M152.55,397.14c-.3,3.37-3.1,5.94-6.15,5.65-2.29-.22-4.79-3.3-4.55-5.6,.36-3.38,3.15-5.94,6.15-5.67,2.25,.21,4.75,3.29,4.54,5.62Z"/><path class="e" d="M195.04,419.29c-.27,3.09-2.93,5.52-5.96,5.44-2.41-.06-5.06-3.26-4.86-5.87,.25-3.15,2.85-5.53,5.91-5.42,2.44,.09,5.13,3.29,4.9,5.85Z"/><path class="e" d="M177.64,80.23c2.15,.09,4.96,3.23,4.84,5.43-.18,3.39-2.84,6.01-5.97,5.89-1.94-.07-4.96-3.04-4.97-4.87-.01-3.34,3.04-6.57,6.09-6.44Z"/><path class="e" d="M325.74,89.72c.11-3.21,2.47-5.57,5.64-5.63,2.15-.04,5.28,3.06,5.2,5.14-.12,3.42-3.25,6.47-6.32,6.17-2.21-.22-4.61-3.23-4.52-5.69Z"/><path class="e" d="M69.23,288.63c0-3.41,2.56-6.01,5.85-5.91,1.88,.05,4.99,3.01,5.07,4.81,.14,3.26-2.92,6.55-6.06,6.49-2.24-.04-4.86-2.94-4.86-5.39Z"/><path class="e" d="M430.82,211.52c-.07,3.34-2.82,5.96-6.01,5.72-1.9-.14-4.87-3.18-4.86-4.97,.02-3.25,3.21-6.5,6.21-6.32,2.2,.14,4.72,3.14,4.66,5.57Z"/><path class="e" d="M129,376.56c2.17,.03,5.17,3.16,5.04,5.26-.21,3.32-2.91,6.06-5.95,6.04-2.24-.02-4.88-2.89-4.91-5.35-.03-3.45,2.46-6,5.82-5.96Z"/><path class="e" d="M328.53,413.26c.06,3.34-2.97,6.58-6.05,6.49-1.83-.05-4.91-3.07-5.01-4.9-.18-3.37,2.77-6.51,6.04-6.43,1.94,.05,4.99,2.98,5.02,4.83Z"/><g><path class="h" d="M95.03,124.24c-16.82-.24-30.48,12.93-30.62,29.52-.14,16.78,13.12,30.32,29.77,30.38,16.51,.06,29.98-13.15,30.13-29.53,.15-16.58-12.92-30.14-29.28-30.37Z"/><path class="e" d="M73.9,194.49c-.29,.64,.14,1.24,.52,1.82,2.41,3.66,6.35,4.51,9.02,1.05,1.09-1.42,2.03-1.93,3.08-2-5.26-1.31-10.41-3.54-14.07-5.52,1.47,1.04,2.56,2.21,1.45,4.65Z"/><path class="g" d="M135.96,148.96c-.89-1.65-1.3-3.31-1.83-5.04-3.04-9.87-7.74-18.56-16.78-24.4-9.66-6.24-19.95-8.58-31.31-6.33-17.12,3.4-32.48,18.27-33.44,38.91-.71,15.45,5.76,27.64,18.26,36.64,.53,.38,1.09,.73,1.6,1.09,3.66,1.98,8.81,4.21,14.07,5.52,.67-.05,1.39,.08,2.24,.27,1.28,.29,2.63,.36,3.95,.4,24.04,.71,43.25-17.91,43.61-42.18-.08-1.65,.35-3.58-.36-4.89Zm-41.77,35.17c-16.65-.06-29.92-13.6-29.77-30.38,.14-16.59,13.81-29.76,30.62-29.52,16.35,.23,29.42,13.79,29.28,30.37-.14,16.38-13.62,29.59-30.13,29.53Z"/></g></g></g></svg>