<?xml version="1.0" encoding="UTF-8"?><svg xmlns="http://www.w3.org/2000/svg" viewBox="0 0 500 500"><defs><style>.d{fill:#bccbd3;}</style></defs><g id="a"/><g id="b"><g><path class="d" d="M293.65,332.06c0,3.82,0,7.65,0,11.47-.01,4.5-.01,4.51-3.98,6.11-6.77,2.73-13.52,5.54-20.35,8.09-2.7,1.01-4.41,2.33-5.19,5.32-1.43,5.46-3.76,10.64-6.45,15.61-1.13,2.1-1.19,3.89-.2,6.09,3.19,7.11,6.08,14.37,9.28,21.48,1.12,2.48,.95,4.1-1.12,6.07-6.03,5.72-11.88,11.63-17.65,17.62-1.81,1.88-3.35,2.04-5.64,1-6.65-3.02-13.44-5.72-20.09-8.74-3.08-1.39-5.7-1.69-8.85,.17-4.57,2.7-9.6,4.57-14.71,6.02-2.48,.7-3.92,1.92-4.83,4.37-2.68,7.15-5.72,14.15-8.38,21.31-1,2.7-2.26,3.89-5.35,3.8-8.14-.25-16.3-.25-24.44,0-3.11,.1-4.33-1.13-5.33-3.82-2.6-7-5.62-13.84-8.22-20.84-1.03-2.78-2.63-4.27-5.46-5.04-5.3-1.44-10.33-3.66-15.14-6.28-2.27-1.24-4.19-1.25-6.55-.18-7.1,3.21-14.37,6.08-21.47,9.3-2.38,1.08-3.89,.72-5.65-1.1-5.91-6.08-11.91-12.08-17.98-17.99-1.69-1.65-1.93-3.04-.94-5.22,3.21-7.1,6.08-14.36,9.29-21.47,1.14-2.52,1.08-4.59-.27-7.02-2.66-4.79-4.85-9.85-6.25-15.15-.72-2.74-2.18-4.15-4.73-5.13-7.13-2.72-14.14-5.76-21.29-8.43-2.53-.95-3.66-2.05-3.58-4.98,.24-8.31,.24-16.63,0-24.94-.09-2.95,1.09-4.02,3.6-4.96,6.99-2.62,13.84-5.62,20.82-8.25,2.69-1.01,4.41-2.34,5.18-5.32,1.42-5.47,3.76-10.64,6.45-15.61,1.14-2.1,1.19-3.88,.21-6.09-3.19-7.12-6.06-14.37-9.28-21.48-1.13-2.5-.92-4.11,1.13-6.06,6.02-5.73,11.87-11.65,17.65-17.62,1.78-1.83,3.3-2.14,5.66-1.07,7.1,3.23,14.35,6.11,21.46,9.32,2.36,1.06,4.28,1.03,6.55-.22,4.95-2.73,10.17-4.92,15.61-6.46,2.47-.7,3.9-1.94,4.83-4.39,2.75-7.3,5.87-14.45,8.6-21.76,.89-2.38,2-3.37,4.62-3.33,8.48,.16,16.96,.16,25.44,0,2.65-.05,3.72,1,4.6,3.35,2.69,7.14,5.7,14.16,8.48,21.27,.95,2.45,2.13,4.09,4.98,4.85,5.45,1.46,10.67,3.68,15.61,6.44,2.23,1.25,4.18,1.32,6.55,.26,7.27-3.26,14.68-6.2,21.95-9.46,2.01-.9,3.29-.7,4.8,.85,6.16,6.3,12.41,12.52,18.68,18.7,1.4,1.38,1.56,2.58,.76,4.39-3.18,7.12-6.07,14.37-9.29,21.47-1.29,2.84-1.23,5.19,.32,7.94,2.61,4.63,4.69,9.56,6.03,14.7,.72,2.74,2.18,4.16,4.73,5.13,6.67,2.52,13.26,5.26,19.89,7.92q4.9,1.97,4.9,7.48c0,3.49,0,6.98,0,10.47Zm-175.11,75.23c.65,.32,1.42,.61,2.11,1.04,8.13,4.98,16.82,8.63,26.08,10.87,2.14,.52,3.36,1.64,4.14,3.69,2.55,6.66,5.34,13.23,7.87,19.9,.81,2.13,1.75,3.29,4.27,3.1,3.31-.24,6.65-.18,9.97-.02,2.17,.11,3.26-.69,4.03-2.72,2.42-6.36,5.18-12.59,7.5-18.97,1.06-2.91,2.52-4.6,5.69-5.32,8.64-1.95,16.72-5.45,24.23-10.14,2.13-1.33,3.78-1.21,5.94-.24,6.35,2.88,12.83,5.44,19.18,8.32,2.26,1.03,3.89,1.11,5.62-.93,1.94-2.27,4.04-4.45,6.35-6.33,2.23-1.82,2.3-3.54,1.16-6.02-2.98-6.48-5.64-13.11-8.57-19.61-.84-1.86-.74-3.3,.33-5.04,4.79-7.83,8.43-16.19,10.49-25.16,.58-2.52,1.87-3.88,4.33-4.79,6.53-2.41,12.91-5.24,19.44-7.67,2.2-.82,3.25-1.81,3.08-4.27-.21-3.14-.16-6.32-.02-9.47,.11-2.46-.54-3.82-3.14-4.74-6.41-2.26-12.58-5.2-18.98-7.45-2.91-1.02-4.17-2.7-4.84-5.52-2.04-8.62-5.49-16.71-10.16-24.23-1.31-2.12-1.25-3.77-.27-5.94,2.89-6.34,5.47-12.82,8.33-19.17,1-2.22,1.16-3.88-.9-5.64-2.4-2.04-4.6-4.33-6.7-6.69-1.57-1.76-2.95-2.05-5.18-1.02-6.63,3.06-13.41,5.76-20.08,8.73-1.84,.82-3.28,.8-5.04-.29-7.81-4.84-16.18-8.44-25.15-10.5-2.49-.57-3.91-1.81-4.82-4.29-2.4-6.54-5.22-12.92-7.68-19.44-.81-2.13-1.71-3.32-4.25-3.13-3.31,.24-6.65,.18-9.97,.02-2.15-.1-3.27,.63-4.05,2.69-2.47,6.51-5.35,12.88-7.66,19.44-1.03,2.91-2.7,4.18-5.52,4.83-8.64,2.02-16.7,5.53-24.23,10.16-2.12,1.31-3.77,1.25-5.94,.26-6.19-2.83-12.47-5.43-18.72-8.11-3.67-1.57-3.68-1.58-6.38,1.08-2.02,1.98-4.01,3.98-6,5.99-2.58,2.63-2.59,2.65-1.18,5.94,2.81,6.56,5.59,13.13,8.51,19.64,.83,1.85,.78,3.29-.3,5.05-4.82,7.82-8.44,16.18-10.5,25.16-.57,2.5-1.83,3.9-4.3,4.81-6.54,2.41-12.92,5.21-19.44,7.69-2.12,.81-3.31,1.73-3.12,4.26,.24,3.31,.18,6.65,.02,9.97-.11,2.17,.67,3.27,2.71,4.04,6.36,2.42,12.56,5.24,18.98,7.48,3.23,1.13,4.65,3.01,5.41,6.19,1.98,8.29,5.29,16.09,9.8,23.3,1.52,2.43,1.42,4.36,.29,6.83-2.84,6.18-5.33,12.52-8.13,18.72-1.01,2.24-1.11,3.88,.93,5.63,2.39,2.05,4.61,4.33,6.7,6.69,1.58,1.78,2.98,2.03,5.19,1.01,6.48-2.97,13.09-5.68,19.65-8.48,.92-.39,1.84-.76,2.91-1.2Z"/><path class="d" d="M290.69,236.22c0-3.99-.09-7.98,.04-11.97,.06-2-.52-3.4-2.04-4.76-2.84-2.55-5.6-5.23-8.1-8.1-1.5-1.72-3.1-2.16-5.22-2.12-7.81,.14-15.63,.04-23.44,.25-2.67,.07-4.2-.55-5.23-3.27-2.76-7.29-5.83-14.47-8.92-21.63-.79-1.84-.49-2.96,.93-4.3,5.92-5.6,11.69-11.35,17.59-16.97,1.56-1.49,2.25-2.89,1.83-5.22-.67-3.76-.68-7.67,0-11.42,.42-2.34-.28-3.73-1.84-5.22-5.77-5.51-11.41-11.16-17.23-16.62-1.71-1.6-2.1-2.9-1.12-5.12,3.08-6.98,6.06-14.02,8.75-21.16,1.03-2.74,2.57-3.34,5.23-3.26,7.64,.21,15.3,.08,22.94,.27,2.51,.06,4.35-.48,6.06-2.5,2.35-2.78,5.03-5.32,7.76-7.73,1.53-1.35,2.08-2.77,2.04-4.76-.14-7.98-.01-15.97-.27-23.94-.09-2.81,.83-4.12,3.41-5.11,6.97-2.68,13.81-5.67,20.72-8.51,3.26-1.34,3.25-1.29,5.82,1.38,5.31,5.5,10.69,10.94,15.97,16.48,1.58,1.66,3.03,2.6,5.6,2.09,3.58-.7,7.34-.68,10.93-.03,2.7,.49,4.31-.4,6.04-2.22,5.38-5.66,10.99-11.11,16.32-16.83,1.64-1.76,2.93-2.05,5.1-1.1,6.99,3.06,14.04,6,21.14,8.8,2.37,.93,3.22,2.25,3.15,4.79-.2,7.98-.11,15.96-.26,23.94-.04,2.16,.54,3.71,2.23,5.18,2.75,2.4,5.38,4.98,7.75,7.75,1.59,1.86,3.31,2.37,5.63,2.33,7.65-.16,15.3-.04,22.94-.26,2.83-.08,4.48,.59,5.57,3.49,2.69,7.14,5.71,14.16,8.75,21.16,.87,2,.61,3.22-1,4.72-5.94,5.57-11.7,11.34-17.59,16.97-1.43,1.37-2.04,2.66-1.69,4.78,.65,3.94,.64,7.99,0,11.93-.34,2.11,.22,3.42,1.66,4.8,5.77,5.51,11.46,11.11,17.19,16.67,2.43,2.35,2.47,2.36,1.2,5.45-2.84,6.91-5.87,13.74-8.52,20.72-1.08,2.85-2.68,3.61-5.55,3.52-7.64-.23-15.3-.1-22.94-.26-2.32-.05-4.04,.43-5.64,2.3-2.37,2.77-5,5.35-7.75,7.75-1.67,1.46-2.29,3-2.25,5.17,.16,7.81,0,15.63,.27,23.44,.1,2.97-.85,4.43-3.61,5.49-7.12,2.74-14.14,5.76-21.16,8.75-1.74,.74-2.88,.62-4.28-.87-5.59-5.92-11.42-11.62-17.02-17.54-1.68-1.78-3.3-2.21-5.69-1.84-3.61,.55-7.36,.64-10.93-.05-2.56-.5-4.02,.43-5.6,2.09-5.27,5.54-10.65,10.98-15.97,16.48-2.58,2.67-2.57,2.72-5.83,1.38-7.06-2.9-14.09-5.87-21.18-8.69-2.15-.85-3.04-2.05-2.93-4.44,.2-4.15,.06-8.31,.06-12.47h.17Zm101.78-161.23h.16c0-3.83-.1-7.65,.04-11.47,.07-1.99-.74-3.04-2.5-3.71-2.33-.88-4.66-1.78-6.88-2.89-2.14-1.07-3.57-.59-5.18,1.12-4.66,4.97-9.65,9.64-14.21,14.71-2.18,2.42-4.41,3.11-7.46,2.53-5.76-1.1-11.59-1.11-17.35-.06-3.22,.59-5.59,.03-7.91-2.57-4.54-5.08-9.56-9.72-14.2-14.72-1.68-1.81-3.13-1.95-5.19-.92-2.07,1.04-4.24,1.93-6.44,2.66-2.26,.75-2.95,2.12-2.88,4.46,.19,7.15,.11,14.3,.23,21.45,.04,2.13-.39,3.66-2.3,5.06-5.52,4.05-10.37,8.87-14.44,14.38-1.48,2-3.11,2.6-5.46,2.52-4.98-.17-9.98-.13-14.97-.14-2.99,0-6.41-.84-8.84,.34-2.76,1.33-2.86,5.36-4.15,8.19-1.76,3.88-2,3.24,1.12,6.32,4.98,4.9,9.93,9.83,15,14.63,1.61,1.52,2.33,3.07,1.94,5.26-1.22,6.77-1.27,13.56-.01,20.33,.44,2.39-.41,4.06-2.14,5.67-3.66,3.39-7.22,6.89-10.7,10.46-2.18,2.24-5.89,3.94-6.13,6.88-.23,2.82,2.16,5.77,3.04,8.77,.83,2.83,2.53,3.34,5.21,3.26,6.98-.23,13.97-.1,20.95-.24,2.16-.04,3.65,.5,5.03,2.37,4.06,5.51,8.9,10.36,14.41,14.42,2.03,1.5,2.54,3.17,2.46,5.49-.16,4.65-.18,9.31-.1,13.97,.06,3.45-1.47,7.68,.65,10.15,2.04,2.38,6.13,2.97,9.26,4.47,1.8,.86,2.92,.44,4.27-1,4.89-5.22,10.06-10.17,14.88-15.45,1.95-2.14,3.98-2.66,6.61-2.19,6.28,1.13,12.57,1.1,18.84-.03,2.46-.44,4.39,0,6.19,2.04,3.31,3.73,6.89,7.22,10.44,10.72,2.23,2.2,3.92,5.69,6.88,6.21,2.93,.51,5.73-2.26,8.75-3.09,2.81-.77,3.39-2.47,3.31-5.17-.23-7.15-.12-14.3-.24-21.45-.03-1.8,.41-3.06,1.95-4.22,5.75-4.31,10.84-9.34,15.12-15.11,1.27-1.71,2.68-2.16,4.66-2.11,4.99,.13,9.98,.19,14.97,.1,3.29-.06,7.14,1.35,9.72-.57,2.52-1.88,2.67-5.92,4.25-8.83,1.14-2.1,.65-3.53-1.08-5.14-5.24-4.86-10.24-9.98-15.48-14.85-1.79-1.67-2.37-3.42-1.95-5.74,1.2-6.61,1.19-13.23-.02-19.83-.44-2.37,.32-4.07,2.08-5.69,3.67-3.38,7.23-6.88,10.7-10.47,2.18-2.25,6.06-3.87,6.26-6.74,.21-2.99-2.13-6.13-3.24-9.24-.76-2.13-1.93-3.06-4.38-2.98-7.31,.23-14.63,.15-21.95,.22-1.71,.02-3.11-.15-4.31-1.79-4.33-5.95-9.56-11.07-15.44-15.49-1.37-1.03-1.87-2.14-1.84-3.77,.07-3.82,.02-7.65,.02-11.47Z"/><path class="d" d="M132.05,332.07c0-19.66,16.2-35.9,35.85-35.91,19.66-.01,35.92,16.22,35.92,35.85,0,19.65-16.22,35.9-35.86,35.92-19.64,.02-35.89-16.21-35.9-35.86Zm35.93-23.99c-13.33-.02-24.04,10.7-24.01,24.03,.03,13.08,10.62,23.78,23.66,23.9,13.36,.11,24.2-10.52,24.27-23.79,.07-13.35-10.6-24.12-23.91-24.14Z"/><path class="d" d="M167.92,278.09c-3.25-.01-5.98-2.82-5.9-6.06,.08-3.24,2.96-5.93,6.18-5.77,3.05,.15,5.59,2.76,5.65,5.81,.06,3.24-2.7,6.04-5.94,6.02Z"/><path class="d" d="M143.91,280.13c.03,3.23-2.75,6-5.98,5.96-3.26-.04-5.95-2.85-5.85-6.1,.1-3.03,2.69-5.62,5.73-5.73,3.2-.11,6.07,2.64,6.1,5.86Z"/><path class="d" d="M197.95,274.28c3.23,.05,5.96,2.91,5.83,6.11-.13,3.24-3.03,5.89-6.24,5.7-3.07-.18-5.56-2.79-5.59-5.85-.03-3.21,2.78-6.01,6-5.96Z"/><path class="d" d="M121.98,302.03c.04,3.24-2.72,6.02-5.95,6-3.23-.02-5.98-2.87-5.88-6.08,.09-3.02,2.7-5.64,5.72-5.75,3.24-.12,6.07,2.58,6.11,5.83Z"/><path class="d" d="M219.58,296.2c3.21-.12,6.1,2.62,6.14,5.83,.04,3.21-2.75,6.02-5.97,6-3.05-.02-5.68-2.52-5.86-5.58-.2-3.23,2.43-6.12,5.69-6.24Z"/><path class="d" d="M108.29,326.13c3.23,.14,5.9,3.08,5.69,6.27-.21,3.24-3.2,5.84-6.39,5.56-3.04-.27-5.5-2.98-5.44-6.01,.06-3.25,2.91-5.94,6.14-5.81Z"/><path class="d" d="M227.94,326.13c3.24,.08,5.94,2.96,5.78,6.17-.15,3.05-2.76,5.6-5.8,5.66-3.24,.07-6.03-2.69-6.03-5.93,0-3.26,2.8-5.98,6.05-5.9Z"/><path class="d" d="M121.99,362.1c-.07,3.25-2.92,5.94-6.15,5.8-3.03-.13-5.62-2.76-5.69-5.78-.08-3.23,2.67-6.03,5.92-6.04,3.24-.01,5.99,2.79,5.92,6.02Z"/><path class="d" d="M213.89,362.06c-.04-3.25,2.73-6.03,5.95-5.98,3.04,.05,5.7,2.58,5.87,5.6,.18,3.14-2.56,6.12-5.74,6.23-3.24,.11-6.05-2.58-6.09-5.85Z"/><path class="d" d="M137.91,378.01c3.26-.04,6.03,2.7,6,5.94-.03,3.24-2.87,5.99-6.08,5.88-3.03-.1-5.63-2.68-5.75-5.71-.13-3.22,2.59-6.07,5.83-6.12Z"/><path class="d" d="M203.79,384.04c-.09,3.22-3.01,5.95-6.18,5.79-3.23-.17-5.88-3.13-5.66-6.32,.21-3.05,2.88-5.52,5.93-5.52,3.25,0,5.99,2.81,5.9,6.05Z"/><path class="d" d="M173.85,391.73c.11,3.23-2.62,6.07-5.86,6.1-3.24,.04-6.01-2.74-5.97-5.98,.04-3.06,2.54-5.67,5.61-5.85,3.21-.18,6.12,2.5,6.22,5.73Z"/><path class="d" d="M347.78,128.51c13.13,.09,23.89,11.16,23.69,24.37-.2,12.87-11.19,23.54-24.14,23.45-13.12-.1-23.88-11.18-23.68-24.39,.2-12.89,11.15-23.52,24.13-23.43Zm-.17,35.88c6.64-.03,12.01-5.51,11.92-12.15-.09-6.45-5.32-11.69-11.77-11.79-6.65-.11-12.13,5.25-12.16,11.9-.04,6.65,5.38,12.07,12.02,12.04Z"/><path class="d" d="M347.37,98.6c3.23-.11,6.07,2.61,6.11,5.85,.04,3.24-2.74,6.02-5.98,5.98-3.05-.04-5.68-2.55-5.85-5.61-.19-3.22,2.48-6.11,5.73-6.23Z"/><path class="d" d="M299.65,158.33c-3.25,0-5.98-2.81-5.9-6.05,.08-3.24,2.95-5.93,6.17-5.78,3.05,.15,5.6,2.75,5.66,5.8,.07,3.23-2.69,6.04-5.93,6.03Z"/><path class="d" d="M395.27,146.5c3.23-.11,6.07,2.61,6.1,5.85,.04,3.24-2.74,6.02-5.98,5.98-3.05-.04-5.68-2.55-5.85-5.61-.19-3.22,2.48-6.11,5.73-6.23Z"/><path class="d" d="M347.35,194.4c3.23-.12,6.07,2.58,6.13,5.83,.05,3.24-2.71,6.03-5.95,6.01-3.05-.02-5.69-2.53-5.88-5.58-.2-3.22,2.46-6.12,5.7-6.25Z"/><path class="d" d="M311.83,128.57c-.05,3.35-2.74,5.98-5.98,5.83-2.93-.13-5.62-2.85-5.72-5.77-.11-3.08,2.79-6.06,5.91-6.08,3.25-.02,5.84,2.67,5.79,6.02Z"/><path class="d" d="M311.82,176.55c-.08,3.17-2.61,5.71-5.7,5.73-3.19,.02-6.13-2.97-6-6.1,.12-2.99,2.88-5.69,5.87-5.73,3.29-.05,5.92,2.71,5.83,6.1Z"/><path class="d" d="M323.71,116.68c-3.4,.06-6.11-2.57-6.03-5.86,.07-3.11,2.6-5.55,5.8-5.6,3.39-.05,6.13,2.6,6.05,5.86-.07,3.08-2.63,5.54-5.82,5.59Z"/><path class="d" d="M371.43,116.68c-3.19-.04-5.75-2.48-5.85-5.56-.1-3.26,2.64-5.94,6.02-5.89,3.21,.04,5.74,2.45,5.84,5.57,.1,3.27-2.61,5.93-6.01,5.89Z"/><path class="d" d="M383.28,128.25c.09-3.17,2.61-5.69,5.7-5.71,3.26-.02,5.9,2.78,5.79,6.14-.1,3.15-2.64,5.68-5.72,5.7-3.28,.02-5.87-2.73-5.77-6.13Z"/><path class="d" d="M394.78,176.58c-.09,3.16-2.6,5.69-5.7,5.73-3.28,.04-5.88-2.7-5.79-6.11,.08-3.16,2.61-5.72,5.67-5.75,3.27-.03,5.91,2.75,5.81,6.12Z"/><path class="d" d="M323.49,199.64c-3.18-.05-5.73-2.51-5.81-5.61-.08-3.29,2.63-5.92,6.04-5.86,3.19,.05,5.75,2.5,5.82,5.59,.08,3.27-2.66,5.93-6.05,5.88Z"/><path class="d" d="M371.59,199.63c-3.37,.04-6.1-2.64-6.01-5.91,.08-3.09,2.64-5.53,5.84-5.56,3.4-.04,6.1,2.61,6.01,5.89-.09,3.09-2.65,5.54-5.84,5.58Z"/></g></g><g id="c"/></svg>