<?xml version="1.0" encoding="UTF-8"?><svg xmlns="http://www.w3.org/2000/svg" viewBox="0 0 500 500"><defs><style>.d{fill:#bccbd3;}</style></defs><g id="a"><g><path class="d" d="M250.5,436.97H96.03c-1,0-2,0-3,0-4.3,.02-4.01,.15-4.01-4.11,0-13.66,.23-27.33-.07-40.99-.24-10.62,3.58-19.51,10.22-27.39,8.58-10.19,19.22-17.91,30.53-24.75,17.71-10.71,36.49-19.22,55.78-26.62,4.97-1.91,9.99-3.67,15.01-5.42,1.78-.62,2.61-1.56,2.58-3.59-.1-9.16-.13-18.33,.03-27.49,.04-2.07-.95-2.9-2.4-3.88-12.48-8.49-22.38-19.34-29.42-32.73-6.46-12.28-9.99-25.39-10.17-39.25-.21-16.16-.4-32.34,.02-48.49,.94-35.71,23.02-66.75,55.12-80.21,11.51-4.82,23.5-7.18,35.99-7.01,36.78,.52,68.59,23.27,81.89,55.67,4.55,11.07,6.84,22.57,6.85,34.53,0,14,.1,28-.02,41.99-.27,31.51-13.22,56.53-38.86,74.87-2.27,1.62-3.27,3.15-3.2,5.99,.21,8.33,.05,16.66,.09,24.99,.02,3.75-.76,3.35,3.49,4.85,19.17,6.73,37.9,14.49,55.9,23.95,11.22,5.9,22.12,12.32,31.93,20.4,7.49,6.17,14.4,12.89,18.84,21.74,2.43,4.84,3.83,9.9,3.82,15.34-.02,14.5,0,28.99,0,43.49,0,4.26,.29,4.12-4,4.11-21.33,0-42.66,0-63.99,0-31.49,0-62.99,0-94.48,0ZM172.98,176.5c0,7.66,.07,15.33-.03,22.99-.06,4.53,.47,9,1.3,13.4,5.86,31.21,30.36,55.89,61.59,62.11,1.86,.37,3.46,.98,4.93,2.19,6.4,5.29,14.29,4.92,20.19,.23,1.61-1.28,3.3-2.04,5.34-2.45,36.09-7.16,62.44-38.92,62.7-75.63,.11-14.99-.03-29.99,.05-44.98,.03-4.53-.43-9.01-1.27-13.4-8.3-43.38-48.83-70.47-91-62.69-37.85,6.98-63.84,39.71-63.8,76.74,0,7.16,0,14.33,0,21.49Zm77.81,248.53c47.98,0,95.96,0,143.93,0,1.17,0,2.33,.03,3.5,0,2.7-.09,2.78-.1,2.79-2.81,.03-11.16,0-22.32,0-33.48,0-3.24-1.1-6.21-2.48-9.06-1.83-3.78-4.34-7.08-7.2-10.14-5.14-5.51-10.96-10.23-17.19-14.43-17.89-12.06-37.37-21.02-57.31-29.05-4.78-1.92-9.65-3.62-14.46-5.45-2.94-1.12-3.86-1.59-5.66,1.72-.39,.73-.95,1.36-1.45,2.03-13.45,18.41-36.24,26.63-58.35,20.76-13.49-3.58-23.82-11.49-31.69-22.84-2-2.89-2.07-2.97-5.2-1.83-22.7,8.26-44.88,17.67-65.52,30.37-9.4,5.78-18.27,12.22-25.53,20.65-5.28,6.13-8.43,12.94-8.08,21.34,.37,8.98,.05,17.99,.09,26.98,.03,5.98-.75,5.24,5.37,5.24,48.14,.02,96.29,.01,144.43,.01Zm-35.27-144.11c-.88,2-.52,3.68-.53,5.32-.04,7.5,.4,15.03-.15,22.49-.42,5.76,1.72,9.98,5.46,13.81,1.16,1.19,2.38,2.34,3.67,3.38,9.66,7.74,20.85,10.19,32.87,8.77,11.19-1.33,20.62-6.19,27.54-15.41,1.77-2.36,2.75-4.73,2.7-7.77-.17-8.83-.04-17.67-.08-26.5,0-1.3,.36-2.68-.59-3.99-5.48,1.8-10.86,4.07-16.6,5.13-1.34,.25-2.36,1.18-3.48,1.91-10.12,6.55-20.28,6.65-30.46,.13-1.26-.81-2.4-1.8-3.94-2.09-5.57-1.06-10.82-3.18-16.42-5.17Z"/><path class="d" d="M124.93,407.02c-.01,3.25-2.84,6-6.07,5.91-3.25-.09-5.94-2.97-5.78-6.2,.15-3.06,2.76-5.6,5.82-5.66,3.24-.06,6.05,2.7,6.04,5.95Z"/><path class="d" d="M148.93,407.13c-.08,3.24-2.98,5.95-6.19,5.79-3.24-.16-5.89-3.11-5.67-6.32,.21-3.05,2.89-5.55,5.94-5.54,3.25,0,6,2.82,5.92,6.06Z"/><path class="d" d="M167.17,412.93c-3.24,.1-6.07-2.62-6.1-5.88-.03-3.25,2.75-6.02,6-5.98,3.05,.04,5.69,2.58,5.86,5.63,.18,3.2-2.52,6.13-5.75,6.23Z"/><path class="d" d="M191.23,401.07c3.24,.14,5.91,3.08,5.7,6.28-.2,3.05-2.87,5.57-5.91,5.58-3.25,.01-6.01-2.79-5.94-6.04,.06-3.25,2.92-5.96,6.16-5.82Z"/><path class="d" d="M214.83,412.93c-3.25-.1-5.93-3-5.76-6.22,.17-3.24,3.14-5.88,6.34-5.64,3.05,.23,5.54,2.93,5.52,5.97-.03,3.25-2.86,5.99-6.1,5.89Z"/><path class="d" d="M239.05,401.07c3.25,.03,5.98,2.87,5.87,6.11-.1,3.05-2.69,5.64-5.74,5.75-3.24,.11-6.08-2.6-6.12-5.86-.04-3.25,2.73-6.03,5.98-5.99Z"/><path class="d" d="M263.08,401.07c3.25,.05,5.97,2.9,5.85,6.14-.12,3.05-2.71,5.63-5.77,5.72-3.24,.1-6.06-2.63-6.09-5.89-.03-3.25,2.76-6.02,6.01-5.97Z"/><path class="d" d="M287.13,401.07c3.25,.08,5.95,2.97,5.79,6.19-.15,3.05-2.77,5.61-5.82,5.67-3.24,.07-6.04-2.69-6.04-5.94,0-3.26,2.81-6,6.06-5.92Z"/><path class="d" d="M311.17,412.93c-3.24,.1-6.07-2.62-6.1-5.88-.03-3.25,2.75-6.02,6-5.98,3.05,.04,5.69,2.57,5.86,5.63,.18,3.2-2.52,6.13-5.75,6.23Z"/><path class="d" d="M340.93,406.82c.1,3.24-2.63,6.07-5.88,6.1-3.25,.03-6.02-2.75-5.98-6.01,.04-3.06,2.56-5.68,5.63-5.85,3.21-.18,6.13,2.52,6.23,5.75Z"/><path class="d" d="M359.18,412.93c-3.24,.11-6.07-2.61-6.11-5.87-.04-3.04,2.44-5.74,5.49-5.99,3.2-.26,6.18,2.37,6.37,5.61,.19,3.2-2.5,6.13-5.74,6.24Z"/><path class="d" d="M382.81,412.93c-3.25-.11-5.92-3.02-5.74-6.24,.19-3.25,3.16-5.87,6.36-5.61,3.04,.24,5.53,2.95,5.49,5.99-.04,3.25-2.89,5.98-6.12,5.87Z"/></g></g><g id="b"/><g id="c"/></svg>