<?xml version="1.0" encoding="UTF-8"?><svg xmlns="http://www.w3.org/2000/svg" xmlns:xlink="http://www.w3.org/1999/xlink" viewBox="0 0 500 500"><defs><style>.f{fill:#bccbd3;}.g{clip-path:url(#b);}.h,.i{fill:#25557c;}.j{fill:none;}.i{font-family:Prompt-SemiBold, Prompt;font-size:197.7px;}</style><clipPath id="b"><rect class="j" x="246.76" width="253.24" height="500"/></clipPath></defs><g id="a"><g><path class="f" d="M246.74,71.16c51.39,0,102.78,.03,154.18-.03,7.58,0,14.02,2.34,19.15,7.97,3.95,4.33,6.07,9.46,6.27,15.35,.05,1.5,.03,2.99,.03,4.49,0,101.29,0,202.58,0,303.86,0,3.32,.07,6.61-.88,9.89-2.99,10.32-12.03,17.4-22.78,17.67-1.16,.03-2.33,.01-3.49,.01-101.62,0-203.24,0-304.86,0-3.32,0-6.62,.03-9.88-.96-10.04-3.05-17.01-12.07-17.29-22.58-.03-1.33-.01-2.66-.01-3.99,0-101.45,0-202.91,0-304.36,0-2.65-.17-5.31,.43-7.95,2.61-11.61,11.98-19.3,23.97-19.33,26.94-.07,53.89-.02,80.83-.02,24.78,0,49.56,0,74.34,0Zm167.7,180.1c0-50.73,0-101.45,0-152.18,0-1.66,.08-3.34-.08-4.99-.57-6.01-5.02-10.4-11.04-10.95-1.16-.11-2.33-.06-3.49-.06-102.12,0-204.23,.06-306.35-.11-8.82-.01-15.17,5.43-14.39,14.34,.03,.33,0,.66,0,1,0,101.62,0,203.24,0,304.85,0,1.33-.05,2.67,.06,3.99,.51,6.24,5.05,10.74,11.31,11.22,1.49,.11,2.99,.05,4.49,.05,101.28,0,202.57-.09,303.85,.14,10.77,.02,15.83-5.74,15.78-15.63-.29-50.56-.13-101.12-.13-151.68Z"/><path class="f" d="M120.95,119c.02,3.25-2.76,6.01-6.01,5.95-3.25-.06-5.95-2.9-5.82-6.13,.12-3.06,2.7-5.61,5.76-5.7,3.25-.09,6.05,2.62,6.07,5.88Z"/><path class="f" d="M144.9,119c.02,3.25-2.76,6.01-6.01,5.95-3.25-.06-5.95-2.9-5.82-6.13,.12-3.06,2.7-5.61,5.76-5.7,3.25-.09,6.05,2.62,6.07,5.88Z"/><path class="f" d="M162.77,124.95c-3.25-.1-5.92-2.98-5.75-6.21,.17-3.24,3.13-5.87,6.33-5.63,3.05,.23,5.53,2.91,5.5,5.96-.02,3.25-2.84,5.97-6.08,5.88Z"/><path class="f" d="M192.8,119.22c-.11,3.23-3.03,5.91-6.23,5.73-3.24-.19-5.85-3.15-5.6-6.36,.24-3.05,2.93-5.52,5.98-5.48,3.25,.04,5.96,2.87,5.85,6.11Z"/><path class="f" d="M216.75,119.09c-.04,3.25-2.87,5.97-6.1,5.86-3.24-.11-5.91-3.01-5.73-6.23,.17-3.07,2.79-5.57,5.85-5.61,3.25-.04,6.02,2.73,5.98,5.98Z"/><path class="f" d="M240.7,119.17c-.08,3.25-2.96,5.94-6.18,5.78-3.24-.16-5.88-3.1-5.65-6.3,.22-3.05,2.88-5.54,5.93-5.53,3.26,0,5.98,2.81,5.9,6.05Z"/><path class="f" d="M258.55,124.95c-3.24-.11-5.91-3.01-5.73-6.23,.19-3.25,3.15-5.85,6.35-5.6,3.05,.24,5.52,2.94,5.48,5.98-.04,3.25-2.87,5.96-6.1,5.85Z"/><path class="f" d="M282.67,124.95c-3.25-.01-5.98-2.82-5.9-6.06,.08-3.25,2.95-5.93,6.18-5.78,3.06,.15,5.59,2.75,5.65,5.81,.06,3.24-2.69,6.04-5.93,6.02Z"/><path class="f" d="M306.82,124.94c-3.23,.11-6.06-2.6-6.1-5.85-.04-3.04,2.43-5.73,5.48-5.97,3.2-.25,6.16,2.36,6.35,5.6,.19,3.21-2.48,6.11-5.73,6.23Z"/><path class="f" d="M330.77,124.94c-3.23,.11-6.06-2.6-6.1-5.85-.04-3.04,2.43-5.73,5.48-5.97,3.2-.25,6.16,2.36,6.35,5.6,.19,3.21-2.48,6.11-5.73,6.23Z"/><path class="f" d="M354.72,124.94c-3.23,.11-6.06-2.6-6.1-5.85-.04-3.04,2.43-5.73,5.48-5.97,3.2-.25,6.16,2.36,6.35,5.6,.19,3.21-2.48,6.11-5.73,6.23Z"/><path class="f" d="M378.67,124.94c-3.23,.11-6.06-2.6-6.1-5.85-.04-3.04,2.43-5.73,5.48-5.97,3.2-.25,6.16,2.36,6.35,5.6,.19,3.21-2.48,6.11-5.73,6.23Z"/><path class="f" d="M115.1,148.9c-3.24,.04-6.01-2.73-5.98-5.98,.04-3.26,2.85-5.96,6.1-5.85,3.06,.1,5.63,2.67,5.73,5.73,.11,3.24-2.6,6.07-5.85,6.1Z"/><path class="f" d="M378.57,137.06c3.25,.05,5.95,2.89,5.83,6.13-.12,3.23-3.05,5.91-6.25,5.71-3.05-.19-5.56-2.83-5.58-5.88-.02-3.25,2.75-6.01,6-5.95Z"/><path class="f" d="M115.09,161.01c3.25,.04,5.96,2.86,5.86,6.1-.11,3.23-3.02,5.92-6.22,5.74-3.06-.17-5.57-2.8-5.61-5.85-.04-3.25,2.72-6.02,5.97-5.98Z"/><path class="f" d="M378.43,161.01c3.25-.03,6.01,2.74,5.97,5.98-.04,3.25-2.88,5.96-6.11,5.85-3.05-.11-5.62-2.69-5.72-5.74-.11-3.24,2.6-6.06,5.86-6.1Z"/><path class="f" d="M120.95,190.7c.11,3.24-2.61,6.06-5.86,6.1-3.04,.03-5.73-2.44-5.97-5.49-.25-3.21,2.36-6.16,5.6-6.35,3.21-.18,6.11,2.49,6.22,5.73Z"/><path class="f" d="M378.26,196.8c-3.24-.13-5.9-3.05-5.69-6.26,.2-3.25,3.18-5.84,6.38-5.56,3.05,.26,5.5,2.96,5.45,6.01-.06,3.25-2.91,5.95-6.14,5.82Z"/><path class="f" d="M115.12,208.91c3.25,.05,5.95,2.89,5.83,6.13-.12,3.23-3.05,5.91-6.25,5.71-3.05-.19-5.56-2.83-5.58-5.88-.02-3.25,2.75-6.01,6-5.95Z"/><path class="f" d="M384.4,214.65c.1,3.24-2.61,6.06-5.86,6.09-3.04,.03-5.73-2.45-5.96-5.5-.25-3.21,2.37-6.16,5.61-6.34,3.21-.18,6.11,2.5,6.22,5.74Z"/><path class="f" d="M115.06,232.86c3.26,.02,5.98,2.82,5.89,6.07-.09,3.24-2.98,5.93-6.19,5.76-3.06-.16-5.58-2.77-5.64-5.82-.06-3.25,2.7-6.03,5.94-6.01Z"/><path class="f" d="M384.4,238.72c.03,3.25-2.74,6.01-5.98,5.97-3.05-.04-5.68-2.56-5.85-5.61-.18-3.22,2.49-6.11,5.74-6.22,3.24-.11,6.06,2.6,6.09,5.86Z"/><path class="f" d="M120.95,262.87c-.08,3.25-2.96,5.94-6.18,5.78-3.24-.16-5.88-3.1-5.65-6.3,.21-3.05,2.88-5.54,5.93-5.53,3.26,0,5.98,2.81,5.9,6.05Z"/><path class="f" d="M378.33,256.81c3.25-.09,6.05,2.63,6.07,5.89,.02,3.25-2.77,6-6.01,5.95-3.05-.05-5.66-2.58-5.82-5.64-.16-3.23,2.51-6.1,5.76-6.19Z"/><path class="f" d="M115.12,292.6c-3.24,.06-6.03-2.71-6.01-5.95,.02-3.26,2.82-5.98,6.07-5.88,3.06,.09,5.64,2.65,5.76,5.7,.13,3.24-2.57,6.08-5.83,6.13Z"/><path class="f" d="M378.43,280.76c3.25-.03,6.01,2.74,5.97,5.98-.04,3.25-2.88,5.96-6.11,5.85-3.05-.11-5.62-2.69-5.72-5.74-.11-3.24,2.6-6.06,5.86-6.1Z"/><path class="f" d="M120.95,310.69c-.04,3.25-2.86,5.97-6.1,5.86-3.24-.11-5.91-3.01-5.73-6.23,.17-3.07,2.79-5.57,5.85-5.61,3.25-.04,6.01,2.73,5.98,5.98Z"/><path class="f" d="M378.67,316.55c-3.23,.11-6.06-2.6-6.1-5.85-.04-3.04,2.43-5.73,5.48-5.97,3.2-.25,6.16,2.35,6.35,5.6,.19,3.21-2.48,6.11-5.73,6.23Z"/><path class="f" d="M120.95,334.67c-.05,3.25-2.9,5.95-6.13,5.83-3.24-.13-5.9-3.04-5.7-6.25,.19-3.06,2.82-5.56,5.88-5.58,3.25-.02,6,2.76,5.95,6Z"/><path class="f" d="M378.3,328.66c3.24-.11,6.06,2.6,6.1,5.85,.04,3.25-2.73,6.02-5.98,5.98-3.05-.03-5.68-2.55-5.85-5.61-.18-3.22,2.48-6.12,5.73-6.23Z"/><path class="f" d="M120.95,358.67c-.08,3.25-2.96,5.94-6.18,5.78-3.24-.16-5.88-3.1-5.65-6.3,.21-3.05,2.88-5.54,5.93-5.53,3.26,0,5.98,2.81,5.9,6.05Z"/><path class="f" d="M378.54,352.61c3.25,.04,5.96,2.86,5.86,6.1-.11,3.23-3.02,5.92-6.22,5.74-3.06-.17-5.57-2.8-5.61-5.85-.04-3.25,2.72-6.02,5.97-5.98Z"/><path class="f" d="M115.26,376.56c3.24,.14,5.89,3.07,5.68,6.27-.21,3.24-3.2,5.83-6.39,5.55-3.05-.27-5.5-2.97-5.44-6.02,.06-3.25,2.91-5.95,6.15-5.81Z"/><path class="f" d="M133.07,382.25c.14-3.24,3.06-5.89,6.27-5.68,3.24,.21,5.83,3.19,5.55,6.39-.27,3.05-2.97,5.5-6.01,5.44-3.25-.06-5.94-2.92-5.81-6.15Z"/><path class="f" d="M163.16,376.56c3.24,.14,5.89,3.07,5.69,6.27-.21,3.24-3.2,5.83-6.39,5.55-3.05-.27-5.5-2.98-5.44-6.02,.06-3.25,2.91-5.95,6.14-5.81Z"/><path class="f" d="M192.8,382.71c-.14,3.23-3.08,5.9-6.27,5.69-3.25-.21-5.83-3.18-5.55-6.4,.26-3.05,2.97-5.5,6.01-5.44,3.25,.07,5.94,2.92,5.81,6.15Z"/><path class="f" d="M216.75,382.62c-.08,3.25-2.96,5.94-6.18,5.78-3.24-.16-5.88-3.1-5.65-6.3,.21-3.05,2.88-5.54,5.93-5.53,3.26,0,5.98,2.81,5.9,6.05Z"/><path class="f" d="M240.7,382.42c.04,3.25-2.73,6.02-5.98,5.98-3.25-.04-5.96-2.87-5.85-6.11,.1-3.06,2.67-5.63,5.73-5.73,3.24-.11,6.06,2.6,6.1,5.86Z"/><path class="f" d="M258.57,388.4c-3.25-.1-5.92-2.98-5.75-6.21,.17-3.24,3.13-5.87,6.33-5.63,3.05,.23,5.53,2.91,5.5,5.96-.02,3.25-2.84,5.97-6.08,5.88Z"/><path class="f" d="M288.6,382.67c-.11,3.23-3.03,5.91-6.23,5.73-3.24-.19-5.85-3.15-5.6-6.36,.24-3.05,2.93-5.52,5.98-5.48,3.25,.04,5.96,2.87,5.85,6.11Z"/><path class="f" d="M306.81,388.4c-3.24,.1-6.06-2.61-6.09-5.87-.03-3.25,2.74-6.01,5.99-5.97,3.05,.04,5.67,2.56,5.85,5.62,.18,3.21-2.5,6.11-5.74,6.22Z"/><path class="f" d="M330.67,376.56c3.25,.05,5.95,2.89,5.83,6.13-.12,3.23-3.05,5.91-6.25,5.71-3.05-.19-5.56-2.83-5.58-5.88-.02-3.25,2.75-6.01,6-5.95Z"/><path class="f" d="M348.62,382.25c.14-3.24,3.06-5.89,6.27-5.68,3.24,.21,5.83,3.19,5.55,6.39-.27,3.06-2.97,5.5-6.01,5.44-3.25-.06-5.94-2.92-5.81-6.15Z"/><path class="f" d="M384.4,382.65c-.1,3.23-3,5.92-6.21,5.75-3.24-.18-5.86-3.13-5.62-6.33,.23-3.05,2.91-5.53,5.96-5.5,3.26,.03,5.97,2.84,5.87,6.08Z"/></g><g class="g"><g><path class="h" d="M246.74,71.16c51.39,0,102.78,.03,154.18-.03,7.58,0,14.02,2.34,19.15,7.97,3.95,4.33,6.07,9.46,6.27,15.35,.05,1.5,.03,2.99,.03,4.49,0,101.29,0,202.58,0,303.86,0,3.32,.07,6.61-.88,9.89-2.99,10.32-12.03,17.4-22.78,17.67-1.16,.03-2.33,.01-3.49,.01-101.62,0-203.24,0-304.86,0-3.32,0-6.62,.03-9.88-.96-10.04-3.05-17.01-12.07-17.29-22.58-.03-1.33-.01-2.66-.01-3.99,0-101.45,0-202.91,0-304.36,0-2.65-.17-5.31,.43-7.95,2.61-11.61,11.98-19.3,23.97-19.33,26.94-.07,53.89-.02,80.83-.02,24.78,0,49.56,0,74.34,0Zm167.7,180.1c0-50.73,0-101.45,0-152.18,0-1.66,.08-3.34-.08-4.99-.57-6.01-5.02-10.4-11.04-10.95-1.16-.11-2.33-.06-3.49-.06-102.12,0-204.23,.06-306.35-.11-8.82-.01-15.17,5.43-14.39,14.34,.03,.33,0,.66,0,1,0,101.62,0,203.24,0,304.85,0,1.33-.05,2.67,.06,3.99,.51,6.24,5.05,10.74,11.31,11.22,1.49,.11,2.99,.05,4.49,.05,101.28,0,202.57-.09,303.85,.14,10.77,.02,15.83-5.74,15.78-15.63-.29-50.56-.13-101.12-.13-151.68Z"/><path class="h" d="M120.95,119c.02,3.25-2.76,6.01-6.01,5.95-3.25-.06-5.95-2.9-5.82-6.13,.12-3.06,2.7-5.61,5.76-5.7,3.25-.09,6.05,2.62,6.07,5.88Z"/><path class="h" d="M144.9,119c.02,3.25-2.76,6.01-6.01,5.95-3.25-.06-5.95-2.9-5.82-6.13,.12-3.06,2.7-5.61,5.76-5.7,3.25-.09,6.05,2.62,6.07,5.88Z"/><path class="h" d="M162.77,124.95c-3.25-.1-5.92-2.98-5.75-6.21,.17-3.24,3.13-5.87,6.33-5.63,3.05,.23,5.53,2.91,5.5,5.96-.02,3.25-2.84,5.97-6.08,5.88Z"/><path class="h" d="M192.8,119.22c-.11,3.23-3.03,5.91-6.23,5.73-3.24-.19-5.85-3.15-5.6-6.36,.24-3.05,2.93-5.52,5.98-5.48,3.25,.04,5.96,2.87,5.85,6.11Z"/><path class="h" d="M216.75,119.09c-.04,3.25-2.87,5.97-6.1,5.86-3.24-.11-5.91-3.01-5.73-6.23,.17-3.07,2.79-5.57,5.85-5.61,3.25-.04,6.02,2.73,5.98,5.98Z"/><path class="h" d="M240.7,119.17c-.08,3.25-2.96,5.94-6.18,5.78-3.24-.16-5.88-3.1-5.65-6.3,.22-3.05,2.88-5.54,5.93-5.53,3.26,0,5.98,2.81,5.9,6.05Z"/><path class="h" d="M258.55,124.95c-3.24-.11-5.91-3.01-5.73-6.23,.19-3.25,3.15-5.85,6.35-5.6,3.05,.24,5.52,2.94,5.48,5.98-.04,3.25-2.87,5.96-6.1,5.85Z"/><path class="h" d="M282.67,124.95c-3.25-.01-5.98-2.82-5.9-6.06,.08-3.25,2.95-5.93,6.18-5.78,3.06,.15,5.59,2.75,5.65,5.81,.06,3.24-2.69,6.04-5.93,6.02Z"/><path class="h" d="M306.82,124.94c-3.23,.11-6.06-2.6-6.1-5.85-.04-3.04,2.43-5.73,5.48-5.97,3.2-.25,6.16,2.36,6.35,5.6,.19,3.21-2.48,6.11-5.73,6.23Z"/><path class="h" d="M330.77,124.94c-3.23,.11-6.06-2.6-6.1-5.85-.04-3.04,2.43-5.73,5.48-5.97,3.2-.25,6.16,2.36,6.35,5.6,.19,3.21-2.48,6.11-5.73,6.23Z"/><path class="h" d="M354.72,124.94c-3.23,.11-6.06-2.6-6.1-5.85-.04-3.04,2.43-5.73,5.48-5.97,3.2-.25,6.16,2.36,6.35,5.6,.19,3.21-2.48,6.11-5.73,6.23Z"/><path class="h" d="M378.67,124.94c-3.23,.11-6.06-2.6-6.1-5.85-.04-3.04,2.43-5.73,5.48-5.97,3.2-.25,6.16,2.36,6.35,5.6,.19,3.21-2.48,6.11-5.73,6.23Z"/><path class="h" d="M115.1,148.9c-3.24,.04-6.01-2.73-5.98-5.98,.04-3.26,2.85-5.96,6.1-5.85,3.06,.1,5.63,2.67,5.73,5.73,.11,3.24-2.6,6.07-5.85,6.1Z"/><path class="h" d="M378.57,137.06c3.25,.05,5.95,2.89,5.83,6.13-.12,3.23-3.05,5.91-6.25,5.71-3.05-.19-5.56-2.83-5.58-5.88-.02-3.25,2.75-6.01,6-5.95Z"/><path class="h" d="M115.09,161.01c3.25,.04,5.96,2.86,5.86,6.1-.11,3.23-3.02,5.92-6.22,5.74-3.06-.17-5.57-2.8-5.61-5.85-.04-3.25,2.72-6.02,5.97-5.98Z"/><path class="h" d="M378.43,161.01c3.25-.03,6.01,2.74,5.97,5.98-.04,3.25-2.88,5.96-6.11,5.85-3.05-.11-5.62-2.69-5.72-5.74-.11-3.24,2.6-6.06,5.86-6.1Z"/><path class="h" d="M120.95,190.7c.11,3.24-2.61,6.06-5.86,6.1-3.04,.03-5.73-2.44-5.97-5.49-.25-3.21,2.36-6.16,5.6-6.35,3.21-.18,6.11,2.49,6.22,5.73Z"/><path class="h" d="M378.26,196.8c-3.24-.13-5.9-3.05-5.69-6.26,.2-3.25,3.18-5.84,6.38-5.56,3.05,.26,5.5,2.96,5.45,6.01-.06,3.25-2.91,5.95-6.14,5.82Z"/><path class="h" d="M115.12,208.91c3.25,.05,5.95,2.89,5.83,6.13-.12,3.23-3.05,5.91-6.25,5.71-3.05-.19-5.56-2.83-5.58-5.88-.02-3.25,2.75-6.01,6-5.95Z"/><path class="h" d="M384.4,214.65c.1,3.24-2.61,6.06-5.86,6.09-3.04,.03-5.73-2.45-5.96-5.5-.25-3.21,2.37-6.16,5.61-6.34,3.21-.18,6.11,2.5,6.22,5.74Z"/><path class="h" d="M115.06,232.86c3.26,.02,5.98,2.82,5.89,6.07-.09,3.24-2.98,5.93-6.19,5.76-3.06-.16-5.58-2.77-5.64-5.82-.06-3.25,2.7-6.03,5.94-6.01Z"/><path class="h" d="M384.4,238.72c.03,3.25-2.74,6.01-5.98,5.97-3.05-.04-5.68-2.56-5.85-5.61-.18-3.22,2.49-6.11,5.74-6.22,3.24-.11,6.06,2.6,6.09,5.86Z"/><path class="h" d="M120.95,262.87c-.08,3.25-2.96,5.94-6.18,5.78-3.24-.16-5.88-3.1-5.65-6.3,.21-3.05,2.88-5.54,5.93-5.53,3.26,0,5.98,2.81,5.9,6.05Z"/><path class="h" d="M378.33,256.81c3.25-.09,6.05,2.63,6.07,5.89,.02,3.25-2.77,6-6.01,5.95-3.05-.05-5.66-2.58-5.82-5.64-.16-3.23,2.51-6.1,5.76-6.19Z"/><path class="h" d="M115.12,292.6c-3.24,.06-6.03-2.71-6.01-5.95,.02-3.26,2.82-5.98,6.07-5.88,3.06,.09,5.64,2.65,5.76,5.7,.13,3.24-2.57,6.08-5.83,6.13Z"/><path class="h" d="M378.43,280.76c3.25-.03,6.01,2.74,5.97,5.98-.04,3.25-2.88,5.96-6.11,5.85-3.05-.11-5.62-2.69-5.72-5.74-.11-3.24,2.6-6.06,5.86-6.1Z"/><path class="h" d="M120.95,310.69c-.04,3.25-2.86,5.97-6.1,5.86-3.24-.11-5.91-3.01-5.73-6.23,.17-3.07,2.79-5.57,5.85-5.61,3.25-.04,6.01,2.73,5.98,5.98Z"/><path class="h" d="M378.67,316.55c-3.23,.11-6.06-2.6-6.1-5.85-.04-3.04,2.43-5.73,5.48-5.97,3.2-.25,6.16,2.35,6.35,5.6,.19,3.21-2.48,6.11-5.73,6.23Z"/><path class="h" d="M120.95,334.67c-.05,3.25-2.9,5.95-6.13,5.83-3.24-.13-5.9-3.04-5.7-6.25,.19-3.06,2.82-5.56,5.88-5.58,3.25-.02,6,2.76,5.95,6Z"/><path class="h" d="M378.3,328.66c3.24-.11,6.06,2.6,6.1,5.85,.04,3.25-2.73,6.02-5.98,5.98-3.05-.03-5.68-2.55-5.85-5.61-.18-3.22,2.48-6.12,5.73-6.23Z"/><path class="h" d="M120.95,358.67c-.08,3.25-2.96,5.94-6.18,5.78-3.24-.16-5.88-3.1-5.65-6.3,.21-3.05,2.88-5.54,5.93-5.53,3.26,0,5.98,2.81,5.9,6.05Z"/><path class="h" d="M378.54,352.61c3.25,.04,5.96,2.86,5.86,6.1-.11,3.23-3.02,5.92-6.22,5.74-3.06-.17-5.57-2.8-5.61-5.85-.04-3.25,2.72-6.02,5.97-5.98Z"/><path class="h" d="M115.26,376.56c3.24,.14,5.89,3.07,5.68,6.27-.21,3.24-3.2,5.83-6.39,5.55-3.05-.27-5.5-2.97-5.44-6.02,.06-3.25,2.91-5.95,6.15-5.81Z"/><path class="h" d="M133.07,382.25c.14-3.24,3.06-5.89,6.27-5.68,3.24,.21,5.83,3.19,5.55,6.39-.27,3.05-2.97,5.5-6.01,5.44-3.25-.06-5.94-2.92-5.81-6.15Z"/><path class="h" d="M163.16,376.56c3.24,.14,5.89,3.07,5.69,6.27-.21,3.24-3.2,5.83-6.39,5.55-3.05-.27-5.5-2.98-5.44-6.02,.06-3.25,2.91-5.95,6.14-5.81Z"/><path class="h" d="M192.8,382.71c-.14,3.23-3.08,5.9-6.27,5.69-3.25-.21-5.83-3.18-5.55-6.4,.26-3.05,2.97-5.5,6.01-5.44,3.25,.07,5.94,2.92,5.81,6.15Z"/><path class="h" d="M216.75,382.62c-.08,3.25-2.96,5.94-6.18,5.78-3.24-.16-5.88-3.1-5.65-6.3,.21-3.05,2.88-5.54,5.93-5.53,3.26,0,5.98,2.81,5.9,6.05Z"/><path class="h" d="M240.7,382.42c.04,3.25-2.73,6.02-5.98,5.98-3.25-.04-5.96-2.87-5.85-6.11,.1-3.06,2.67-5.63,5.73-5.73,3.24-.11,6.06,2.6,6.1,5.86Z"/><path class="h" d="M258.57,388.4c-3.25-.1-5.92-2.98-5.75-6.21,.17-3.24,3.13-5.87,6.33-5.63,3.05,.23,5.53,2.91,5.5,5.96-.02,3.25-2.84,5.97-6.08,5.88Z"/><path class="h" d="M288.6,382.67c-.11,3.23-3.03,5.91-6.23,5.73-3.24-.19-5.85-3.15-5.6-6.36,.24-3.05,2.93-5.52,5.98-5.48,3.25,.04,5.96,2.87,5.85,6.11Z"/><path class="h" d="M306.81,388.4c-3.24,.1-6.06-2.61-6.09-5.87-.03-3.25,2.74-6.01,5.99-5.97,3.05,.04,5.67,2.56,5.85,5.62,.18,3.21-2.5,6.11-5.74,6.22Z"/><path class="h" d="M330.67,376.56c3.25,.05,5.95,2.89,5.83,6.13-.12,3.23-3.05,5.91-6.25,5.71-3.05-.19-5.56-2.83-5.58-5.88-.02-3.25,2.75-6.01,6-5.95Z"/><path class="h" d="M348.62,382.25c.14-3.24,3.06-5.89,6.27-5.68,3.24,.21,5.83,3.19,5.55,6.39-.27,3.06-2.97,5.5-6.01,5.44-3.25-.06-5.94-2.92-5.81-6.15Z"/><path class="h" d="M384.4,382.65c-.1,3.23-3,5.92-6.21,5.75-3.24-.18-5.86-3.13-5.62-6.33,.23-3.05,2.91-5.53,5.96-5.5,3.26,.03,5.97,2.84,5.87,6.08Z"/></g></g><text class="i" transform="translate(189.16 316.55)"><tspan x="0" y="0">2</tspan></text></g><g id="c"/><g id="d"/><g id="e"/></svg>