<?xml version="1.0" encoding="UTF-8"?><svg id="Layer_2" xmlns="http://www.w3.org/2000/svg" xmlns:xlink="http://www.w3.org/1999/xlink" viewBox="0 0 800 420"><defs><style>.cls-1{fill:#fac7c9;}.cls-2{fill:#fff;}.cls-3{fill:#ec7957;}.cls-4{fill:#ec795c;}.cls-5{font-size:11px;}.cls-5,.cls-6{font-family:Prompt-Medium, Prompt;}.cls-5,.cls-6,.cls-7{fill:#4cbd97;}.cls-8{fill:#ee7a57;}.cls-9{fill:#cc882a;}.cls-10{fill:#bd6750;}.cls-11{clip-path:url(#clippath-2);}.cls-12{fill:#eee4d9;}.cls-13{fill:#47bc97;}.cls-14{fill:#f8afa2;}.cls-15{fill:#4e3a32;}.cls-16{fill:#f05375;}.cls-17{filter:url(#drop-shadow-1);}.cls-18{fill:#079b6a;}.cls-19{fill:#f6998c;}.cls-20{fill:#30333f;}.cls-21{clip-path:url(#clippath-1);}.cls-22{fill:#65c3a2;}.cls-6{font-size:11.12px;}.cls-23{fill:#9a792d;}.cls-24{fill:#fbf1dc;}.cls-25{fill:#382823;}.cls-26{fill:#25557c;}.cls-27{fill:#dec4b8;}.cls-28{fill:#4e3a2f;}.cls-29{fill:#f9afa2;}.cls-30{fill:#e5d1ae;}.cls-7{font-family:Prompt-Bold, Prompt;font-size:26.04px;}.cls-31{fill:#ea7a5d;}.cls-32{clip-path:url(#clippath);}.cls-33{fill:#553d3a;}.cls-34{fill:#3d5f85;}.cls-35{fill:none;}.cls-36{fill:#db9b92;}.cls-37{fill:#f8a688;}.cls-38{fill:#e0e0de;}.cls-39{fill:#5f5856;}.cls-40{fill:#f8a788;}.cls-41{fill:#f49e92;}.cls-42{fill:#628277;}.cls-43{fill:#f7f8f9;}.cls-44{fill:#f05e7a;}.cls-45{fill:#d0ac9f;}.cls-46{fill:#1e2654;}.cls-47{fill:#f3a084;}.cls-48{fill:#ffd068;}.cls-49{fill:#fffef8;}.cls-50{fill:#56504f;}.cls-51{fill:#fbd54e;}.cls-52{fill:#ededed;}.cls-53{fill:#414042;}</style><filter id="drop-shadow-1" filterUnits="userSpaceOnUse"><feOffset dx="7" dy="7"/><feGaussianBlur result="blur" stdDeviation="5"/><feFlood flood-color="#000" flood-opacity=".02"/><feComposite in2="blur" operator="in"/><feComposite in="SourceGraphic"/></filter><clipPath id="clippath"><path class="cls-35" d="M324.69,218.64c4.07-6.5,23.66-19.1,35.51-14.02,9.18,3.93,23.09,22.9,20.49,45.44-1.92,16.55-7.16,15.43-10.97,64.09-10.76,2.42-44.81-5.31-57.87-11.87-2.56-1.28-3.92-4.14-3.37-6.95,1.87-9.59,5.21-19.2,7.14-28.75,6.77-33.64,4.56-40.72,9.07-47.94Z"/></clipPath><clipPath id="clippath-1"><path class="cls-35" d="M309.85,219.42c.99,8.29,1.95,7.95,15.11,63.01,2.38,9.97,4.04,14.12,14.38,17.35,30.19,9.43,52.62,14.94,63.13,15.78,1.03,.08,1.99-.46,2.46-1.38,1.67-3.32,3.04-6.81,2.18-12.67-.13-.91-.78-1.67-1.65-1.98-44.88-15.84-54.16-15.78-57.42-29.3-24.44-101.35-39.51-61.86-38.19-50.8Z"/></clipPath><clipPath id="clippath-2"><path class="cls-35" d="M305.33,220.37c4.07-6.5,23.66-19.1,35.51-14.02,9.18,3.93,23.09,22.9,20.49,45.44-1.92,16.55-7.16,15.43-10.97,64.09-10.76,2.42-44.81-5.31-57.87-11.87-2.56-1.28-3.92-4.14-3.37-6.95,1.87-9.59,5.21-19.2,7.14-28.75,6.77-33.64,4.56-40.72,9.07-47.94Z"/></clipPath></defs><g><g><path class="cls-19" d="M561.51,64.98c1.17-5.98-3.3-4.71-3.2-3.24,.65-4.85-2.19-4.94-3.02-4.29-1.4,1.09-.81,1.89-1.98,4.64,.02-12.45-.12-17.6-.86-19.64-.34-.94-1.62-1.08-2.17-.25-2.25,3.37,0,13.86-1.78,20.66-5.92-18.16-5.98-17.26-6.48-17.61-6.78-4.7,5.47,24.68,5.13,40.67-.12,5.87-1.22,10.72-4.15,26.09-.17,.91,12.98,2.93,14.35,1.74,1.93-1.68,.32-12.29,.39-15,.33-11.34,1.59-22.65,3.77-33.79Z"/><path class="cls-4" d="M550.78,74.26c-.09,0-.16-.02-.19-.04-.17-.08-.28-.25-.26-.44,.02-.18,.15-.33,.33-.37,.06-.01,.11-.01,.17,0,4.7-5.24,5.85-8.37,5.4-9.47-.1-.25-.28-.37-.57-.39-1.18-.07-3.39,1.56-5.16,4.72l-2.15,3.85c-.09,.17-.31,.23-.48,.14-.17-.09-.23-.31-.14-.48l2.15-3.85c1.93-3.45,4.38-5.17,5.82-5.08,.56,.03,.98,.33,1.18,.82,.72,1.77-1.4,5.64-5.66,10.36-.16,.18-.32,.22-.44,.22Z"/><path class="cls-4" d="M557.69,73.14c-.31,0-.61-.12-.86-.35-.9-.82-1.04-2.84-.38-5.41l.97-3.73c.05-.19,.24-.3,.43-.25,.19,.05,.3,.24,.25,.43l-.97,3.73c-.71,2.73-.35,4.24,.17,4.71,.19,.17,.4,.21,.64,.12,.85-.31,1.89-2.02,2.29-5.12,.02-.19,.2-.33,.39-.3,.19,.02,.33,.2,.3,.39-.47,3.62-1.72,5.31-2.74,5.69-.17,.06-.33,.09-.49,.09Z"/></g><g><g><path class="cls-15" d="M479.97,202.97c6.82,21.96-26.9,10.69-43.88,8.9-35.95-3.78-55.63,19.16-57.33,5.61-2.46-19.48,26.21-32.13,19.14-60.15-4.99-19.79,7.8-28.02,31.62-29.82,22.74-1.73,37.39,2.06,38.16,15.84,1.34,23.89-.16,19.59,12.28,59.62Z"/><path class="cls-19" d="M468.26,199.44s-11.57-5.35-13.42-6.71c-8.42-6.2-7.28-7.59-9.63-25.92l-23.31,3.2c7.05,24.39-5.62,25.14-18.5,35.72,16.15,11.49,48.41,10.31,64.86-6.28Z"/><path class="cls-4" d="M422.6,172.62c1.03,4.41,1.74,8.17,1.1,12.51,8.3-6.84,20.57-3.7,21.91-14.56-10.32,5.92-19.11,4.81-23.01,2.06Z"/><path class="cls-19" d="M417.02,164.62c13.36,28.3,43.1,5.51,35.61-30.47-6.09-29.29-59.73-20.59-35.61,30.47Z"/><path class="cls-15" d="M407.38,164.67c-11.16-15.36-11.42-33.98-2.26-44.31,10.04-11.33,30.18-11.35,31.54-8.02,.52,1.27-1.97,2.35-7.04,8.32-3.75,4.41-10.09,11.87-22.24,44.01Z"/><path class="cls-15" d="M461.43,161.44c8.7-16.36,4.78-35.45-7.54-44.78-13.19-9.99-30.04-4.28-31.41-3.79,.63,2.64,1.9,6.47,4.75,10.15,7.41,9.56,17.28,8.46,22.01,17.1,1.55,2.84,2.23,6.05,2.64,10.39,.5,5.32,9.21,10.77,9.56,10.93Z"/><path class="cls-19" d="M410.76,148.6c3.48-1.33,4.29,6.11,4.59,9.82,.59,7.3-10.07-7.73-4.59-9.82Z"/><path class="cls-19" d="M454.99,144.76c-3.64-.77-3.28,6.71-3,10.41,.56,7.3,8.74-9.2,3-10.41Z"/><path class="cls-25" d="M443.79,149.33c1.23-.1,1.83-4.86-1.16-4.63-1.6,.13-.86,4.79,1.16,4.63Z"/><path class="cls-25" d="M423.24,150.95c1.23-.1,1.83-4.86-1.16-4.63-1.6,.13-.86,4.79,1.16,4.63Z"/><path class="cls-15" d="M440.73,138.83c-1.97,.28-1.76,1.86-.27,2.13,2,.37,2.35-.38,6.66,.74,4.76,1.24-1.12-3.62-6.39-2.87Z"/><path class="cls-15" d="M425.32,140.47c1.99-.11,2.08,1.48,.67,2.04-1.89,.74-2.67,.19-6.39,2.02-4.42,2.17,.35-3.76,5.72-4.06Z"/><path class="cls-2" d="M428.76,164.48c-.4-.08-.67,.39-.4,.69,8.41,9.2,13.33-1.34,12-1.7-2.71-.72-6.71,1.97-11.6,1.01Z"/><path class="cls-4" d="M432.96,156.47c-.16,0-.31-.11-.34-.28-.04-.19,.08-.38,.27-.42,.61-.13,1.1-.19,1.5-.24,.39-.05,.84-.11,.9-.2,.11-.17-.19-1.07-.56-2.21-.42-1.26-1.04-3.18-1.8-6-.05-.19,.06-.38,.25-.43,.19-.05,.38,.06,.43,.25,.75,2.8,1.38,4.7,1.79,5.96,.56,1.71,.77,2.35,.49,2.81-.23,.37-.67,.43-1.4,.52-.38,.05-.86,.11-1.45,.23-.02,0-.05,0-.07,0Z"/><path class="cls-4" d="M413.36,156.73c-.09,0-.18-.03-.25-.1-1.7-1.69-2.24-3.93-1.68-4.88,.23-.38,.62-.53,1.05-.4,.19,.06,.29,.25,.24,.44-.06,.19-.25,.29-.44,.24-.14-.04-.19,0-.24,.08-.31,.52-.04,2.42,1.57,4.02,.14,.14,.14,.36,0,.5-.07,.07-.16,.1-.25,.1Z"/><path class="cls-4" d="M453.88,153.61c-.07,0-.15-.02-.21-.07-.16-.12-.19-.34-.07-.49,1.35-1.83,1.33-3.74,.94-4.21-.07-.08-.12-.11-.25-.05-.18,.08-.38,0-.47-.17-.08-.18,0-.38,.17-.47,.41-.19,.82-.1,1.1,.24,.7,.86,.5,3.15-.92,5.08-.07,.09-.18,.14-.28,.14Z"/></g><path class="cls-34" d="M467.47,278.31c-23.11-.37-46.16-4.43-68.01-11.97-37.35,87.04-34.95,71.3-22.33,151.81,2.29,14.63,7.83,2.85,53,9.72-.79-21.6-.72-72.49,1.53-69.68,29.11,36.38,29.75,64.12,46.19,68.19,5.78,1.43,11.67-1.14,17.41-2.74,8.15-2.27,28.17,1.33,26.54-9.28-1.61-10.44-11.03-23.08-15.79-32.51-10.79-21.39-21.83-42.81-29.56-65.54-1.11-3.26-9.61-38-8.96-37.99Z"/><g><path class="cls-26" d="M430.76,354.94s-.06,0-.1-.01c-.19-.05-.3-.25-.24-.43,7.58-26.87,10.99-54.65,10.14-82.56,0-.19,.15-.36,.34-.36,.19,0,.36,.15,.36,.34,.85,27.98-2.57,55.83-10.17,82.77-.04,.16-.18,.26-.34,.26Z"/><path class="cls-26" d="M437.27,325.85c-.1,0-.2-.04-.27-.12-.13-.15-.11-.37,.03-.5,10.52-9.15,11.22-25.44,12.19-48l.13-2.94c0-.19,.17-.35,.37-.34,.19,0,.34,.17,.34,.37l-.13,2.94c-.98,22.73-1.69,39.15-12.43,48.5-.07,.06-.15,.09-.23,.09Z"/></g><path class="cls-19" d="M369.26,304.17c6.84,8.12,8.02,7.34,13.93,6.55,1.74-.23,3.49,.75,5.17,1.26,7.21,2.18,8.75,1.89,9.05,3.34,.3,1.44-4.12,2.03-5.59,1.95,4.05,.96,17.37,5.35,19.25,6.33,.69,.36,1.06,1.82,.35,2.12-1.72,.72-3.47,0-16.28-3.7-1.59,1.49,17.91,5.65,17.37,8.38-.63,3.19-11.48-3.09-19.07-4.38-.58,2.31,12.23,4.85,15.38,7.72,3.12,2.84-7.65,.37-16.12-3.19-.37-.16-.73-.39-1.13-.33-2.28,.34,2.53,1.82,9.49,5.35,2.07,1.05,1.37,3.16-2.41,1.93-13.47-4.36-15.37-4.26-25.36-13.37-22.26-20.28-23.78-21.91-21.93-24.03,10.18-11.67,7.22-8.59,17.89,4.07Z"/><g><path class="cls-1" d="M398.6,248.29c-15.72,7.1-39.45,14.67-54.28,17.73-4.18,.86,14.99,17.11,30.51,40.18,.61,.91,.69,2.07,.21,3.05-2.82,5.77-4.79,7.08-9.02,9.86-1.19,.78-2.77,.64-3.79-.36-13.31-12.91-52.76-46.42-50.63-59.55,2.17-13.44,23.25-18.69,34.15-23.08,12.99-5.22,45.4-27.05,59.67-36.13,22.17-14.11,24.35,34.22-6.81,48.29Z"/><path class="cls-1" d="M364.35,319.97c-.86,0-1.7-.33-2.36-.96-2.2-2.14-5.1-4.81-8.45-7.92-17.56-16.25-44.09-40.8-42.29-51.94,1.86-11.53,17.31-17.11,28.58-21.19,2.09-.76,4.07-1.47,5.78-2.16,10.43-4.19,33.95-19.47,49.51-29.58,3.93-2.55,7.33-4.76,10.1-6.53,5.61-3.57,9.35-2.82,11.5-1.56,3.91,2.28,6.01,8.11,5.62,15.6-.64,12.35-8.19,27.92-23.61,34.87l-.14-.32,.14,.32c-14.98,6.76-38.85,14.56-54.35,17.75-.24,.05-.27,.14-.28,.18-.37,1.11,3.74,5.78,8.49,11.18,6.25,7.1,14.81,16.82,22.52,28.28,.68,1.01,.77,2.31,.24,3.4-2.87,5.88-4.97,7.26-9.15,10-.58,.38-1.23,.56-1.87,.56Zm48.43-122.17c-2.14,0-4.57,.84-7.17,2.49-2.77,1.76-6.17,3.97-10.1,6.52-16.52,10.73-39.13,25.42-49.63,29.64-1.72,.69-3.71,1.41-5.81,2.17-11.11,4.02-26.33,9.52-28.13,20.64-1.74,10.77,25.69,36.15,42.07,51.31,3.36,3.11,6.25,5.79,8.46,7.93,.91,.88,2.29,1.01,3.35,.31,4.2-2.76,6.11-4.02,8.9-9.72,.42-.86,.35-1.9-.19-2.7-7.69-11.42-16.23-21.12-22.46-28.21-6.33-7.19-9.11-10.44-8.63-11.87,.08-.23,.28-.54,.81-.65,15.46-3.19,39.27-10.97,54.2-17.71,15.15-6.84,22.56-22.14,23.19-34.27,.38-7.22-1.59-12.81-5.27-14.95-1.08-.63-2.29-.94-3.6-.94Z"/></g><g><g><path class="cls-52" d="M387.73,252.81c4.07-16.86,5.31-27.17,4.91-44.54l-10.19,6.58c-.07,15.08-1.55,25.83-4.58,41.56l9.86-3.6Z"/><path class="cls-52" d="M377.41,256.95l.12-.61c2.97-15.45,4.5-26.11,4.57-41.5v-.19l10.88-7.02v.63c.41,16.98-.74,27.41-4.9,44.63l-.04,.18-10.62,3.88Zm5.39-41.91c-.09,15.14-1.57,25.73-4.47,40.83l9.1-3.33c4.06-16.83,5.21-27.15,4.87-43.63l-9.5,6.13Z"/></g><g><path class="cls-52" d="M367.75,259.75c2.91-15.31,3.89-24.22,4.22-38.27l-10.14,6.17c.31,10.51-1.31,20.71-3.86,35l9.78-2.9Z"/><path class="cls-52" d="M357.53,263.15l.1-.56c2.53-14.22,4.17-24.33,3.85-34.93v-.2l10.86-6.61v.64c-.34,14.08-1.33,23.03-4.24,38.33l-.04,.21-10.53,3.12Zm4.66-35.3c.29,10.43-1.38,20.84-3.77,34.31l9.03-2.68c2.82-14.89,3.81-23.76,4.16-37.36l-9.42,5.73Z"/></g><g><path class="cls-52" d="M349.5,264.86c1.63-10.99,1.23-17.89-.16-30.53l-11.75,4.83c3.37,9.57,4.56,16.57,5.15,27.18l6.77-1.48Z"/><path class="cls-52" d="M342.41,266.77l-.02-.41c-.62-11.12-1.91-17.96-5.13-27.08l-.11-.31,12.49-5.13,.05,.46c1.36,12.35,1.82,19.4,.16,30.62l-.04,.24-7.41,1.62Zm-4.38-27.41c3.12,8.93,4.41,15.72,5.03,26.55l6.13-1.34c1.59-10.86,1.16-17.82-.15-29.74l-11.01,4.53Z"/></g><g><path class="cls-52" d="M367.51,296.21c-4.01,6.12-6.98,9.6-14.2,14.2l6.89,6.41c5.44-3.93,8.3-7.42,12.99-12.99l-5.68-7.62Z"/><path class="cls-52" d="M360.18,317.28l-7.43-6.92,.38-.24c7.13-4.54,10.11-8.02,14.09-14.09l.28-.42,6.15,8.24-.65,.78c-4.39,5.22-7.29,8.67-12.58,12.49l-.23,.17Zm-6.29-6.81l6.35,5.91c5.07-3.7,7.93-7.1,12.22-12.2l.3-.35-5.22-6.99c-3.83,5.8-6.84,9.25-13.64,13.64Z"/></g><g><path class="cls-52" d="M355.48,281.56c-4.86,7.9-8.74,11.25-15.91,15.91l6.82,6.48c7.41-3.94,11.03-8.1,15.16-15.16l-6.06-7.24Z"/><path class="cls-52" d="M346.32,304.39l-7.32-6.97,.37-.24c7-4.54,10.94-7.9,15.8-15.8l.26-.42,6.54,7.8-.12,.21c-3.94,6.74-7.54,11.17-15.3,15.29l-.22,.12Zm-6.19-6.86l6.31,6c7.37-3.97,10.89-8.25,14.67-14.69l-5.59-6.67c-4.73,7.58-8.65,10.96-15.39,15.37Z"/></g><g><path class="cls-52" d="M342.73,266.34c-6.21,7.22-11.32,9.7-19.4,14.25l7.72,8.3c7.97-3.99,12.5-6.86,18.29-14.57l-6.6-7.98Z"/><path class="cls-52" d="M330.97,289.32l-8.2-8.82,.39-.22c.73-.41,1.44-.81,2.13-1.19,6.97-3.89,11.57-6.46,17.18-12.98l.27-.32,7.05,8.51-.17,.22c-5.65,7.53-10.06,10.49-18.42,14.68l-.24,.12Zm-7.08-8.64l7.23,7.78c8.02-4.03,12.33-6.95,17.77-14.13l-6.16-7.44c-5.58,6.39-10.43,9.1-17.1,12.82-.56,.31-1.14,.64-1.74,.97Z"/></g><g><path class="cls-52" d="M349.5,264.86c-11.86-7.01-18.37-12.27-30.76-16.43-4.61,3.19-7.88,9.42-7.12,13.14,11.7,5.05,21.04,7.75,35.84,10.52-5.34-6.49-5.61-5.55,2.04-7.22Z"/><path class="cls-52" d="M348.35,272.61l-.95-.18c-14.99-2.8-24.39-5.56-35.92-10.54l-.17-.07-.04-.18c-.8-3.95,2.6-10.26,7.27-13.49l.14-.1,.17,.06c9.31,3.13,15.22,6.82,22.71,11.5,2.52,1.58,5.13,3.2,8.12,4.97l.77,.46-.87,.19c-.8,.18-1.52,.32-2.15,.45-1.93,.4-3.33,.68-3.47,1.09-.15,.43,.81,1.57,2.27,3.31,.44,.53,.95,1.13,1.51,1.81l.61,.75Zm-36.42-11.29c11.15,4.8,20.33,7.52,34.64,10.24-.32-.38-.61-.73-.88-1.05-1.9-2.25-2.68-3.18-2.4-3.99,.27-.79,1.44-1.02,4-1.55,.39-.08,.81-.17,1.26-.26-2.67-1.59-5.05-3.08-7.36-4.52-7.4-4.62-13.26-8.28-22.39-11.37-4.25,3.02-7.46,8.87-6.87,12.5Z"/></g></g><g><path class="cls-1" d="M543.16,89.58c-3.04,17.14-9.49,42.54-8.47,57.32,.06,.88-.5,1.68-1.34,1.93-21,6.13-39.39,17.61-61.74,30.55-8.32,4.82-14.66,58.17,11.13,46.24,21.81-10.09,69.23-51.57,74.5-58.82,8.02-11.04,7.05-58.7,4.7-74.72-.63-4.28-11.53-5.25-15.95-5.01-1.41,.08-2.58,1.12-2.82,2.5Z"/><path class="cls-1" d="M475.95,227.7c-4.7,0-7.44-2.98-9-6-6.35-12.23-1.44-39.19,4.49-42.63,2.46-1.42,4.87-2.83,7.23-4.21,19.24-11.22,35.85-20.91,54.58-26.38,.69-.2,1.14-.85,1.09-1.57-.78-11.18,2.69-28.33,5.76-43.47,1.01-4.99,1.96-9.7,2.71-13.93,.28-1.56,1.57-2.71,3.15-2.79,4.12-.23,15.63,.62,16.32,5.31,2.48,16.9,3.26,63.93-4.76,74.98-5.22,7.18-52.89,48.88-74.63,58.93-2.69,1.24-4.99,1.76-6.94,1.76Zm71.36-140.31c-.48,0-.92,.01-1.3,.03-1.25,.07-2.28,.98-2.49,2.21-.75,4.24-1.71,8.95-2.72,13.95-3.06,15.1-6.52,32.2-5.75,43.29,.07,1.05-.58,2-1.6,2.29-18.65,5.44-35.23,15.11-54.42,26.31-2.37,1.38-4.78,2.79-7.24,4.21-5.62,3.25-10.28,30.03-4.22,41.7,3.02,5.82,8.08,7.14,15.02,3.92,21.66-10.02,69.16-51.56,74.36-58.71,7.79-10.72,7.03-58.13,4.64-74.46-.52-3.58-9.41-4.74-14.28-4.74Z"/></g><g><g><path class="cls-52" d="M477.37,176.03c8.8,14.69,11.3,26.33,13.32,45.26l8.23-5.35c-2.75-17.79-5.97-28.52-13.18-44.78l-8.37,4.87Z"/><path class="cls-52" d="M490.4,221.9l-.06-.57c-2.02-18.92-4.52-30.5-13.27-45.12l-.18-.31,9.02-5.25,.16,.36c7.28,16.42,10.49,27.33,13.2,44.87l.03,.22-8.9,5.79Zm-12.55-45.74c8.59,14.44,11.12,25.97,13.12,44.53l7.56-4.92c-2.68-17.22-5.85-28.02-12.96-44.11l-7.72,4.5Z"/></g><g><path class="cls-52" d="M493.83,166.54c7.67,14.34,10.36,25.03,12.9,43.84l8.02-6.07c-2.58-15.93-5.31-26.98-12.47-42.38l-8.45,4.61Z"/><path class="cls-52" d="M506.47,211.02l-.08-.6c-2.41-17.85-4.95-28.94-12.86-43.72l-.16-.31,9.08-4.96,.16,.34c7.24,15.56,9.98,26.93,12.5,42.47l.03,.21-8.67,6.56Zm-12.16-44.34c7.74,14.55,10.31,25.59,12.69,43.05l7.37-5.58c-2.54-15.6-5.15-26.41-12.25-41.74l-7.81,4.27Z"/></g><g><path class="cls-52" d="M510.51,157.77c6.01,12.71,8.63,24.66,11.91,40.47l7.89-6.5c-2.1-14-5.58-22.7-11.14-37.86l-8.66,3.89Z"/><path class="cls-52" d="M522.19,198.87l-.12-.57c-3.52-16.93-6.07-28.1-11.88-40.39l-.15-.32,9.33-4.19,.13,.35c.45,1.24,.89,2.43,1.32,3.59,4.76,12.92,7.91,21.45,9.84,34.34l.03,.2-8.5,6.99Zm-11.21-40.93c5.67,12.09,8.23,23.13,11.66,39.65l7.29-6c-1.92-12.71-5.05-21.2-9.77-34.01-.39-1.05-.78-2.12-1.19-3.23l-7.99,3.59Z"/></g><g><path class="cls-52" d="M562.53,97.13c-8.12-3.28-12.84-3.8-20.08-3.68l-1.83,9.23c8.52-.63,14.12,.39,22.6,4.14l-.69-9.69Z"/><path class="cls-52" d="M563.61,107.38l-.53-.24c-8.45-3.74-13.9-4.74-22.43-4.11l-.46,.03,1.97-9.96h.28c7.18-.13,12.04,.4,20.22,3.7l.2,.08,.75,10.49Zm-18.69-5.22c6.19,0,11.21,1.2,17.9,4.11l-.63-8.89c-7.89-3.16-12.45-3.68-19.46-3.58l-1.68,8.5c1.35-.09,2.64-.14,3.87-.14Z"/></g><g><path class="cls-52" d="M563.55,116.33c-8.81-2.98-14.71-4.04-24.76-4.54l-1.73,9.25c10.31,.2,16.66,1.42,26.52,4.86l-.04-9.57Z"/><path class="cls-52" d="M563.94,126.39l-.47-.16c-9.94-3.47-16.36-4.64-26.41-4.84h-.41l1.86-9.96,.31,.02c10.21,.51,16.02,1.57,24.85,4.56l.24,.08,.04,10.32Zm-26.45-5.7c9.75,.22,16.13,1.39,25.75,4.71l-.04-8.82c-8.54-2.87-14.26-3.92-24.12-4.42l-1.59,8.54Z"/></g><g><path class="cls-52" d="M534.7,139.61c10.45,.17,17.25,1.1,27.97,5.13l.65-9.44c-11.3-3.84-17.47-4.68-27.69-5.08l-.93,9.39Z"/><path class="cls-52" d="M562.99,145.23l-.44-.17c-11.01-4.13-17.75-4.94-27.86-5.1h-.38l1-10.11h.33c10.18,.4,16.29,1.2,27.79,5.11l.26,.09-.7,10.18Zm-27.9-5.97c9.84,.18,16.56,1,27.27,4.98l.6-8.7c-11.13-3.76-17.17-4.57-27.01-4.96l-.86,8.68Z"/></g><g><path class="cls-52" d="M561.48,153.97l-2.33,9.13c-7.34-3.44-19.79-4.79-18.48-2.56,3.88,6.62,5.14,10.74,4.97,17.83l-7.77,6.91c.56-8.15-5.29-28.5-10.2-34.65l5.13-2.1c4.16-1.7,19.92,1.42,28.69,5.43Z"/><path class="cls-52" d="M537.45,186.12l.06-.86c.56-8.22-5.39-28.48-10.12-34.4l-.29-.37,5.56-2.28c4.47-1.83,20.62,1.62,28.97,5.43l.27,.12-2.51,9.83-.38-.18c-6.86-3.21-17.08-4.29-18.05-3.22-.02,.02-.05,.05,.02,.17,4.01,6.85,5.18,11.06,5.02,18.02v.15l-8.53,7.58Zm-9.23-35.33c4.59,6.23,10.17,25.06,10.02,33.68l7.04-6.26c.14-6.72-1.02-10.83-4.92-17.49-.21-.36-.19-.72,.06-1,1.49-1.63,12.18,.06,18.49,2.88l2.16-8.44c-8.87-3.98-24.26-6.89-28.14-5.3l-4.7,1.93Z"/></g></g><g><path class="cls-1" d="M398.44,286.31c-24.32-7.59,5.01-17.02,4.34-73.91-.15-12.91-.12-11.8,19.36-22.35,8.31,13.76,37.6,22.36,26.21-4.13,7.3-3.46,16.38-5.79,23.26-6.54,2.33,13.13,33.41,107.75,.48,112.85-24.41,3.78-50.13,1.41-73.65-5.93Z"/><path class="cls-1" d="M448.49,294.38c-16.69,0-33.69-2.6-50.15-7.74-5.32-1.66-8.19-3.46-9.32-5.85-1.56-3.31,.2-7.65,2.86-14.22,4.33-10.68,10.87-26.81,10.55-54.17-.14-11.98,0-12.17,15.24-20.34,1.32-.71,2.75-1.47,4.31-2.32l.29-.16,.17,.29c5.28,8.74,18.88,15.3,25.1,12.1,3.87-1.99,4.04-7.64,.48-15.92l-.13-.31,.31-.15c6.8-3.22,15.76-5.74,23.37-6.57l.33-.04,.06,.32c.35,2,1.36,5.83,2.76,11.14,6.53,24.84,20.12,76.53,7.79,95.34-2.5,3.82-5.99,6.1-10.36,6.78-7.75,1.2-15.67,1.8-23.66,1.8Zm-26.47-103.86c-1.44,.78-2.78,1.5-4.02,2.16q-15.01,8.05-14.87,19.71c.33,27.5-6.25,43.71-10.6,54.44-2.6,6.4-4.31,10.63-2.88,13.66,1.04,2.19,3.78,3.88,8.89,5.48,24.24,7.56,49.65,9.61,73.49,5.92,4.17-.65,7.49-2.82,9.88-6.47,12.16-18.56-1.38-70.04-7.88-94.78-1.33-5.05-2.31-8.77-2.71-10.87-7.36,.84-15.92,3.25-22.52,6.32,4.59,10.87,2.03,14.98-.94,16.51-6.42,3.3-20.29-3.23-25.85-12.08Z"/></g><g><g><path class="cls-52" d="M389.23,280.39c35.5,6.33,56.67,6.7,93.1,5.05,1.34-1.7,2.66-5.86,3.54-9.23-37.56,1.27-58.53-.57-95.38-5.18-1.26,3.13-2.43,7.2-1.26,9.35Z"/><path class="cls-52" d="M451.6,286.63c-20.38,0-37.94-1.53-62.43-5.9l-.17-.03-.08-.15c-1.26-2.31-.02-6.52,1.25-9.65l.1-.25,.27,.03c35.93,4.49,57.05,6.46,95.33,5.18l.47-.02-.12,.46c-.86,3.27-2.19,7.55-3.61,9.35l-.1,.13h-.16c-11.46,.53-21.4,.85-30.75,.85Zm-62.14-6.56c35.5,6.32,56.45,6.66,92.69,5.03,1.31-1.78,2.56-5.9,3.26-8.52-37.93,1.25-59.04-.71-94.69-5.16-1.57,3.97-2.02,7.03-1.26,8.65Z"/></g><g><path class="cls-52" d="M394.05,262.1c36.49,3.96,57.23,5.64,92.96,5.05,0,0,.12-6.45,.02-9.42-35.99,.21-56.07-.06-89.74-4.87l-3.24,9.24Z"/><path class="cls-52" d="M473.72,267.61c-28.58,0-48.44-1.78-79.71-5.17l-.44-.05,3.49-9.93,.29,.04c32.81,4.69,52.52,5.08,89.69,4.87h.34v.34c.11,2.95,0,9.37,0,9.44v.34h-.35c-4.66,.08-9.08,.12-13.3,.12Zm-79.19-5.82c35.47,3.84,56.28,5.59,92.14,5,.02-1.31,.09-6.09,.02-8.72-36.87,.21-56.58-.2-89.16-4.84l-3,8.55Z"/></g><g><path class="cls-52" d="M399.69,243.85c33.95,4.97,53.46,6.05,86.65,4.7l-1.22-9.49c-32.43,2.65-50.93,.52-83.71-4.54l-1.71,9.33Z"/><path class="cls-52" d="M462.89,249.44c-20.72,0-37.95-1.54-63.25-5.24l-.36-.05,1.84-10.02,.34,.05c33.5,5.17,51.53,7.16,83.63,4.54l.33-.03,1.31,10.2-.38,.02c-8.57,.35-16.23,.54-23.46,.54Zm-62.79-5.89c33.72,4.93,53.1,5.98,85.84,4.66l-1.13-8.77c-31.86,2.58-49.9,.6-83.12-4.52l-1.58,8.63Z"/></g><g><path class="cls-52" d="M402.39,225.44c32.37,4.19,52.03,5.91,81.17,4.41l-1.91-9.52c-29.94,2.31-47.76,.44-78.86-4.28l-.39,9.4Z"/><path class="cls-52" d="M463.92,230.74c-19.42,0-36.67-1.73-61.58-4.95l-.32-.04,.42-10.11,.39,.06c30.73,4.67,48.52,6.61,78.79,4.28l.31-.02,2.05,10.23-.41,.02c-6.99,.36-13.44,.54-19.66,.54Zm-61.17-5.6c32.5,4.2,51.94,5.83,80.38,4.38l-1.77-8.82c-30.02,2.29-47.81,.37-78.25-4.25l-.36,8.68Z"/></g><g><path class="cls-52" d="M402.81,206.91c28.56,4.41,46.67,5.8,76.75,4.17l-2.34-9.55c-10.91,.85-18.63,.59-27.21-1.48-3.19,5.15-11.27,3.16-18.48-1-8.04,1.04-14.49,.66-23.3-1.27-4.84,3.31-5.05,6.22-5.42,9.13Z"/><path class="cls-52" d="M457.38,212.09c-19.3,0-34.59-1.73-54.62-4.83l-.34-.05,.08-.63c.36-2.85,.72-5.79,5.54-9.08l.13-.09,.15,.03c8.81,1.93,15.31,2.28,23.18,1.26l.12-.02,.1,.06c6.66,3.85,14.89,6.17,18.01,1.12l.13-.22,.25,.06c8.09,1.95,15.68,2.36,27.1,1.47l.3-.02,2.51,10.25-.42,.02c-8.15,.44-15.43,.66-22.2,.66Zm-54.18-5.47c26.72,4.12,45.01,5.79,75.92,4.13l-2.17-8.84c-11.21,.86-18.77,.45-26.77-1.45-2.95,4.4-9.91,4.02-18.72-1.04-7.86,1.01-14.38,.66-23.16-1.25-4.41,3.06-4.76,5.68-5.11,8.45Z"/></g><g><path class="cls-52" d="M450.15,190.93c9.64,1.57,15.67,1.84,24.67,1.34l-2.48-9.55c-5.26,.61-8.29,.71-13.46-.73-4.18,1.15-6.48,2.19-10.54,3.93l1.8,5.01Z"/><path class="cls-52" d="M467.44,192.85c-5.65,0-10.63-.48-17.35-1.57l-.2-.03-1.98-5.52,1.14-.49c3.52-1.51,5.84-2.51,9.75-3.59l.09-.03,.09,.03c5.16,1.44,8.16,1.32,13.33,.72l.3-.04,2.66,10.27-.43,.02c-2.69,.15-5.1,.23-7.41,.23Zm-17.03-2.23c9.13,1.48,15.04,1.81,23.97,1.33l-2.29-8.84c-5.05,.57-8.09,.67-13.2-.75-3.8,1.06-6.1,2.04-9.56,3.53l-.53,.23,1.62,4.51Z"/></g></g></g></g><g><text class="cls-7" transform="translate(272.73 52.36)"><tspan x="0" y="0" xml:space="preserve">We     Board Games</tspan></text><g><path class="cls-44" d="M350.01,34.3c-4.53-8.78-13.16-4.25-14.86,.85-1.7-5.1-10.33-9.62-14.86-.85-6.9,13.36,14.86,25.76,14.86,25.76,0,0,21.75-12.4,14.86-25.76Z"/><g><path class="cls-2" d="M344.36,44.54v5.55s0,.09,0,.13c0,.21,0,.21-.2,.29-1.42,.54-2.85,1.08-4.27,1.62-1.48,.56-2.96,1.12-4.44,1.69-.2,.08-.37,.08-.58,0-2.89-1.11-5.79-2.2-8.69-3.3-.04-.02-.08-.04-.12-.05-.09-.02-.13-.08-.12-.17,0-.06,0-.12,0-.18,0-3.73,0-7.45,0-11.18q0-.3,.28-.4c2.88-.99,5.76-1.98,8.64-2.98,.21-.07,.38-.07,.59,0,2.21,.77,4.42,1.53,6.64,2.29,.7,.24,1.4,.49,2.1,.73,.19,.06,.18,.07,.18,.25,0,1.07,0,2.13,0,3.2,0,.84,0,1.67,0,2.51Zm-17.79-5.21c-.04,.1-.02,.2-.02,.3,0,3.36,0,6.72,0,10.08,0,.06,0,.12,0,.18-.01,.1,.04,.14,.12,.17,.04,.01,.08,.03,.12,.05,2.61,.99,5.22,1.98,7.83,2.97,.07,.02,.13,.07,.23,.06,0-.17,0-.32,0-.47,0-.13,.08-.22,.21-.27,.12-.04,.22,0,.31,.07,.07,.07,.1,.16,.09,.26,0,.13,0,.27,0,.39,.07,.03,.1,0,.14-.01,.5-.19,1-.38,1.5-.57,2.13-.81,4.27-1.61,6.4-2.42,.29-.11,.25-.06,.25-.31,0-3.43,0-6.86,0-10.29,0-.07,.02-.14-.03-.19-.06,0-.1,.01-.15,.03-.19,.07-.39,.13-.58,.2-.13,.04-.25,.06-.36-.04-.16-.14-.13-.38,.06-.49,.11-.06,.24-.07,.36-.15-.07-.07-.16-.08-.24-.11-.55-.19-1.09-.38-1.64-.57-1.94-.67-3.88-1.34-5.82-2.01-.14-.05-.25-.05-.39,0-.96,.34-1.91,.66-2.87,.99-1.57,.54-3.14,1.08-4.71,1.63-.04,.01-.11,0-.11,.09,.08,.03,.16,.05,.24,.08,.13,.05,.26,.09,.38,.15,.15,.07,.22,.21,.18,.35-.04,.15-.19,.24-.36,.21-.06,0-.11-.03-.17-.05-.24-.08-.48-.17-.72-.25-.08-.02-.15-.08-.25-.05Z"/><path class="cls-2" d="M335.26,39.78c-.32,0-.59-.05-.86-.15-.18-.07-.34-.16-.48-.29-.4-.37-.41-.88,0-1.25,.14-.13,.3-.23,.48-.29,.56-.21,1.12-.21,1.67,0,.18,.07,.35,.17,.49,.31,.37,.36,.37,.84,0,1.2-.22,.22-.49,.34-.78,.41-.18,.04-.37,.08-.52,.07Z"/><path class="cls-2" d="M329.62,43c0,.28-.05,.56-.18,.81-.04,.08-.08,.15-.13,.22-.34,.46-.88,.47-1.22,0-.17-.22-.25-.48-.29-.75-.05-.38,0-.75,.16-1.09,.05-.1,.11-.19,.18-.28,.32-.38,.8-.39,1.12,0,.24,.28,.33,.61,.36,.96,0,.04,0,.09,0,.13Z"/><path class="cls-2" d="M340.68,42.91c0-.25,.08-.59,.28-.89,.06-.09,.12-.16,.2-.23,.26-.21,.57-.22,.85-.02,.08,.06,.15,.13,.21,.22,.4,.56,.4,1.49,0,2.04-.06,.08-.12,.14-.2,.2-.28,.21-.57,.2-.85,0-.13-.1-.22-.23-.3-.38-.12-.24-.19-.53-.19-.94Z"/><path class="cls-2" d="M336.99,44.31c.01-.43,.08-.77,.29-1.07,.07-.1,.15-.19,.25-.26,.25-.17,.51-.17,.76,0,.16,.11,.28,.25,.36,.43,.26,.56,.26,1.12,0,1.67-.06,.12-.14,.23-.24,.33-.31,.28-.68,.28-.98,0-.18-.18-.29-.4-.36-.64-.05-.17-.08-.35-.07-.45Z"/><path class="cls-2" d="M342.52,48.18c0,.33-.05,.6-.18,.86-.05,.1-.11,.19-.18,.28-.32,.38-.8,.38-1.12,0-.19-.23-.29-.5-.33-.79-.06-.39-.01-.76,.16-1.12,.04-.09,.1-.18,.16-.26,.33-.41,.83-.4,1.15,0,.25,.31,.33,.68,.34,1.03Z"/><path class="cls-2" d="M333.3,49.37c0,.34-.05,.58-.14,.81-.06,.14-.13,.26-.22,.37-.32,.37-.78,.37-1.11,0-.19-.22-.29-.48-.34-.76-.06-.36-.03-.71,.1-1.05,.05-.14,.12-.26,.22-.37,.33-.4,.81-.4,1.14,0,.26,.32,.35,.69,.35,1Z"/><path class="cls-2" d="M336.99,49.35c0-.26,.08-.59,.28-.88,.07-.1,.14-.19,.24-.26,.25-.18,.53-.18,.78,0,.15,.1,.26,.24,.34,.41,.27,.56,.27,1.13,0,1.7-.08,.16-.19,.3-.34,.4-.25,.17-.51,.17-.76,0-.15-.1-.26-.25-.34-.41-.13-.25-.2-.54-.19-.95Z"/><path class="cls-2" d="M334.24,41.32c.06,0,.12,.02,.19,.04,.19,.07,.39,.13,.58,.2,.1,.04,.19,.04,.29,0,.17-.07,.35-.13,.53-.18,.06-.02,.13-.04,.2-.05,.17-.02,.29,.06,.34,.21,.04,.14-.02,.29-.17,.36-.15,.07-.32,.12-.48,.18-.05,.02-.1,.03-.15,.05-.09,.02-.12,.08-.12,.17,0,.18,0,.36,0,.54,0,.1-.02,.19-.09,.26-.08,.08-.19,.12-.3,.08-.12-.04-.2-.13-.21-.26-.01-.15,0-.31,0-.46,0-.31,.06-.24-.27-.36-.15-.06-.31-.1-.46-.16-.18-.08-.24-.26-.16-.42,.06-.11,.15-.16,.28-.16Z"/><path class="cls-2" d="M341.69,39.37c.17,0,.31,.13,.31,.3,0,.15-.13,.29-.28,.3-.16,.01-.32-.13-.32-.29,0-.17,.13-.31,.3-.31Z"/><path class="cls-2" d="M329.92,39.83c.17,0,.31,.13,.31,.3,0,.16-.15,.31-.31,.3-.15,0-.29-.14-.3-.3,0-.17,.13-.31,.3-.31Z"/><path class="cls-2" d="M337.21,41.52c-.17,0-.31-.12-.32-.29,0-.17,.14-.31,.3-.31,.15,0,.29,.13,.31,.28,.01,.17-.12,.31-.29,.32Z"/><path class="cls-2" d="M339.45,40.75c-.17,0-.31-.14-.31-.31,0-.17,.15-.31,.31-.3,.15,0,.29,.14,.29,.3,0,.17-.13,.31-.3,.31Z"/><path class="cls-2" d="M331.31,40.5c0,.16-.14,.3-.31,.3-.16,0-.29-.13-.3-.29,0-.16,.13-.31,.3-.32,.16,0,.31,.14,.31,.3Z"/><path class="cls-2" d="M332.08,41.17c-.17,0-.31-.13-.31-.3,0-.16,.15-.31,.31-.3,.15,0,.29,.14,.3,.29,0,.16-.13,.3-.3,.31Z"/><path class="cls-2" d="M335.15,43.78c.17,0,.3,.15,.3,.32,0,.16-.16,.3-.32,.29-.16-.01-.28-.15-.28-.3,0-.17,.14-.31,.31-.3Z"/><path class="cls-2" d="M335.45,45.3c0,.17-.14,.31-.3,.31-.17,0-.31-.14-.3-.31,0-.16,.13-.29,.29-.3,.16,0,.31,.13,.32,.3Z"/><path class="cls-2" d="M335.45,46.53c0,.17-.14,.31-.3,.31-.17,0-.31-.14-.31-.31,0-.16,.13-.29,.29-.3,.16,0,.31,.13,.32,.29Z"/><path class="cls-2" d="M335.14,47.46c.17,0,.31,.13,.31,.3,0,.17-.14,.31-.31,.31-.16,0-.29-.13-.3-.29-.01-.16,.13-.31,.29-.32Z"/><path class="cls-2" d="M335.45,48.98c0,.17-.13,.31-.3,.31-.16,0-.29-.13-.31-.28-.01-.16,.12-.32,.29-.33,.16,0,.31,.13,.32,.29Z"/><path class="cls-2" d="M335.45,50.21c0,.17-.13,.31-.3,.31-.16,0-.29-.13-.31-.28-.01-.16,.12-.32,.29-.33,.16,0,.31,.13,.32,.29Z"/><path class="cls-2" d="M335.45,51.45c0,.17-.15,.31-.31,.3-.17,0-.3-.16-.29-.32,0-.16,.14-.28,.3-.29,.17,0,.31,.14,.31,.31Z"/><path class="cls-2" d="M338.62,40.85c0,.15-.15,.29-.3,.3-.16,0-.31-.15-.31-.32,0-.17,.15-.3,.33-.29,.16,.01,.29,.15,.28,.31Z"/><path class="cls-2" d="M328.86,40.05c-.18,0-.32-.12-.31-.3,0-.16,.13-.29,.29-.29,.17,0,.32,.13,.32,.3,0,.16-.13,.29-.3,.29Z"/><path class="cls-2" d="M340.57,39.77c.17,0,.31,.14,.31,.3,0,.16-.14,.28-.3,.29-.17,0-.31-.14-.31-.3,0-.16,.14-.28,.3-.29Z"/><path class="cls-2" d="M333.15,41.54c-.16,0-.3-.12-.3-.28,0-.17,.13-.31,.3-.31,.16,0,.3,.12,.3,.28,0,.17-.13,.31-.3,.31Z"/></g></g></g><g><path class="cls-29" d="M573.86,171.8c-5.99,13.26-12.28,15.94,5.69,29.64-15.42,13.81-28.44,17.35-28.44,17.35,0,0-22.65-16.67-29.66-25.99,12.26-5.43,18.83-4.67,23.26-14.28,1.25-2.71,1.77-8.79,1.82-13.6l27.32,6.89Z"/><path class="cls-41" d="M557.1,176.85c5,.32,10.37-.11,14.91-2.22-2.22,3.87-3.74,7.26-6.86,8.86-12.73,6.54-17.91-1.33-23.31-.36,4.47-5.34,4.34-11.55,4.69-17.24,1.26,0,2.42,10.45,10.56,10.97Z"/><path class="cls-29" d="M590.81,139.49c-2.18-16.88-24.43-24.84-36.86-7.4-12.33,17.3-11.19,36.74-6.73,40.97,4.04,3.83,8.4,6.91,13.79,6.35,14.15-1.46,31.77-24.7,29.8-39.93Z"/><path class="cls-20" d="M551.29,123.5c-.53,.42-8.5,6.96-7.08,15.58,.42,2.58,1.57,4.61,2.61,6.01,6.38-11.94,9.86-14.82,11.86-14.27,2.32,.63,2.18,5.73,5.7,6.85,2.55,.8,3.6-1.55,7.44-1.42,2.28,.08,4.47,1.47,8.85,4.25,4.46,2.83,5.37,4.28,5.83,5.41,.25,.62,.64,1.78,.54,4.15-.32,7.94-5.44,15-5.44,15h0c25.29-20.79,15.57-27.76,18.91-32.7,.79-1.17,.74-1.33,.81-1.88,.63-5.04-15.35-14.62-30.93-13.69-3.78,.22-10.95,1.26-19.12,6.73Z"/><g><path class="cls-29" d="M547.38,139.26c4.11,.86,.35,8.41-1.62,12.1-3.88,7.28-4.85-13.45,1.62-12.1Z"/><path class="cls-8" d="M546.19,143.29c.29-.28,.71,.15,.43,.43-1.72,1.71-1.74,3.24-1.15,4.15,.09,.14,.05,.33-.09,.42-.93,.61-1.65-2.56,.81-5Z"/><path class="cls-40" d="M587.04,160.39c-2.99-2.94-7.2,4.36-9.18,8.05-3.91,7.26,13.89-3.41,9.18-8.05Z"/><path class="cls-8" d="M584.33,163.61c.08-.4-.52-.51-.59-.12-.47,2.38-1.73,3.24-2.82,3.25-.17,0-.3,.14-.3,.31,.01,1.11,3.04-.04,3.71-3.44Z"/></g><g><path class="cls-20" d="M565.62,142.44c-2.51-3.93-11.5-5.99-10.06-3.83,.47,.7,3.1,1.36,3.9,1.81,1.61,.91,3.88,3.53,5.4,3.39,.62-.06,1.08-.87,.76-1.37Z"/><path class="cls-20" d="M573.47,148.52c.73,1.34,4.17,1.76,5.83,2.59,.83,.41,2.84,2.23,3.68,2.23,2.59-.02-4.14-6.37-8.79-6.21-.66,.02-1.02,.84-.72,1.39Z"/><g><path class="cls-25" d="M557.29,148.61c-1.16-.62,.3-5.53,3.12-4.02,1.5,.81-1.22,5.04-3.12,4.02Z"/><path class="cls-25" d="M574.46,158.04c1.16,.62,4.44-3.31,1.62-4.82-1.5-.81-3.52,3.8-1.62,4.82Z"/></g><path class="cls-8" d="M560.12,159.39c.15-.55,1-.15,1.59,.01,2.15,.6,1.73,1.59,5.15-6.94,.67-1.67,.86-2.65,1.44-2.39,.55,.25,.07,.8-.69,2.7-3.72,9.26-3.12,8.2-7.2,7.12-.21-.06-.35-.27-.29-.49Z"/><path class="cls-2" d="M554.03,165.03c-.01-1.12,1.11-.22,9.13,3.05,2.41,.98-9.03,6.24-9.13-3.05Z"/></g><g><path class="cls-40" d="M605.85,158.73c2.06-1.85,1.31-2.81,1.18-14.21,0-.79-.39-1.52-.96-2.07-3.3-3.2-2.46-6.64-3.8-8.68-1.03-1.56-4.55-2.43-3.88,2,2.21,14.83-8.39,19.05-9.37,19.96-6.47,6.04-6.72,13.87-3.56,16.64l27.35,17.2,8.62-14.01-20.29-11.83c-.44-.21-.53-.79-.16-1.11,1.21-1.07,3.75-2.87,4.87-3.88Z"/><path class="cls-8" d="M593.49,166.12c-.3,0-.59-.01-.89-.04-.18-.02-.32-.18-.3-.36,.01-.18,.17-.32,.36-.3,2.46,.2,5.01-.51,7-1.96,.15-.11,.35-.08,.46,.07,.11,.15,.08,.35-.07,.46-1.88,1.37-4.23,2.13-6.56,2.13Z"/><path class="cls-8" d="M597.88,157.11c-.07,0-.14-.02-.19-.06-.15-.11-.18-.31-.07-.46,2.62-3.61,5.6-8.41,5.32-13.48,0-.18,.13-.34,.31-.35,.17-.02,.34,.13,.35,.31,.29,5.28-2.76,10.2-5.45,13.91-.06,.09-.17,.14-.27,.14Z"/><path class="cls-8" d="M602.23,157.27s-.1-.01-.15-.03c-.16-.08-.23-.28-.15-.44l.17-.34c1.29-2.59,2.75-5.53,2.53-8.35-.01-.18,.12-.34,.3-.36,.19-.01,.34,.12,.36,.3,.23,3-1.27,6.03-2.59,8.7l-.17,.34c-.06,.12-.18,.18-.3,.18Z"/></g><g><path class="cls-8" d="M402.7,178.98c-6.44-.21,.74,8.82,17.63,8.57-1.76-2.34-3.62-2.48-6.12-3.29-4.66-1.51-9.28-5.2-11.5-5.27Z"/><path class="cls-47" d="M382.02,188.38c-.83,.07-1.7-.83-1.62-1.66,.23-2.7,15.39-2.4,27.86,3.43-8.22-.05-18.37-2.43-26.24-1.77Z"/><path class="cls-29" d="M429.51,187.84l12.29,14.48-11.22,9.78-7.37-14.45c-.79-1.5-2.2-2.58-3.87-2.92-8.71-1.78-21.33-6.11-34.66-10.04-2.37-.7-2.33-2.57,.02-2.59,4.18-.04,10.47,.72,13.97,3.01-2.28-1.66-9.68-3.39-8.65-5.24,1.13-2.02,12.04,3.39,15.99,4.12,4.66,.86,18.68-1.84,23.5,3.84Z"/></g><g><path class="cls-44" d="M528.32,422.3c-.4-13.06-.58-25.27-.51-37.72,0-.59-.82-.75-1.02-.19-4.76,13.11-11.41,25.87-19.02,37.91h-58.72c13.79-33.89,55.67-124.52,55.67-124.52l77.81,4.98s9.41,20.1,1.7,78.69c-1.93,14.66-3.67,28.26-5.26,40.85h-50.65Z"/><path class="cls-16" d="M448.56,422.63l.19-.46c13.64-33.5,55.26-123.63,55.68-124.54l.1-.21h.23l78,5.01,.08,.18c.09,.2,9.36,20.86,1.73,78.87-1.85,14.08-3.62,27.82-5.26,40.85l-.04,.29h-51.27v-.32c-.43-13.67-.59-25.66-.52-37.73,0-.15-.12-.19-.17-.2-.06-.01-.17,0-.21,.12-4.45,12.23-10.86,25.01-19.05,37.98l-.1,.15h-59.39Zm56.37-124.51c-2.23,4.84-41.89,90.79-55.38,123.85h58.04c8.12-12.87,14.48-25.55,18.89-37.69,.14-.4,.54-.63,.95-.55,.42,.07,.71,.43,.71,.86-.07,11.97,.09,23.86,.5,37.39h50.04c1.63-12.94,3.38-26.59,5.22-40.56,7.22-54.95-.72-76.21-1.6-78.33l-77.38-4.95Z"/></g><g><path class="cls-16" d="M526.88,381.67c-.14,0-.27-.09-.31-.23-5.01-15.29-5.01-34.25-5-52.58,0-6.82,0-13.27-.26-19.3,0-.18,.13-.34,.32-.35,.18,0,.34,.13,.35,.32,.27,6.04,.26,12.5,.26,19.33,0,18.28,0,37.18,4.97,52.37,.06,.17-.04,.36-.21,.42-.03,.01-.07,.02-.1,.02Z"/><path class="cls-16" d="M523.13,363.31c-.1,0-.2-.05-.27-.13-.81-1.09-1.5-1.98-2.11-2.76q-4.19-5.38-6.74-25.91c-.67-5.36-1.49-12.02-2.62-20.56-.02-.18,.1-.35,.29-.37,.18-.03,.35,.1,.37,.29,1.12,8.54,1.95,15.21,2.62,20.56q2.53,20.35,6.61,25.59c.61,.78,1.31,1.68,2.12,2.78,.11,.15,.08,.35-.07,.46-.06,.04-.13,.06-.2,.06Z"/></g><path class="cls-26" d="M463.23,234.45c-4.32-9.02-14.8-33.27-25.39-44.07-.51-.52-1.31-.63-1.92-.24-5.27,3.36-9.58,7.28-13.28,12.11-.37,.49-.43,1.15-.15,1.7,17.5,34.89,28.16,75.59,34.94,77.11,14.64,3.3,34.64-33.51,47.47-42.65,8.82-6.28,30.04-45.51,13.23-52.35-12.88-5.24-44.39,37.08-51.78,48.59-.76,1.18-2.52,1.07-3.13-.2Z"/><path class="cls-26" d="M634.56,201.26c-14.03-3.53-27.3-11-38.64-20.04-.62-.5-.88-1.33-.62-2.08,1.92-5.57,7.71-12.55,9.87-15.03,.49-.57,1.28-.79,1.99-.56,52.31,16.38,102.82,40.73,57.34,60.82-87.32,38.56-96.98,44.08-96.98,44.08,0,0,4.8-57.89,22.96-61.5,14.93-2.97,28.95-3.99,44.08-5.68Z"/><path class="cls-34" d="M555.15,202.14c6.52,1.08,13.5-1.16,18.19-5.82,13.35,7.61,17.15,10.62,17.15,10.62-.25,31.47-.08,72.49-3.16,100.04-.19,1.7-1.83,2.81-3.49,2.39-24.98-6.38-68.73,16.8-91.74,11.17-1.21-.3-2.06-1.39-2.1-2.64-1.07-40.27,2.12-103.94,26.97-131.54,.26-.29,.63-.45,1.02-.46l20.5-.23s2.24,14.09,16.65,16.46Z"/></g><g><g><path class="cls-37" d="M228,168.23c1.14,11.94,5.84,20.47-15.27,32.65,14.59,16.91,28.03,22.48,28.03,22.48,0,0,26.53-14.71,35.31-23.71-5.23-3.17-10.6-5.42-15.41-8.24-9.51-5.56-5.38-20.02-7.57-25.05l-25.09,1.87Z"/><path class="cls-31" d="M257.49,188.7c-2.72-3.35-3.21-7.42-3.53-13.1-10.86,9.12-16.72,5.84-24.45,1.1,11.7,14.2,17.38,8.14,27.98,12Z"/><path class="cls-37" d="M250.73,179.26c6.12-2.53,14.81-21.66,9.09-43.86-5.76-22.37-31.24-22.98-39.98-6.83-8.41,15.54,1.81,62.71,30.88,50.69Z"/><path class="cls-53" d="M224.93,135.98c1.65-.21,3.08,1.82,4.08,1.16,.87-.57-.04-2.19,1.14-3.88,.08-.12,1.16-1.61,2.81-1.64,.86-.02,1.52,.38,2.06,.71,1.15,.72,1.57,1.51,2.15,2.18,1.59,1.84,4.58,2.87,5.52,2.1,1.3-1.06-1.33-5.55-.53-6.04,1.13-.7,7.31,7.78,8.41,7.09,.69-.43-1.36-4.04-.26-4.99,.94-.82,3.7,.96,4.04,1.17,5.93,3.81,6.87,16.4,7.04,22.11l4.62-19.12c1.06-2.69,2.07-6.8,.85-11.26-2.16-7.91-10.63-14.39-15.52-12.67-.8,.28-1.37,.73-1.71,1.05-1.01-1.25-3.54-4.01-7.78-5.35-3.3-1.04-6.07-.74-7.04-.6-.83,.12-3.28,.55-6.47,2.48-12.23,7.43-14.91,17.87-14.91,17.87-1.74,6.76-.94,12.74,3.37,23.36,.54,1.34,2.8,8.06,3.18-4.45,.23-1.55,1.61-10.86,4.97-11.28Z"/><g><path class="cls-37" d="M263.66,145.17c-4.47-.73-3.61,8.33-3.06,12.81,1.09,8.83,10.09-11.67,3.06-12.81Z"/><path class="cls-31" d="M263.3,149.69c-.18-.4-.77-.12-.6,.27,1.44,3.22-.52,5.08-.52,5.08,.7,.97,2.65-1.94,1.12-5.35Z"/><path class="cls-37" d="M215.55,151.08c4.15-1.81,5.55,7.18,6.13,11.66,1.13,8.83-12.66-8.81-6.13-11.66Z"/><path class="cls-31" d="M217.02,155.37c.08-.43,.72-.31,.64,.11-.6,3.48,1.76,4.79,1.76,4.79-.44,1.11-3.05-1.22-2.41-4.9Z"/></g><g><path class="cls-15" d="M244.2,143.22c.34,.14,11.33,.04,11.5-.03,2.57-1.1-7.07-4.05-11.5-1.66-.56,.3-.63,1.43,0,1.69Z"/><path class="cls-15" d="M233.49,142.1c-4.82-1.45-13.16,3.49-10.88,4.06,2.92-.24,15.15-2.78,10.88-4.06Z"/><path class="cls-31" d="M240.54,161.92c-.24,0-.52-.04-.84-.12-1.52-.41-1.26-2.51-.94-5.18,.21-1.73,.46-3.7,.22-5.44-.03-.19,.11-.37,.3-.39,.19-.02,.37,.11,.39,.3,.24,1.84,0,3.85-.22,5.62-.28,2.23-.51,4.16,.42,4.41,.79,.21,1.16,.05,1.68-.18,.37-.16,.79-.35,1.39-.4,.19-.01,.36,.13,.38,.32,.02,.19-.13,.36-.32,.38-.49,.04-.82,.19-1.17,.34-.38,.17-.76,.34-1.3,.34Z"/><path class="cls-2" d="M249.85,167.09c.08-.3-.24-.55-.5-.39-1.83,1.13-6.57,3.9-11.23,4.95-2.05,.46,8.66,6.31,11.73-4.56Z"/></g><path class="cls-25" d="M228.72,154.81c-1.26,.08-2.56-4.66,.5-4.86,1.64-.11,1.56,4.73-.5,4.86Z"/><path class="cls-25" d="M249.77,153.46c-1.26,.08-2.56-4.66,.5-4.86,1.64-.11,1.56,4.73-.5,4.86Z"/></g><g><path class="cls-9" d="M308.53,354.55c-.59-3.87-10.93-42.58-69.23-42.31-48.2,.22-62.79,41.64-62.79,41.64,27.48,16.94,121.32,13.3,132.01,.67Z"/><path class="cls-48" d="M244.83,365.68c-24.8,0-54.69-2.99-68.5-11.5l-.24-.15,.09-.27c.04-.1,3.78-10.54,13.39-20.86,8.87-9.52,24.7-20.9,49.72-21.01,.2,0,.4,0,.6,0,60.8,0,68.91,42.19,68.98,42.61l.02,.16-.1,.12c-5.09,6.01-29.75,10.48-59.97,10.88-1.31,.02-2.65,.03-3.99,.03Zm-67.89-11.95c14.55,8.77,46.6,11.56,71.87,11.22,29.82-.39,54.13-4.7,59.34-10.5-.58-2.8-9.92-41.86-68.25-41.86-.2,0-.39,0-.59,0-24.76,.11-40.42,11.35-49.19,20.77-8.67,9.3-12.52,18.69-13.16,20.37Z"/></g><path class="cls-46" d="M278.27,285.06c12.78,43.3,18.71,113.96,13.13,172.3l-41.45,1.53c-5.35-37.81-10.91-101.77-12.31-95.26-14.5,67.66-23.93,95.26-23.93,95.26h-41.07c2.9-48.37,18.96-128.28,27.78-175.92,28.87-8.42,60.71-3.53,77.85,2.09Z"/><g><path class="cls-43" d="M237.26,358.37c-.17,0-.32-.12-.35-.3-4.35-28.38-1.21-58.77,1.32-83.2,.02-.19,.19-.34,.39-.31,.19,.02,.33,.19,.31,.39-2.52,24.38-5.66,54.73-1.32,83.02,.03,.19-.1,.37-.29,.4-.02,0-.04,0-.05,0Z"/><path class="cls-43" d="M235.51,341.91c-.11,0-.22-.05-.29-.15-7.95-11.29-9.77-23.38-7.8-51.78,.01-.19,.18-.34,.37-.33,.19,.01,.34,.18,.33,.37-1.95,28.2-.16,40.19,7.68,51.32,.11,.16,.07,.38-.09,.49-.06,.04-.13,.06-.2,.06Z"/></g><path class="cls-37" d="M289.09,87.06c-3.32,2.45-6.97,4.45-10.82,5.94-8.26-14.17-11.48-11.59-15.68-12.96-2.9-.95-8.1-6.13-21.16-2.52-1.44,.4-2.39-3.25,2.25-4.53,10.71-2.96,12.22-2.15,12.81-8.73,.41-4.55-.28-5.81-3.82-8.12-3.27-2.14-5.04-1.76-6.93,2.49-3.28,7.37-7.19,1.55-2.96-4.08,1.45-1.93,3.46-3.33,5.44-4.71,1.6-1.11,2.14-1.13,3.65-.68,13.49,3.98,12.91,6.55,15.6,10.71,7.82,12.13,24.96,24.73,21.62,27.2Z"/><path class="cls-37" d="M191.56,87.06c3.32,2.45,6.97,4.45,10.82,5.94,8.26-14.17,11.48-11.59,15.68-12.96,2.9-.95,8.1-6.13,21.16-2.52,1.44,.4,2.39-3.25-2.25-4.53-10.71-2.96-12.22-2.15-12.81-8.73-.41-4.55,.28-5.81,3.82-8.12,3.27-2.14,5.04-1.76,6.93,2.49,3.28,7.37,7.19,1.55,2.96-4.08-1.45-1.93-3.46-3.33-5.44-4.71-1.6-1.11-2.14-1.13-3.65-.68-13.49,3.98-12.91,6.55-15.6,10.71-7.82,12.13-24.96,24.73-21.62,27.2Z"/><path class="cls-51" d="M280.52,73.94c3.89-1.5,4.18,.94,41.26,50.1,11.71,15.52,13.95,22.44,6.27,47.19-10.26,33.06-18.56,67.86-46.34,88.52-5.65,0-5.65-34.43-5.65-37.63,0-26.57,27.82-67.89,21.48-76.12-12.49-16.21-21.49-38.01-29.66-57.49-1.44-3.43,4-11.24,12.63-14.57Z"/><path class="cls-51" d="M197.17,71.63c-3.89-1.5-4.18,.94-41.26,50.1-11.71,15.52-13.95,22.44-6.27,47.19,10.26,33.06,18.56,67.86,46.34,88.52,5.65,0,5.65-34.43,5.65-37.63,0-26.57-27.82-67.89-21.48-76.12,12.49-16.21,21.49-38.01,29.66-57.49,1.44-3.43-4-11.24-12.63-14.57Z"/><g><path class="cls-24" d="M224.46,192.02c10.31,7.55,27.26,7.98,37.23-.02,7.4,1.73,12.65,3.53,21.18,7.41-4.14,33.23,5.44,60.85,2.02,96.4-34.82,6.45-78.77,12.36-92.11,1.04-2.55-25.78,5.72-56.03,7.65-97.79,6.49-4.2,12.03-4.97,24.04-7.05Z"/><path class="cls-24" d="M221.74,303.58c-14.46,0-24.13-2.15-29.2-6.46l-.11-.09v-.14c-1.47-14.68,.59-30.87,2.97-49.62,1.8-14.15,3.83-30.19,4.66-48.22v-.18l.16-.1c6.18-4.01,11.54-4.93,22.22-6.76l2.11-.36,.12,.09c10.42,7.63,27.27,7.63,36.8,0l.13-.11,.17,.04c7.54,1.77,12.91,3.64,21.24,7.43l.24,.11-.03,.26c-2.1,16.87-.68,32.03,.82,48.08,1.42,15.15,2.88,30.82,1.2,48.31l-.03,.26-.26,.05c-26.72,4.95-47.71,7.42-63.2,7.42Zm-28.64-6.91c10.42,8.67,40.34,8.29,91.45-1.16,1.64-17.32,.18-32.87-1.22-47.92-1.5-16.01-2.91-31.13-.85-47.98-8.1-3.67-13.37-5.52-20.71-7.24-4.81,3.8-11.4,5.86-18.58,5.81-6.95-.05-13.8-2.16-18.82-5.8l-1.81,.31c-10.49,1.8-15.8,2.72-21.8,6.56-.84,17.98-2.87,33.98-4.66,48.09-2.37,18.65-4.41,34.76-2.99,49.32Z"/></g><path class="cls-51" d="M177.63,354.23c-.36,.43-1.07,.2-1.12-.35-2.49-27.03,4.79-53.96,7.72-80.98,5.79-53.43,13.42-74.44,13.42-74.44,6.94-3.98,16.14-6.45,29.29-9.75-5.37,55.57-4.04,48.85-1.19,122.53,.94,24.2-26.58,17.82-48.12,43Z"/><path class="cls-51" d="M309.51,354.9c.36,.43,1.07,.2,1.12-.35,2.49-27.03-4.79-53.96-7.72-80.98-5.79-53.43-19.23-77.22-19.23-77.22-6.73-2.95-10.13-3.45-23.28-6.75,5.28,54.64,3.76,50.74,.99,122.31-.94,24.2,26.58,17.82,48.12,43Z"/><g><g><path class="cls-23" d="M272.28,299.08l1.3-4.82c.27-1.01,30.62,6.81,30.1,8.6l-1.07,3.67c-.28,.95-30.82-5.64-30.33-7.44Z"/><path class="cls-23" d="M302.1,306.95c-.99,0-3.2-.3-8.22-1.31-5.26-1.06-11.08-2.43-15.18-3.58-7.06-1.98-6.88-2.64-6.76-3.07l1.3-4.82c.02-.09,.1-.25,.35-.32,1.9-.48,28.08,6.26,30.22,8.47,.25,.26,.25,.49,.21,.63l-1.07,3.66c-.05,.16-.1,.33-.85,.33Z"/></g><g><path class="cls-23" d="M216.12,299.08l-1.3-4.82c-.27-1.01-30.62,6.81-30.1,8.6l1.07,3.67c.28,.95,30.82-5.64,30.33-7.44Z"/><path class="cls-23" d="M186.29,306.95c-.75,0-.8-.17-.85-.33l-1.07-3.66c-.04-.15-.04-.37,.21-.63,2.14-2.2,28.32-8.95,30.22-8.47,.25,.06,.33,.23,.35,.32l1.3,4.82c.12,.44,.3,1.1-6.76,3.07-4.1,1.15-9.92,2.52-15.18,3.58-5.02,1.01-7.23,1.31-8.22,1.31Z"/></g></g></g><g><path class="cls-50" d="M174.09,301.23c-6.88,13.43-20.76,21.88-35.83,21.82-14.95-.06-28.67-8.5-35.5-21.82-4.19-13.14-11.9-43.82-.98-79.15,5.02-16.24,12.53-28.75,18.89-37.46,9.99,1.19,19.98,2.39,29.96,3.58,4.34,12.41,8.46,26,12.05,40.71,6.48,26.52,9.83,50.95,11.4,72.31Z"/><path class="cls-50" d="M117.47,182.8c-.14,0-.27-.09-.31-.24-7.12-24.42,6.47-35.75,10.8-38.63,6.58-4.38,14-5.15,18.06-1.88,.14,.11,.16,.32,.05,.46-.11,.14-.32,.16-.46,.05-3.77-3.05-11.04-2.24-17.29,1.91-4.24,2.83-17.54,13.91-10.54,37.91,.05,.17-.05,.35-.22,.41-.03,0-.06,.01-.09,.01Z"/><path class="cls-19" d="M165.35,237.18c-12.83-10.94-25.63-11.94-18.05-36.47l-23.51-3.67c-2.72,18.49-1.6,19.92-10.23,26.03-1.9,1.35-13.7,6.54-13.7,6.54,16.33,17.09,48.94,18.89,65.49,7.58Z"/><path class="cls-4" d="M146.42,203.84c-1.01,4.32-1.69,7.51-1.26,11.69-8.14-6.71-20.56-4.28-21.87-14.94-.46-3.74,8.29,13.7,23.13,3.25Z"/><path class="cls-19" d="M121.09,161.41c-13.31,34.72,12.68,62.3,30.62,36.21,32.37-47.08-19.78-64.47-30.62-36.21Z"/><path class="cls-4" d="M140.92,196.18c-4.48-.13-6.94-.67-11.24-1.89-1.73-.49,1.28,13.04,11.45,2.6,.24-.25,.13-.71-.21-.72Z"/><path class="cls-50" d="M146.34,171.98c-2.18,.07-2.13,1.81-.54,2.28,16.94,5.03,5.94-2.46,.54-2.28Z"/><path class="cls-50" d="M132.29,169.25c2.03,.79,1.41,2.42-.25,2.33-17.65-.87-4.79-4.29,.25-2.33Z"/><path class="cls-4" d="M136.77,189.18s-.06,0-.09-.01c-1.97-.53-2.8-.81-3.08-1.43-.27-.6,.08-1.29,.71-2.55,.73-1.46,1.84-3.68,2.87-7.35,.05-.17,.23-.28,.4-.23,.17,.05,.28,.23,.23,.4-1.05,3.73-2.17,5.98-2.91,7.47-.5,1.01-.84,1.68-.7,1.99,.17,.37,1.16,.67,2.66,1.07,.17,.05,.28,.23,.23,.4-.04,.15-.17,.24-.32,.24Z"/><path class="cls-39" d="M127.36,179.67c-1.23-.18-1.49-5.01,1.49-4.56,1.59,.24,.52,4.87-1.49,4.56Z"/><path class="cls-39" d="M146.46,183.22c-1.23-.18-1.49-5.01,1.49-4.56,1.59,.24,.52,4.87-1.49,4.56Z"/><path class="cls-2" d="M140.62,196.39c1.46,1.72-8.79,1.39-10.5-.31-.19-.19-.77-1.15-.54-1.42,.22-.27,1.4,.29,1.71,.38,3.08,.91,5.99,1.34,9.33,1.35Z"/><path class="cls-50" d="M148.68,153.5c.28,5.95-4.66,6.22-8.93,6.01-13.52-.66-21.37,15.82-22.12,21.55-7.98-24.05,15.02-46.51,27.86-39.49,3.84,2.1,3.03,8.31,3.2,11.93Z"/><path class="cls-50" d="M140.43,149.18c-3.07,5.11,1.16,7.69,5.02,9.53,12.22,5.82,12.12,27.41,10.07,32.81,18.43-17.4,8.01-51.42-6.61-51.32-4.38,.03-6.61,5.88-8.47,8.99Z"/><path class="cls-19" d="M117.01,171.63c3.76-.17,2.19,7.23,1.31,10.88-1.74,7.2-7.23-10.61-1.31-10.88Z"/><path class="cls-4" d="M116.88,180.8c-.11,0-.22-.06-.28-.16-.86-1.48-1.1-4.29,.47-5.5,.14-.11,.35-.08,.46,.06,.11,.14,.08,.35-.06,.46-1.25,.97-1.01,3.44-.31,4.66,.09,.16,.04,.36-.12,.45-.05,.03-.11,.04-.16,.04Z"/><path class="cls-19" d="M161.02,181.67c-3.3-1.81-5.15,5.53-5.96,9.2-1.61,7.23,11.16-6.34,5.96-9.2Z"/><path class="cls-4" d="M157.24,189.99c-.11,0-.21-.05-.27-.15-.1-.15-.06-.35,.09-.45,1.17-.78,2.47-2.9,1.77-4.32-.08-.16-.01-.36,.15-.44,.16-.08,.36-.01,.44,.15,.88,1.78-.57,4.2-2,5.15-.06,.04-.12,.05-.18,.05Z"/><g><path class="cls-42" d="M136.77,371.77c18.88,3.02,38.47,6.01,56.89,.87,1.42-.4,9.32-.81,10.4-1.81-3.82-13.28-20.15-15.7-33.56-17.76-55.2-8.49-85.3-14.83-100.67-4.49-2.63,1.77-14.84,9.72-15.29,12.65,4.02,1.44,2.54-2.2,82.24,10.54Z"/><path class="cls-30" d="M171.44,375.74c-11.88,0-23.75-1.9-34.73-3.65-58.5-9.36-73.06-9.87-78.54-10.06-1.93-.07-2.65-.09-3.76-.49l-.25-.09,.04-.27c.4-2.57,8.63-8.32,14.78-12.43l.66-.44c13.76-9.26,38.47-5.37,83.31,1.69,5.61,.88,11.42,1.8,17.59,2.75l.28,.04c13.23,2.03,29.7,4.56,33.54,17.95l.06,.19-.15,.14c-.73,.68-3.65,1.05-7.39,1.47-1.44,.16-2.68,.3-3.14,.42-7.29,2.03-14.8,2.79-22.3,2.79Z"/></g><path class="cls-1" d="M98.1,461.43c1.47-.72,.34,1.85,15.82-50.8,2.51-8.53,5.03-17.14,5.78-25.99,.18-2.08,.8,4.33,9.26,76.66,19.29,1.58,45.47-2.26,48.45-6.4,1.59-2.21-.11-26.93-3.5-92.25-1.3-25.12-7.13-37.81-18.41-61.02-28.45-1.06-41.08-3.49-59.79,.46-31.95,64.67-34.3,123.05-37.34,148.03,1.27,1.16,38.55,11.88,39.74,11.3Z"/><path class="cls-49" d="M158.93,308.54c11.46-5.88,9.28-73.9,7.85-75.92-.49-.69-1.41-.9-2.24-1.08-6.96-1.5-11.64-5.19-17.29-9.53-8.45,13.56-27.86,11.2-30.55-1.32-4.23,.59-23.04,3.23-23.65,9.77-6.01,64.42-2.08,72.85,3.15,78.09,2.85,2.85,50.38,6.35,62.75,0Z"/><g><path class="cls-33" d="M122.97,316.17c-.25,.08-.49,.15-.74,.23-5.58,22.04-6.46,45.08-2.45,67.63,.03,.16,.17,.27,.32,.27,.02,0,.04,0,.06,0,.18-.03,.3-.2,.26-.38-4.01-22.6-3.1-45.68,2.54-67.75Z"/><path class="cls-33" d="M113.83,319.33c-.23,.09-.47,.19-.7,.28-3.94,26.9-3.23,32.59,4.42,43.71,.06,.09,.17,.14,.27,.14,.06,0,.13-.02,.18-.06,.15-.1,.19-.31,.08-.45-7.55-10.98-8.22-16.62-4.26-43.61Z"/></g><path class="cls-53" d="M162.59,315.92c-12.29,.81-25.52,1.21-39.57,.98-10.56-.17-20.61-.69-30.13-1.45v-9.46c8.47,2.73,20.46,5.59,35.01,5.94,12.5,.3,23.09-1.34,31.02-3.18,.75,1.1,1.54,2.4,2.28,3.91,.57,1.15,1.02,2.25,1.38,3.26Z"/><g><path class="cls-27" d="M172.77,242.72c.07,.75-20.21,4.63-44.95,4.4-22.26-.21-40.62-3.68-40.55-4.4,.06-.66,15.96,1.21,42.75,1.23,27.13,.02,42.69-1.88,42.75-1.23Z"/><path class="cls-27" d="M172.77,255.42c.07,.75-20.21,4.63-44.95,4.4-22.26-.21-40.62-3.68-40.55-4.4,.06-.66,15.96,1.21,42.75,1.23,27.13,.02,42.69-1.88,42.75-1.23Z"/><path class="cls-27" d="M172.77,268.13c.07,.75-20.21,4.63-44.95,4.4-22.26-.21-40.62-3.68-40.55-4.4,.06-.66,15.96,1.21,42.75,1.23,27.13,.02,42.69-1.88,42.75-1.23Z"/><path class="cls-27" d="M172.77,280.83c.07,.75-20.21,4.63-44.95,4.4-22.26-.21-40.62-3.68-40.55-4.4,.06-.66,15.96,1.21,42.75,1.23,27.13,.02,42.69-1.88,42.75-1.23Z"/><path class="cls-27" d="M172.77,293.53c.07,.75-20.21,4.63-44.95,4.4-22.26-.21-40.62-3.68-40.55-4.4,.06-.66,15.96,1.21,42.75,1.23,27.13,.02,42.69-1.88,42.75-1.23Z"/></g><g><path class="cls-13" d="M99.13,294.06c.17,11.38-.11,22.9-1.55,34.19-1.94,15.22-13.47,27.61-28.56,30.4-10.38,1.92-20.87,6.81-30.14,8.44-2.06-16.11,13.95-28.29,20.49-41.15,14.05-27.62,7.88-59.78,18.58-93.66,1.22-3.86,19.35-8.47,23.35-9.13l-2.18,70.92Z"/><g><g><path class="cls-19" d="M84.44,266.4c.18-.65,1.04-.84,1.46-.31,3.34,4.3-.95,10.12,1.49,10.21,4.04,.15,11.5-.87,12.98,4.38,.3,1.06,2.1,2.98,1,6.26-.21,.62-.32,7.37-6.61,8.86-1.16,.27-2.36,.29-3.55,.37-6.2,.4-10.35,1.79-35.52,8.62,.59-.16-3.71-11.37-2.83-12.75,21.11-4.27,23.15,4.18,31.58-25.65Z"/><rect class="cls-13" x="-7.14" y="264.94" width="107.27" height="28.14" rx="13.49" ry="13.49" transform="translate(-184.16 115.27) rotate(-45.17)"/><path class="cls-22" d="M72.54,281.84c-1.01,.01-2.03,.14-3.04,.41l-56.82,15.4c-6.55,1.78-10.45,8.59-8.68,15.13h0c1.78,6.55,8.59,10.45,15.13,8.68l56.82-15.4c1.02-.28,1.96-.68,2.84-1.18l-6.25-23.04Z"/><rect class="cls-18" x="71.45" y="281.25" width="4.4" height="25.49" transform="translate(221.65 558.47) rotate(164.83)"/></g><path class="cls-13" d="M81.37,229.39c-.34,.17-.84,.43-1.45,.75-1.14,.61-3.07,1.7-5.96,3.66-5.71,3.88-8.03,5.83-8.91,6.63-.13,.12-.24,.22-.32,.29,3.12,4.93,8.85,6.85,12.89,5.18,5.06-2.09,7.89-9.97,3.75-16.51Z"/></g></g><g><path class="cls-13" d="M161.72,343.71c1.94,15.22,13.47,27.61,28.56,30.4,10.38,1.92,20.87,6.81,30.14,8.44,3.48-27.19-30.88-25.14-28.25-86.96,.66-15.54-5.45-34-10.73-52.72-6.66-4.44-13.17-10.25-20.78-13.25,1.22,100.28-.78,99.63,1.07,114.1Z"/><g><g><path class="cls-19" d="M173.76,276.65c-.18-.65-1.04-.84-1.46-.31-3.34,4.3,.95,10.12-1.49,10.21-4.04,.15-11.5-.87-12.98,4.38-.3,1.06-2.1,2.98-1,6.26,.21,.62,.32,7.37,6.61,8.86,1.16,.27,2.36,.29,3.55,.37,6.2,.4,10.35,1.79,35.52,8.62-.59-.16,3.71-11.37,2.83-12.75-21.11-4.27-23.15,4.18-31.58-25.65Z"/><rect class="cls-13" x="158.07" y="275.2" width="107.27" height="28.14" rx="13.49" ry="13.49" transform="translate(155.82 643.34) rotate(-134.83)"/><path class="cls-22" d="M185.66,292.09c1.01,.01,2.03,.14,3.04,.41l56.82,15.4c6.55,1.78,10.45,8.59,8.68,15.13h0c-1.78,6.55-8.59,10.45-15.13,8.68l-56.82-15.4c-1.02-.28-1.96-.68-2.84-1.18l6.25-23.04Z"/><rect class="cls-18" x="182.35" y="291.5" width="4.4" height="25.49" transform="translate(86.04 -37.69) rotate(15.17)"/></g><path class="cls-13" d="M176.83,239.64c.34,.17,.84,.43,1.45,.75,1.14,.61,3.07,1.7,5.96,3.66,5.71,3.88,8.03,5.83,8.91,6.63,.13,.12,.24,.22,.32,.29-3.12,4.93-8.85,6.85-12.89,5.18-5.06-2.09-7.89-9.97-3.75-16.51Z"/></g></g></g><g class="cls-17"><path class="cls-1" d="M291.15,346.14c-16.91,40.7-16.5,77.88-14.45,99.33,10.94,4.11,24.46,7.98,40.2,9.99,37.37,4.75,68.09-3.5,85.93-9.99-3.83-16.9-7.94-34.07-12.35-51.5-7.35-29.04-15.1-57.08-23.12-84.09-17.34-2.1-34.69-4.2-52.03-6.31-8.14,10.98-16.93,25.13-24.18,42.57Z"/><g><path class="cls-14" d="M338.89,207.32c-2.42,2.3-5.75,10.55,3.47,14.14,2.15,.84,4.59-.31,6.8-1,6.15-1.92,9.7-3.56,15.56-6.24,2.67-1.22,.89-5.87-3.89-9.77-6.53-5.34-4.78-16.8-4.72-22.6l-20.72,2.11c3.52,7.9,10.09,17.09,3.5,23.36Z"/><path class="cls-36" d="M355.81,190.58c-7.4-1.13-14.34-4.17-15.19-4.4-1.32,6.57,13.46,8.13,16.28,11.93-.99-2.3-.83-5.66-1.09-7.53Z"/><path class="cls-14" d="M368.89,166.2c-.72-.87-3.55-4.05-6.21-8.08-.49-1.19-1.03-2.36-1.61-3.5-7.88-15.36-22.61-16.47-32.15-11.58s-10.38,18.19-2.5,33.54c7.88,15.36,23.23,15.14,31.64,14.7,7.36-.38,9.75-10.32,7.96-21.49,1.69-1.1,3.66-2.66,2.88-3.59Z"/><path class="cls-25" d="M360.05,164.46c1.08-.3,.79-4.64-1.83-3.91-1.4,.39,.06,4.4,1.83,3.91Z"/><path class="cls-2" d="M366.57,175.96c-1.5,.22-3.52,.57-6.09,1-1.46,.25,1.92,2.27,5.98,2.44,.16-1.29,.14-2.15,.11-3.44Z"/><path class="cls-28" d="M360.16,157.68c.5-.02,.99-.2,1.27-.54,.72-.84-.33-1.6-1.31-1.88-1.99-.57-4.47,.26-6.37,1.43-.4,.25-.26,.87,.21,.93,1.02,.12,2.87,.2,6.21,.06Z"/></g><g><g><path class="cls-3" d="M432.9,279.65c1.09,.87,1.3,2.9-1.25,3.06-3.71,.23-22.46-6.62-16.87-6.88,1.7-.08,17,2.92,18.12,3.82Z"/><path class="cls-3" d="M426.3,275.52c2.1,.17,8.6,4.66-12.53,1.62,1.79-1.42,3.09-1.96,5.29-1.75,2.41,.24,4.83-.06,7.24,.13Z"/><path class="cls-14" d="M409.33,269.74c13.26-.96,20.89,4.62,33.06,11.54,3.73,2.12,4.28,7.85-5.93,.88,3.12,6.63,5.08,9.66,3.19,10.75-1.05,.61-2.3-.38-3-1.36-3.94-5.58-2.13-7.92-11.51-12.02-5.92-2.59-7.32,1.91-3.76,5.33,1.47,1.41,3.33,2.99,3.08,5.01-1.82,.72-3.71-.72-5.14-2.06-14.14-13.29-7.85-9.24-33.39-3.85-.35-1.41-1.21-10.28-1.01-11.05,.56-2.14,.31-1.42,24.38-3.16Z"/></g><g><path class="cls-49" d="M401.88,284.54c-.26,.96-1.07,1.69-2.06,1.82-11.13,1.54-63.52,.38-64.16,.36-4.09-.15-9.79-3.17-12.46-8.03-2.41-4.38-8.26-43.95-8.88-71.42-.44-19.07,15.21-19.26,19.66-7.54,29.48,77.6-8.84,60.88,64.74,69.6,.85,.1,1.6,.63,1.97,1.41,2.17,4.48,2.49,9,1.19,13.81Z"/><path class="cls-12" d="M372.88,287.49c-17.68,0-36.93-.43-37.23-.44-4.07-.15-9.91-3.07-12.73-8.2-2.58-4.69-8.32-45-8.93-71.57-.24-10.3,4.2-14.85,8.44-15.68,4.83-.95,9.71,2.35,11.86,8.02,9.78,25.74,12.13,41.23,13.53,50.49q2.17,14.35,24.54,16.27c6.79,.58,15.23,1.31,26.4,2.63,.95,.11,1.81,.72,2.23,1.59,2.16,4.46,2.56,9.05,1.21,14.04-.3,1.1-1.21,1.91-2.33,2.06-4.42,.61-15.37,.8-26.99,.8Zm-48.8-95.4c-.51,0-1.02,.05-1.52,.15-3.97,.78-8.13,5.13-7.91,15.02,.64,28.08,6.54,67.09,8.84,71.27,2.61,4.74,8.24,7.72,12.18,7.86,.49,.02,53.01,1.19,64.11-.35,.86-.12,1.56-.74,1.79-1.59,1.3-4.83,.92-9.27-1.17-13.58-.32-.67-.98-1.14-1.72-1.22-11.16-1.32-19.6-2.05-26.38-2.63-22.67-1.95-22.9-2.1-25.13-16.83-1.4-9.23-3.74-24.68-13.49-50.35-1.81-4.76-5.61-7.75-9.6-7.75Z"/></g></g><path class="cls-45" d="M351.89,296.35c.04-.18,.22-.28,.4-.24,.18,.04,.28,.22,.24,.4"/><path class="cls-2" d="M325.01,218.91c4.04-6.52,23.58-19.19,35.46-14.16,9.2,3.9,23.19,22.81,20.67,45.36-1.85,16.56-7.1,15.46-10.71,64.13-10.75,2.47-44.83-5.13-57.91-11.64-2.56-1.27-3.94-4.12-3.4-6.93,1.83-9.6,5.13-19.22,7.02-28.78,6.64-33.66,4.39-40.74,8.88-47.98Z"/><path class="cls-12" d="M361.86,295.17c-.48,0-.97-.03-1.45-.1-.18-.03-.3-.19-.28-.37,.03-.18,.19-.3,.37-.28,4.46,.64,9.22-1.97,11.08-6.07,.07-.16,.27-.24,.43-.16,.16,.07,.24,.27,.16,.43-1.78,3.91-6.04,6.55-10.32,6.55Z"/><g class="cls-32"><rect class="cls-52" x="314.51" y="229.85" width="72.53" height="1.75" transform="translate(.93 -1.41) rotate(.23)"/><rect class="cls-52" x="314.46" y="242.11" width="72.53" height="1.75" transform="translate(.98 -1.41) rotate(.23)"/><rect class="cls-52" x="314.41" y="253.15" width="72.53" height="1.75" transform="translate(1.02 -1.41) rotate(.23)"/><rect class="cls-52" x="314.36" y="265.41" width="72.53" height="1.75" transform="translate(1.07 -1.4) rotate(.23)"/><rect class="cls-52" x="314.3" y="281.17" width="72.53" height="1.75" transform="translate(1.13 -1.4) rotate(.23)"/><rect class="cls-52" x="314.25" y="293.44" width="72.53" height="1.75" transform="translate(1.18 -1.4) rotate(.23)"/></g><g><g><g><path class="cls-3" d="M434.61,310.85c1.2-.72,1.69-2.7-.82-3.2-3.64-.74-23.16,3.47-17.66,4.5,1.67,.31,17.24-.56,18.47-1.3Z"/><path class="cls-3" d="M427.51,314.03c2.1,.12,9.16-3.44-12.19-3.32,1.58,1.65,2.79,2.37,5,2.46,2.42,.1,4.77,.73,7.19,.87Z"/><path class="cls-14" d="M409.9,317.42c13,2.77,21.33-1.71,34.33-6.89,3.99-1.59,5.32-7.19-5.75-1.69,4-6.14,6.35-8.87,4.64-10.21-.95-.74-2.33,.06-3.15,.94-4.67,4.98-3.2,7.55-13.05,10.33-6.22,1.75-6.99-2.89-2.99-5.79,1.65-1.2,3.71-2.5,3.74-4.54-1.7-.96-3.78,.21-5.37,1.34-15.83,11.22-9.05,8.08-33.6-.77-.54,1.35-2.61,10.02-2.51,10.81,.26,2.19,.11,1.45,23.72,6.48Z"/></g><path class="cls-52" d="M310.5,221.16c.99,8.29,1.95,7.95,15.11,63.01,2.38,9.97,4.04,14.12,14.38,17.35,30.19,9.43,52.62,14.94,63.13,15.78,1.03,.08,1.99-.46,2.46-1.38,1.67-3.32,3.04-6.81,2.18-12.67-.13-.91-.78-1.67-1.65-1.98-44.88-15.84-54.16-15.78-57.42-29.3-24.44-101.35-39.51-61.86-38.19-50.8Z"/></g><g class="cls-21"><g class="cls-11"><rect class="cls-38" x="295.14" y="231.57" width="72.53" height="1.75" transform="translate(.94 -1.33) rotate(.23)"/><rect class="cls-38" x="295.09" y="243.84" width="72.53" height="1.75" transform="translate(.98 -1.33) rotate(.23)"/><rect class="cls-38" x="295.05" y="254.87" width="72.53" height="1.75" transform="translate(1.03 -1.33) rotate(.23)"/><rect class="cls-38" x="295" y="267.14" width="72.53" height="1.75" transform="translate(1.08 -1.33) rotate(.23)"/><rect class="cls-38" x="294.94" y="282.9" width="72.53" height="1.75" transform="translate(1.14 -1.33) rotate(.23)"/><rect class="cls-38" x="294.89" y="295.17" width="72.53" height="1.75" transform="translate(1.19 -1.33) rotate(.23)"/></g></g></g><path class="cls-53" d="M345.69,156.72c-6.41,14.85,7.37,18.35,6.14,29.72-.02,.21-.05,.5-.1,.9,0,0-.39,2.7-1.72,5.45-4.13,8.54-8.58,13.57-8.58,13.57-10.92,12.32-13.76,10.03-17.69,16.82-3.5,6.04-3.95,12.5-4.73,23.82-.36,5.21-1.17,9.08-2.8,16.82-.9,4.29-1.26,5.26-2.1,5.61-4.01,1.63-15.97-10.58-20.85-25.23-4.44-13.34-2.04-25.84,.53-39.24,2.18-11.37,3.79-11.25,5.61-23.12,2.06-13.45,.52-17.05,3.85-25.58,1.74-4.44,4.87-12.14,12.93-17.72,7.98-5.52,16.11-5.88,19.74-5.76,6.13,.19,16.13,1.58,19.55,6.74,4.35,6.54-7.24,11.32-9.78,17.21Z"/></g><g><path class="cls-10" d="M693.44,152.82c.8,7.18-.97,11.49-2.39,19.82-4.8,28.06,25.04,56.56,23.76,57.44-.66,.45-7.27-8.05-8.37-7.32-1.15,.77,6.52,9.86,3.52,16-2.18,4.46-7.73,6.43-12.55,6.22-9.05-.39-15.51-6.21-33.5-8.05-5.45-.56-8.51-3.41-13.24-5.82-15.01-7.64-22.51-11.46-23.8-17.5-2.17-10.15,15.36-13.61,16.57-29.98,.57-7.67-2.4-12.36-.76-24.86,1.7-12.9,4.15-11.49,26.97-18.26,9.07-2.69,22.58,1.48,23.79,12.31Z"/><g><path class="cls-19" d="M696.14,222.83c-12.88-10.58-25.55-11.33-18.5-35.72l-23.31-3.2c-2.35,18.32-1.21,19.72-9.63,25.92-1.85,1.36-13.42,6.71-13.42,6.71,16.45,16.59,48.72,17.77,64.86,6.28Z"/><path class="cls-4" d="M676.93,189.73c-1.03,4.41-1.74,8.17-1.1,12.51-8.3-6.84-20.57-3.7-21.91-14.57,10.32,5.92,19.11,4.81,23.01,2.06Z"/><path class="cls-19" d="M646.9,151.26c-7.49,35.99,22.25,58.77,35.61,30.47,24.12-51.06-29.52-59.76-35.61-30.47Z"/><path class="cls-25" d="M655.75,166.44c-1.23-.1-1.83-4.86,1.16-4.63,1.6,.13,.86,4.79-1.16,4.63Z"/><path class="cls-25" d="M676.29,168.06c-1.23-.1-1.83-4.86,1.16-4.63,1.6,.13,.86,4.79-1.16,4.63Z"/><path class="cls-10" d="M658.8,155.94c1.97,.28,1.76,1.86,.27,2.13-2,.37-2.35-.38-6.66,.74-4.76,1.24,1.12-3.62,6.39-2.87Z"/><path class="cls-10" d="M674.22,157.58c-1.99-.11-2.08,1.48-.67,2.04,1.89,.74,2.67,.19,6.39,2.02,4.42,2.17-.35-3.76-5.72-4.06Z"/><path class="cls-4" d="M671.49,181.3c.24-.02,.41,.24,.28,.45-6.49,10.89-13.96-.8-12.6-1.16,2.86-.76,6.14,1.13,12.32,.71Z"/><path class="cls-2" d="M671.43,182.02c.65-1.03-.11,.03-11.42-1.38-1.1-.14-1.36,.7,.32,1.23,.82,.26,9.77,2.25,11.1,.15Z"/><path class="cls-4" d="M666.58,173.59s-.05,0-.07,0c-.59-.12-1.06-.18-1.45-.23-.73-.09-1.17-.15-1.4-.52-.29-.45-.08-1.09,.49-2.81,.41-1.26,1.04-3.16,1.79-5.96,.05-.19,.24-.3,.43-.25,.19,.05,.3,.24,.25,.43-.76,2.82-1.38,4.73-1.8,6-.37,1.14-.67,2.04-.56,2.21,.06,.09,.5,.15,.9,.2,.4,.05,.89,.12,1.5,.24,.19,.04,.31,.23,.27,.42-.03,.17-.18,.28-.34,.28Z"/></g><path class="cls-10" d="M664.05,143.65c8.68,2.13,12.66-.49,17.34,15.61,2.56,8.81,5.5,16.49,7.78,16.21,.34-.04,.69-.26,1.08-.84,2.54-3.76,10.35-27.63-4.02-41.32-1.09-1.04-10.07-7.42-19.52-6.62-5.59,.48-16.21,13.61-2.65,16.94Z"/><path class="cls-10" d="M663.28,134.84c-2.45-5.61-12.68-9.77-19.87,8.97-3.28,8.55-2.07,15.77,2.6,24.14-1.14-13.4,22.78-20.46,17.27-33.11Z"/><path class="cls-19" d="M688.77,165.71c-3.48-1.33-4.29,6.11-4.59,9.82-.59,7.3,10.07-7.73,4.59-9.82Z"/><path class="cls-19" d="M644.54,161.88c3.64-.77,3.28,6.71,3,10.41-.56,7.3-8.74-9.2-3-10.41Z"/><path class="cls-4" d="M686.17,173.84c-.09,0-.18-.03-.25-.1-.14-.14-.14-.36,0-.5,1.61-1.6,1.88-3.5,1.57-4.02-.05-.09-.1-.13-.24-.08-.19,.06-.38-.05-.44-.24-.06-.19,.05-.38,.24-.44,.43-.13,.82,.02,1.05,.4,.57,.95,.02,3.19-1.68,4.88-.07,.07-.16,.1-.25,.1Z"/><path class="cls-4" d="M645.65,170.73c-.11,0-.21-.05-.28-.14-1.42-1.92-1.63-4.22-.92-5.08,.28-.34,.69-.43,1.1-.24,.18,.08,.25,.29,.17,.47-.08,.18-.29,.25-.47,.17-.13-.06-.19-.03-.25,.05-.39,.47-.41,2.38,.94,4.21,.12,.16,.08,.38-.07,.49-.06,.05-.14,.07-.21,.07Z"/><path class="cls-1" d="M632.06,295.42c23.11-.37,46.16-4.43,68.01-11.97,37.35,87.04,34.95,71.3,22.33,151.81-2.29,14.63-7.83,2.85-53,9.72,.79-21.6,.72-72.49-1.53-69.68-29.11,36.38-29.75,64.12-46.19,68.19-5.78,1.43-11.67-1.14-17.41-2.74-8.15-2.27-28.17,1.33-26.54-9.28,1.61-10.44,11.03-23.08,15.79-32.51,10.79-21.39,21.83-42.81,29.56-65.54,1.11-3.26,9.61-38,8.96-37.99Z"/><g><path class="cls-45" d="M668.78,372.05c-.15,0-.29-.1-.34-.26-7.6-26.94-11.02-54.79-10.17-82.77,0-.19,.16-.34,.35-.34,.2,0,.36,.17,.35,.36-.85,27.91,2.57,55.69,10.14,82.56,.05,.19-.06,.38-.24,.43-.03,0-.06,.01-.1,.01Z"/><path class="cls-45" d="M662.27,342.96c-.08,0-.16-.03-.23-.09-10.75-9.35-11.46-25.77-12.43-48.5l-.13-2.94c0-.19,.14-.36,.34-.37,.19-.01,.36,.14,.37,.34l.13,2.94c.97,22.55,1.67,38.85,12.19,48,.15,.13,.16,.35,.03,.5-.07,.08-.17,.12-.27,.12Z"/></g><path class="cls-19" d="M730.27,321.28c-6.85,8.12-8.02,7.34-13.93,6.55-1.74-.23-3.49,.75-5.17,1.26-7.21,2.18-8.75,1.89-9.05,3.34-.3,1.44,4.12,2.03,5.59,1.95-4.05,.96-17.37,5.35-19.25,6.33-.69,.36-1.06,1.82-.35,2.12,1.72,.72,3.47,0,16.28-3.7,1.59,1.49-17.91,5.65-17.37,8.38,.63,3.19,11.48-3.09,19.07-4.38,.58,2.31-12.23,4.85-15.38,7.72-3.12,2.84,7.65,.37,16.12-3.19,.37-.16,.73-.39,1.13-.33,2.28,.34-2.53,1.82-9.49,5.35-2.07,1.05-1.37,3.16,2.41,1.93,13.47-4.36,15.37-4.26,25.36-13.37,22.26-20.29,23.78-21.91,21.93-24.03-10.18-11.67-7.22-8.59-17.89,4.07Z"/><path class="cls-48" d="M700.93,265.41c15.72,7.1,39.45,14.67,54.28,17.73,4.18,.86-14.99,17.11-30.51,40.18-.61,.91-.69,2.07-.21,3.05,2.82,5.77,4.79,7.08,9.02,9.86,1.19,.78,2.77,.64,3.79-.36,13.31-12.91,52.76-46.42,50.63-59.55-2.46-15.21-14.09-14.05-93.82-59.21-22.86-12.95-24.35,34.22,6.81,48.29Z"/><g><g><path class="cls-49" d="M697.64,223.97c-1.36-2.66,2.55-2.52,3.2-1.31,.92,1.72-1.95,3.76-3.2,1.31Z"/><path class="cls-12" d="M699.22,225.45s-.06,0-.08,0c-.75-.03-1.39-.5-1.81-1.32-.81-1.59,.13-2.24,.44-2.4,1.06-.56,2.89-.14,3.38,.76,.32,.61,.29,1.3-.09,1.91-.41,.65-1.12,1.05-1.84,1.05Zm-1.27-1.64c.3,.59,.72,.92,1.22,.94,.48,.02,1.01-.27,1.29-.72,.14-.23,.34-.69,.07-1.2-.28-.53-1.66-.88-2.43-.47-.46,.24-.51,.73-.14,1.46h0Z"/></g><g><path class="cls-49" d="M720.59,237.2c-1.36-2.66,2.55-2.52,3.2-1.31,.92,1.72-1.95,3.76-3.2,1.31Z"/><path class="cls-12" d="M722.18,238.69s-.06,0-.08,0c-.75-.03-1.39-.5-1.81-1.32-.81-1.59,.14-2.24,.44-2.4,1.06-.56,2.89-.14,3.38,.76,.33,.61,.29,1.3-.09,1.91-.41,.65-1.12,1.05-1.84,1.05Zm-1.27-1.64c.3,.59,.72,.92,1.22,.94,.48,.02,1.01-.27,1.29-.72,.14-.23,.34-.69,.07-1.2-.28-.53-1.66-.88-2.43-.47-.47,.24-.51,.73-.14,1.46h0Z"/></g><g><path class="cls-49" d="M741.32,250.79c-1.36-2.66,2.55-2.52,3.2-1.31,.92,1.72-1.95,3.76-3.2,1.31Z"/><path class="cls-12" d="M742.9,252.27s-.06,0-.08,0c-.75-.03-1.39-.5-1.81-1.32-.81-1.59,.13-2.24,.44-2.4,1.06-.56,2.89-.14,3.38,.76,.32,.61,.29,1.3-.09,1.91-.41,.65-1.12,1.05-1.84,1.05Zm-1.27-1.64c.3,.59,.72,.92,1.22,.94,.48,.03,1.01-.27,1.29-.72,.14-.23,.34-.69,.07-1.2-.28-.53-1.66-.88-2.43-.47-.47,.24-.51,.73-.14,1.46h0Z"/></g><g><path class="cls-49" d="M703.91,243.29c-1.36-2.66,2.55-2.52,3.2-1.31,.92,1.72-1.95,3.76-3.2,1.31Z"/><path class="cls-12" d="M705.5,244.77s-.06,0-.08,0c-.75-.03-1.39-.5-1.81-1.32-.81-1.59,.14-2.24,.44-2.4,1.06-.55,2.89-.14,3.38,.76,.32,.61,.29,1.3-.09,1.91-.41,.65-1.12,1.05-1.84,1.05Zm-1.27-1.64c.3,.59,.72,.92,1.22,.94,.49,.01,1.01-.27,1.29-.72,.14-.23,.34-.69,.07-1.2-.28-.53-1.66-.88-2.43-.47-.47,.24-.51,.73-.14,1.46h0Z"/></g><g><path class="cls-49" d="M720.59,256.23c-1.36-2.66,2.55-2.52,3.2-1.31,.92,1.72-1.95,3.76-3.2,1.31Z"/><path class="cls-12" d="M722.18,257.72s-.06,0-.08,0c-.75-.03-1.39-.5-1.81-1.32-.81-1.59,.14-2.24,.44-2.4,1.06-.56,2.89-.14,3.38,.76,.33,.61,.29,1.3-.09,1.91-.41,.65-1.12,1.05-1.84,1.05Zm-1.27-1.64c.3,.59,.72,.92,1.22,.94,.49,.01,1.01-.27,1.29-.72,.14-.23,.34-.69,.07-1.2-.28-.53-1.66-.88-2.43-.47-.47,.24-.51,.73-.14,1.46h0Z"/></g><g><path class="cls-49" d="M759.98,277.95c-1.36-2.66,2.55-2.52,3.2-1.31,.92,1.72-1.95,3.76-3.2,1.31Z"/><path class="cls-12" d="M761.56,279.43s-.06,0-.08,0c-.75-.03-1.39-.5-1.81-1.32-.81-1.59,.13-2.24,.44-2.4,1.06-.55,2.89-.14,3.38,.76,.33,.61,.29,1.3-.09,1.91-.41,.65-1.12,1.05-1.84,1.05Zm-1.27-1.64c.3,.59,.72,.92,1.22,.94,.49,.03,1.01-.27,1.29-.72,.14-.23,.34-.69,.07-1.2-.28-.53-1.66-.88-2.43-.47-.47,.24-.51,.73-.14,1.46h0Z"/></g><g><path class="cls-49" d="M734.79,315.97c-1.36-2.66,2.55-2.52,3.2-1.31,.92,1.72-1.95,3.76-3.2,1.31Z"/><path class="cls-12" d="M736.37,317.45s-.06,0-.08,0c-.75-.03-1.39-.5-1.81-1.32-.81-1.59,.14-2.24,.44-2.4,1.06-.56,2.89-.14,3.38,.76,.33,.61,.29,1.3-.09,1.91-.41,.65-1.12,1.05-1.84,1.05Zm-1.27-1.64c.3,.59,.72,.92,1.22,.94,.49,.02,1.01-.27,1.29-.72,.14-.23,.34-.69,.07-1.2-.28-.53-1.66-.88-2.43-.47-.47,.24-.51,.73-.14,1.46h0Z"/></g><g><path class="cls-49" d="M752.65,295.02c-1.36-2.66,2.55-2.52,3.2-1.31,.92,1.72-1.95,3.76-3.2,1.31Z"/><path class="cls-12" d="M754.23,296.5s-.06,0-.08,0c-.75-.03-1.39-.5-1.81-1.32-.81-1.59,.14-2.24,.44-2.4,1.06-.56,2.89-.14,3.38,.76,.32,.61,.29,1.3-.09,1.91-.41,.65-1.12,1.05-1.84,1.05Zm-1.27-1.64c.3,.59,.72,.92,1.22,.94,.5,.03,1.01-.27,1.29-.72,.14-.23,.34-.69,.07-1.2-.28-.53-1.66-.88-2.43-.47-.47,.24-.51,.73-.14,1.46h0Z"/></g><g><path class="cls-49" d="M732.96,330.87c-1.36-2.66,2.55-2.52,3.2-1.31,.92,1.72-1.95,3.76-3.2,1.31Z"/><path class="cls-12" d="M734.54,332.35s-.06,0-.08,0c-.75-.03-1.39-.5-1.81-1.32-.81-1.59,.13-2.24,.44-2.4,1.06-.56,2.89-.14,3.38,.76,.32,.61,.29,1.3-.09,1.91-.41,.65-1.12,1.05-1.84,1.05Zm-1.27-1.64c.3,.59,.72,.92,1.22,.94,.49,0,1.01-.27,1.29-.72,.14-.23,.34-.69,.07-1.2-.28-.53-1.66-.88-2.43-.47-.47,.24-.51,.73-.14,1.46h0Z"/></g><g><path class="cls-49" d="M771.12,291.93c-1.36-2.66,2.55-2.52,3.2-1.31,.92,1.72-1.95,3.76-3.2,1.31Z"/><path class="cls-12" d="M772.7,293.42s-.06,0-.08,0c-.75-.03-1.39-.5-1.81-1.32-.81-1.59,.13-2.24,.44-2.4,1.06-.55,2.89-.14,3.38,.76,.32,.61,.29,1.3-.09,1.91-.41,.65-1.12,1.05-1.84,1.05Zm-1.27-1.64c.3,.59,.72,.92,1.22,.94,.49,.01,1.01-.27,1.29-.72,.14-.23,.34-.69,.07-1.2-.28-.53-1.66-.88-2.43-.47-.46,.24-.51,.73-.14,1.46h0Z"/></g><g><path class="cls-49" d="M779.37,276.31c-1.36-2.66,2.55-2.52,3.2-1.31,.92,1.72-1.95,3.76-3.2,1.31Z"/><path class="cls-12" d="M780.95,277.8s-.06,0-.08,0c-.75-.03-1.39-.5-1.81-1.32-.81-1.59,.13-2.24,.44-2.4,1.06-.55,2.89-.14,3.38,.76,.32,.61,.29,1.3-.09,1.91-.41,.65-1.12,1.05-1.84,1.05Zm-1.27-1.64c.3,.59,.72,.92,1.21,.94,.49,.02,1.01-.27,1.29-.72,.14-.23,.34-.69,.07-1.2-.28-.53-1.66-.88-2.43-.47-.47,.24-.51,.73-.14,1.46h0Z"/></g><g><path class="cls-49" d="M761.81,259.82c-1.36-2.66,2.55-2.52,3.2-1.31,.92,1.72-1.95,3.76-3.2,1.31Z"/><path class="cls-12" d="M763.39,261.3s-.06,0-.08,0c-.75-.03-1.39-.5-1.81-1.32-.81-1.59,.13-2.24,.44-2.4,1.06-.55,2.89-.14,3.38,.76,.32,.61,.29,1.3-.09,1.91-.41,.65-1.12,1.05-1.84,1.05Zm-1.27-1.64c.3,.59,.72,.92,1.22,.94,.51,.03,1.01-.27,1.29-.72,.14-.23,.34-.69,.07-1.2-.28-.53-1.66-.88-2.43-.47-.47,.24-.51,.73-.14,1.46h0Z"/></g><g><path class="cls-49" d="M750.82,313.7c-1.36-2.66,2.55-2.52,3.2-1.31,.92,1.72-1.95,3.76-3.2,1.31Z"/><path class="cls-12" d="M752.4,315.19s-.06,0-.08,0c-.75-.03-1.39-.5-1.81-1.32-.81-1.59,.14-2.24,.44-2.4,1.06-.56,2.89-.14,3.38,.76,.33,.61,.29,1.3-.09,1.91-.41,.65-1.12,1.05-1.84,1.05Zm-1.27-1.64c.3,.59,.72,.92,1.22,.94,.49,.01,1.01-.27,1.29-.72,.14-.23,.34-.69,.07-1.2-.28-.53-1.66-.88-2.43-.47-.47,.24-.51,.73-.14,1.46h0Z"/></g><g><path class="cls-49" d="M739.49,270.53c-1.36-2.66,2.55-2.52,3.2-1.31,.92,1.72-1.95,3.76-3.2,1.31Z"/><path class="cls-12" d="M741.07,272.01s-.06,0-.08,0c-.75-.03-1.39-.5-1.81-1.32-.81-1.59,.13-2.24,.44-2.4,1.06-.55,2.89-.14,3.38,.76,.32,.61,.29,1.3-.09,1.91-.41,.65-1.12,1.05-1.84,1.05Zm-1.27-1.64c.3,.59,.72,.92,1.21,.94,.49,.03,1.01-.27,1.29-.72,.14-.23,.34-.69,.07-1.2-.28-.53-1.66-.88-2.43-.47-.47,.24-.51,.73-.14,1.46h0Z"/></g><g><path class="cls-49" d="M707.42,264.44c-1.36-2.66,2.55-2.52,3.2-1.31,.92,1.72-1.95,3.76-3.2,1.31Z"/><path class="cls-12" d="M709,265.92s-.06,0-.08,0c-.75-.03-1.39-.5-1.81-1.32-.81-1.59,.14-2.24,.44-2.4,1.06-.56,2.89-.14,3.38,.76,.33,.61,.29,1.3-.09,1.91-.41,.65-1.12,1.05-1.84,1.05Zm-1.27-1.64c.3,.59,.72,.92,1.22,.94,.49,.02,1.01-.27,1.29-.72,.14-.23,.34-.69,.07-1.2-.28-.53-1.66-.88-2.43-.47-.47,.24-.51,.73-.14,1.46h0Z"/></g></g><g><path class="cls-4" d="M553.82,198.7c-.21-.55-.32-1.33,.21-1.6,1.75-.9,5.86,7.07,7.09,9.22,.51,.89,.38,1.32-.34,1.64-1.2,.53-1.32,.28-2.11-.71-.71-.89-1.38-1.82-1.99-2.79-1.15-1.81-2.11-3.75-2.86-5.76Z"/><path class="cls-4" d="M551.32,187.08c.13-.6,.86-1.44,1.81-.51,1.67,1.64,9.28,21.27,9.28,22.06,0,.82-.73,1.42-1.4,1.91-.66,.48-10.21-20.95-9.69-23.46Z"/><path class="cls-19" d="M557.41,205.29c-2.24-6.81-2.14-8.04-2.46-19.92-.03-1.13,.21-2.61,1.32-2.79,3.47-.57,.91,8.53,3.95,17.02,1,2.8,4.38,8.93,4.04,10.08-.11,.37-1.61,1.75-2.78,2.03-1.49,.36-3.43-4.47-4.07-6.42Z"/><path class="cls-19" d="M576.18,232.54c-2.82-6.27-3.66-7.23-2.32-14.67,2.74-15.18,5.96-13.93,1.7-17.05-2.07-1.52-1.22,1.87-3.42,4.82-2.24,3.01-6.08,2.39-6.84-1.34-.71-3.48,2.26-4.73,3.6-3.57,.65,.56,1.27,1.48,1.61,2.27,.45,1.03,1.92,2.19,2.79,.1,1.87-4.54-1.09-5.27-5.03-7.65-.82-.49-1.16-.51-2,.05-17.59,11.78-4.78,9.07-2.22,31.17,.69,5.96,2.28,11.81,4.7,17.29,.26,.6,.61,.6,1.2,.17,7.29-5.31,11.75,.72,6.22-11.58Z"/></g><path class="cls-48" d="M587.88,266.7c-1.2-12.98-4.87-30.02-9.82-41.61-6.11-.87-14.05,1.16-17.7,5.31-3.33,20.33,12.38,65.09,14.5,69.25,11.92,23.45,33.93-14.81,50.99-41.05,4.35-6.68,2.57-20.32,4.03-28.16,1.23-6.62,8.46-24.51-.34-21.54-20.64,6.99-37.01,41.82-41.66,57.79Z"/><g><g><path class="cls-49" d="M621.19,217.03c-1.36-2.66,2.55-2.52,3.2-1.31,.92,1.72-1.95,3.76-3.2,1.31Z"/><path class="cls-12" d="M622.78,218.51s-.06,0-.08,0c-.75-.03-1.39-.5-1.81-1.32-.81-1.59,.13-2.24,.44-2.4,1.06-.56,2.89-.14,3.38,.76,.32,.61,.29,1.3-.09,1.91-.41,.65-1.12,1.05-1.84,1.05Zm-.3-3.28c-.3,0-.59,.05-.82,.18-.47,.24-.51,.73-.14,1.46,.3,.59,.72,.92,1.21,.94,.49,.02,1.01-.27,1.29-.72,.14-.23,.34-.69,.07-1.2-.2-.37-.93-.65-1.61-.65Z"/></g><g><path class="cls-49" d="M595.32,281c-1.36-2.66,2.55-2.52,3.2-1.31,.92,1.72-1.95,3.76-3.2,1.31Z"/><path class="cls-12" d="M596.9,282.49s-.06,0-.08,0c-.75-.03-1.39-.5-1.81-1.32-.81-1.59,.14-2.24,.44-2.4,1.06-.56,2.89-.14,3.38,.76,.32,.61,.29,1.3-.09,1.91-.41,.65-1.12,1.05-1.84,1.05Zm-1.27-1.64c.3,.59,.72,.92,1.22,.94,.5,.03,1.01-.27,1.29-.72,.14-.23,.34-.69,.07-1.2-.28-.53-1.66-.88-2.43-.47-.47,.24-.51,.73-.14,1.46h0Z"/></g><g><path class="cls-49" d="M610.86,274.68c-1.36-2.66,2.55-2.52,3.2-1.31,.92,1.72-1.95,3.76-3.2,1.31Z"/><path class="cls-12" d="M612.44,276.16s-.06,0-.08,0c-.75-.03-1.39-.5-1.81-1.32-.81-1.59,.13-2.24,.44-2.4,1.06-.55,2.89-.14,3.38,.76,.32,.61,.29,1.3-.09,1.91-.41,.65-1.12,1.05-1.84,1.05Zm-1.27-1.64c.3,.59,.72,.92,1.22,.94,.49,.03,1.01-.27,1.29-.72,.14-.23,.34-.69,.07-1.2-.28-.53-1.66-.88-2.43-.47-.47,.24-.51,.73-.14,1.46h0Z"/></g><g><path class="cls-49" d="M597.15,257.87c-1.36-2.66,2.55-2.52,3.2-1.31,.92,1.72-1.95,3.76-3.2,1.31Z"/><path class="cls-12" d="M598.73,259.35s-.06,0-.08,0c-.75-.03-1.39-.5-1.81-1.32-.81-1.59,.14-2.24,.44-2.4,1.06-.56,2.89-.14,3.38,.76,.33,.61,.29,1.3-.09,1.91-.41,.65-1.12,1.05-1.84,1.05Zm-1.27-1.64c.3,.59,.72,.92,1.22,.94,.49,.01,1.01-.27,1.29-.72,.14-.23,.34-.69,.07-1.2-.28-.53-1.66-.88-2.43-.47-.47,.24-.51,.73-.14,1.46h0Z"/></g><g><path class="cls-49" d="M612.69,250.79c-1.36-2.66,2.55-2.52,3.2-1.31,.92,1.72-1.95,3.76-3.2,1.31Z"/><path class="cls-12" d="M614.27,252.27s-.06,0-.08,0c-.75-.03-1.39-.5-1.81-1.32-.81-1.59,.13-2.24,.44-2.4,1.06-.56,2.89-.14,3.38,.76,.32,.61,.29,1.3-.09,1.91-.41,.65-1.12,1.05-1.84,1.05Zm-1.27-1.64c.3,.59,.72,.92,1.22,.94,.5,.03,1.01-.27,1.29-.72,.14-.23,.34-.69,.07-1.2-.28-.53-1.66-.88-2.43-.47-.47,.24-.51,.73-.14,1.46h0Z"/></g><g><path class="cls-49" d="M603.68,237.2c-1.36-2.66,2.55-2.52,3.2-1.31,.92,1.72-1.95,3.76-3.2,1.31Z"/><path class="cls-12" d="M605.26,238.69s-.06,0-.08,0c-.75-.03-1.39-.5-1.81-1.32-.81-1.59,.13-2.24,.44-2.4,1.06-.56,2.89-.14,3.38,.76,.32,.61,.29,1.3-.09,1.91-.41,.65-1.12,1.05-1.84,1.05Zm-.3-3.28c-.3,0-.59,.05-.82,.18-.47,.24-.51,.73-.14,1.46,.3,.59,.72,.92,1.21,.94,.49,.02,1.01-.27,1.29-.72,.14-.23,.34-.69,.07-1.2-.2-.37-.93-.65-1.61-.65Z"/></g><g><path class="cls-49" d="M583.5,301.09c-1.36-2.66,2.55-2.52,3.2-1.31,.92,1.72-1.95,3.76-3.2,1.31Z"/><path class="cls-12" d="M585.08,302.57s-.06,0-.08,0c-.75-.03-1.39-.5-1.81-1.32-.81-1.59,.13-2.24,.44-2.4,1.06-.56,2.89-.14,3.38,.76,.32,.61,.29,1.3-.09,1.91-.41,.65-1.12,1.05-1.84,1.05Zm-1.27-1.64c.3,.59,.72,.92,1.22,.94,.47,.03,1.01-.27,1.29-.72,.14-.23,.34-.69,.07-1.2-.28-.53-1.66-.88-2.43-.47-.47,.24-.51,.73-.14,1.46h0Z"/></g><g><path class="cls-49" d="M619.36,233.42c-1.36-2.66,2.55-2.52,3.2-1.31,.92,1.72-1.95,3.76-3.2,1.31Z"/><path class="cls-12" d="M620.94,234.9s-.06,0-.08,0c-.75-.03-1.39-.5-1.81-1.32-.81-1.59,.13-2.24,.44-2.4,1.06-.56,2.89-.14,3.38,.76,.33,.61,.29,1.3-.09,1.91-.41,.65-1.12,1.05-1.84,1.05Zm-.3-3.28c-.3,0-.59,.05-.82,.18-.47,.24-.51,.73-.14,1.46,.3,.59,.72,.92,1.21,.94,.49,.02,1.01-.27,1.29-.72,.14-.23,.34-.69,.07-1.2-.2-.37-.93-.65-1.61-.65Z"/></g><g><path class="cls-49" d="M566.77,245.43c-1.36-2.66,2.55-2.52,3.2-1.31,.92,1.72-1.95,3.76-3.2,1.31Z"/><path class="cls-12" d="M568.35,246.91s-.06,0-.08,0c-.75-.03-1.39-.5-1.81-1.32-.81-1.59,.13-2.24,.44-2.4,1.06-.55,2.89-.14,3.38,.76,.32,.61,.29,1.3-.09,1.91-.41,.65-1.12,1.05-1.84,1.05Zm-1.27-1.64c.3,.59,.72,.92,1.22,.94,.48,.01,1.01-.27,1.29-.72,.14-.23,.34-.69,.07-1.2-.28-.53-1.66-.88-2.43-.47-.46,.24-.51,.73-.14,1.46h0Z"/></g><g><path class="cls-49" d="M573.63,229.44c-1.36-2.66,2.55-2.52,3.2-1.31,.92,1.72-1.95,3.76-3.2,1.31Z"/><path class="cls-12" d="M575.21,230.92s-.06,0-.08,0c-.75-.03-1.39-.5-1.81-1.32-.81-1.59,.13-2.24,.44-2.4,1.06-.56,2.89-.14,3.38,.76,.33,.61,.29,1.3-.09,1.91-.41,.65-1.12,1.05-1.84,1.05Zm-.3-3.28c-.3,0-.59,.05-.82,.18-.47,.24-.51,.73-.14,1.46,.3,.59,.72,.92,1.21,.94,.49,.02,1.01-.27,1.29-.72,.14-.23,.34-.69,.07-1.2-.2-.37-.93-.65-1.61-.65Z"/></g><g><path class="cls-49" d="M568.19,270.53c-1.36-2.66,2.55-2.52,3.2-1.31,.92,1.72-1.95,3.76-3.2,1.31Z"/><path class="cls-12" d="M569.77,272.01s-.06,0-.08,0c-.75-.03-1.39-.5-1.81-1.32-.81-1.59,.14-2.24,.44-2.4,1.06-.56,2.89-.14,3.38,.76,.33,.61,.29,1.3-.09,1.91-.41,.65-1.12,1.05-1.84,1.05Zm-1.27-1.64c.3,.59,.72,.92,1.22,.94,.48,.03,1.01-.27,1.29-.72,.14-.23,.34-.69,.07-1.2-.28-.53-1.66-.88-2.43-.47-.47,.24-.51,.73-.14,1.46h0Z"/></g><g><path class="cls-49" d="M578.94,256.23c-1.36-2.66,2.55-2.52,3.2-1.31,.92,1.72-1.95,3.76-3.2,1.31Z"/><path class="cls-12" d="M580.53,257.72s-.06,0-.08,0c-.75-.03-1.39-.5-1.81-1.32-.81-1.59,.13-2.24,.44-2.4,1.06-.55,2.89-.14,3.38,.76,.33,.61,.29,1.3-.09,1.91-.41,.65-1.12,1.05-1.84,1.05Zm-1.27-1.64c.3,.59,.72,.92,1.22,.94,.48,.01,1.01-.27,1.29-.72,.14-.23,.34-.69,.07-1.2-.28-.53-1.66-.88-2.43-.47-.47,.24-.51,.73-.14,1.46h0Z"/></g><g><path class="cls-49" d="M579.84,283.96c-1.36-2.66,2.55-2.52,3.2-1.31,.92,1.72-1.95,3.76-3.2,1.31Z"/><path class="cls-12" d="M581.42,285.44s-.06,0-.08,0c-.75-.03-1.39-.5-1.81-1.32-.81-1.59,.13-2.24,.44-2.4,1.06-.56,2.89-.14,3.38,.76,.33,.61,.29,1.3-.09,1.91-.41,.65-1.12,1.05-1.84,1.05Zm-1.27-1.64c.3,.59,.72,.92,1.22,.94,.5,.01,1.01-.27,1.29-.72,.14-.23,.34-.69,.07-1.2-.28-.53-1.66-.88-2.43-.47-.46,.24-.51,.73-.14,1.46h0Z"/></g></g><path class="cls-48" d="M704.73,294.24c11.03-3.44-10.15-76.17-10.61-77.13-2.52-2.52-7.39-4.9-16.73-9.95-8.31,13.76-37.6,22.36-26.21-4.13-9.66,2.01-13.2,2.66-21.65,5.89-2.33,13.13-22.1,87.08-.79,102.2,20.14,14.3,52.46-9.53,75.98-16.87Z"/><g><g><path class="cls-49" d="M640.16,211.05c-1.36-2.66,2.55-2.52,3.2-1.31,.92,1.72-1.95,3.76-3.2,1.31Z"/><path class="cls-12" d="M641.74,212.54s-.06,0-.08,0c-.75-.03-1.39-.5-1.81-1.32-.81-1.59,.13-2.24,.44-2.4,1.06-.56,2.89-.14,3.38,.76,.32,.61,.29,1.3-.09,1.91-.41,.65-1.12,1.05-1.84,1.05Zm-1.27-1.64c.3,.59,.72,.92,1.22,.94,.5,.02,1.01-.27,1.29-.72,.14-.23,.34-.69,.07-1.2-.28-.53-1.66-.88-2.43-.47-.46,.24-.51,.73-.14,1.46h0Z"/></g><g><path class="cls-49" d="M627.9,243.29c-1.36-2.66,2.55-2.52,3.2-1.31,.92,1.72-1.95,3.76-3.2,1.31Z"/><path class="cls-12" d="M629.48,244.77s-.06,0-.08,0c-.75-.03-1.39-.5-1.81-1.32-.81-1.59,.13-2.24,.44-2.4,1.06-.56,2.89-.14,3.38,.76,.32,.61,.29,1.3-.09,1.91-.41,.65-1.12,1.05-1.84,1.05Zm-1.27-1.64c.3,.59,.72,.92,1.22,.94,.49,.01,1.01-.27,1.29-.72,.14-.23,.34-.69,.07-1.2-.28-.53-1.66-.88-2.43-.47-.47,.24-.51,.73-.14,1.46h0Z"/></g><g><path class="cls-49" d="M644.16,252.43c-1.36-2.66,2.55-2.52,3.2-1.31,.92,1.72-1.95,3.76-3.2,1.31Z"/><path class="cls-12" d="M645.74,253.91s-.06,0-.08,0c-.75-.03-1.39-.5-1.81-1.32-.81-1.59,.13-2.24,.44-2.4,1.06-.55,2.89-.14,3.38,.76,.32,.61,.29,1.3-.09,1.91-.41,.65-1.12,1.05-1.84,1.05Zm-.31-3.28c-.3,0-.59,.05-.82,.18-.47,.24-.51,.73-.14,1.46,.3,.59,.72,.92,1.21,.94,.49,.02,1.01-.27,1.29-.72,.14-.23,.34-.69,.07-1.2-.2-.37-.93-.65-1.61-.65Z"/></g><g><path class="cls-49" d="M630.41,270.53c-1.36-2.66,2.55-2.52,3.2-1.31,.92,1.72-1.95,3.76-3.2,1.31Z"/><path class="cls-12" d="M631.99,272.01s-.06,0-.08,0c-.75-.03-1.39-.5-1.81-1.32-.81-1.59,.14-2.24,.44-2.4,1.06-.56,2.89-.14,3.38,.76,.32,.61,.29,1.3-.09,1.91-.41,.65-1.12,1.05-1.84,1.05Zm-1.27-1.64c.3,.59,.72,.92,1.22,.94,.5,.03,1.01-.27,1.29-.72,.14-.23,.34-.69,.07-1.2-.28-.53-1.66-.88-2.43-.47-.47,.24-.51,.73-.14,1.46h0Z"/></g><g><path class="cls-49" d="M627.9,296.18c-1.36-2.66,2.55-2.52,3.2-1.31,.92,1.72-1.95,3.76-3.2,1.31Z"/><path class="cls-12" d="M629.48,297.67s-.06,0-.08,0c-.75-.03-1.39-.5-1.81-1.32-.81-1.59,.13-2.24,.44-2.4,1.06-.55,2.89-.14,3.38,.76,.32,.61,.29,1.3-.09,1.91-.41,.65-1.12,1.05-1.84,1.05Zm-1.27-1.64c.3,.59,.72,.92,1.22,.94,.5,.03,1.01-.27,1.29-.72,.14-.23,.34-.69,.07-1.2-.28-.53-1.66-.88-2.43-.47-.47,.24-.51,.73-.14,1.46h0Z"/></g><g><path class="cls-49" d="M662.16,259.82c-1.36-2.66,2.55-2.52,3.2-1.31,.92,1.72-1.95,3.76-3.2,1.31Z"/><path class="cls-12" d="M663.74,261.3s-.06,0-.08,0c-.75-.03-1.39-.5-1.81-1.32-.81-1.59,.13-2.24,.44-2.4,1.06-.55,2.89-.14,3.38,.76,.32,.61,.29,1.3-.09,1.91-.41,.65-1.12,1.05-1.84,1.05Zm-1.27-1.64c.3,.59,.72,.92,1.22,.94,.51,.03,1.01-.27,1.29-.72,.14-.23,.34-.69,.07-1.2-.28-.53-1.66-.88-2.43-.47-.47,.24-.51,.73-.14,1.46h0Z"/></g><g><path class="cls-49" d="M650.11,282.64c-1.36-2.66,2.55-2.52,3.2-1.31,.92,1.72-1.95,3.76-3.2,1.31Z"/><path class="cls-12" d="M651.69,284.12s-.06,0-.08,0c-.75-.03-1.39-.5-1.81-1.32-.81-1.59,.14-2.24,.44-2.4,1.06-.56,2.89-.14,3.38,.76,.33,.61,.29,1.3-.09,1.91-.41,.65-1.12,1.05-1.84,1.05Zm-1.27-1.64c.3,.59,.72,.92,1.22,.94,.47,.03,1.01-.27,1.29-.72,.14-.23,.34-.69,.07-1.2-.28-.53-1.66-.88-2.43-.47-.47,.24-.51,.73-.14,1.46h0Z"/></g><g><path class="cls-49" d="M644.16,310.43c-1.36-2.66,2.55-2.52,3.2-1.31,.92,1.72-1.95,3.76-3.2,1.31Z"/><path class="cls-12" d="M645.74,311.92s-.06,0-.08,0c-.75-.03-1.39-.5-1.81-1.32-.81-1.59,.13-2.24,.44-2.4,1.06-.56,2.89-.14,3.38,.76,.32,.61,.29,1.3-.09,1.91-.41,.65-1.12,1.05-1.84,1.05Zm-.31-3.28c-.3,0-.59,.05-.82,.18-.47,.24-.51,.73-.14,1.46,.3,.59,.72,.92,1.21,.94,.49,.01,1.01-.27,1.29-.72,.14-.23,.34-.69,.07-1.2-.2-.37-.93-.65-1.61-.65Z"/></g><g><path class="cls-49" d="M667.54,295.02c-1.36-2.66,2.55-2.52,3.2-1.31,.92,1.72-1.95,3.76-3.2,1.31Z"/><path class="cls-12" d="M669.12,296.5s-.06,0-.08,0c-.75-.03-1.39-.5-1.81-1.32-.81-1.59,.13-2.24,.44-2.4,1.06-.56,2.89-.14,3.38,.76,.32,.61,.29,1.3-.09,1.91-.41,.65-1.12,1.05-1.84,1.05Zm-.3-3.28c-.3,0-.59,.05-.82,.18-.47,.24-.51,.73-.14,1.46,.3,.59,.72,.92,1.21,.94,.48,.02,1.01-.27,1.29-.72,.14-.23,.34-.69,.07-1.2-.2-.37-.93-.65-1.61-.65Z"/></g><g><path class="cls-49" d="M679.35,276.31c-1.36-2.66,2.55-2.52,3.2-1.31,.92,1.72-1.95,3.76-3.2,1.31Z"/><path class="cls-12" d="M680.93,277.8s-.06,0-.08,0c-.75-.03-1.39-.5-1.81-1.32-.81-1.59,.13-2.24,.44-2.4,1.06-.55,2.89-.14,3.38,.76,.33,.61,.29,1.3-.09,1.91-.41,.65-1.12,1.05-1.84,1.05Zm-1.27-1.64c.3,.59,.72,.92,1.22,.94,.49,.02,1.01-.27,1.29-.72,.14-.23,.34-.69,.07-1.2-.28-.53-1.66-.88-2.43-.47-.47,.24-.51,.73-.14,1.46h0Z"/></g><g><path class="cls-49" d="M700.03,287.33c-1.36-2.66,2.55-2.52,3.2-1.31,.92,1.72-1.95,3.76-3.2,1.31Z"/><path class="cls-12" d="M701.62,288.81s-.06,0-.08,0c-.75-.03-1.39-.5-1.81-1.32-.81-1.59,.13-2.24,.44-2.4,1.06-.56,2.89-.14,3.38,.76,.32,.61,.29,1.3-.09,1.91-.41,.65-1.12,1.05-1.84,1.05Zm-1.27-1.64c.3,.59,.72,.92,1.22,.94,.5,.03,1.01-.27,1.29-.72,.14-.23,.34-.69,.07-1.2-.28-.53-1.66-.88-2.43-.47-.47,.24-.51,.73-.14,1.46h0Z"/></g><g><path class="cls-49" d="M687.47,257.87c-1.36-2.66,2.55-2.52,3.2-1.31,.92,1.72-1.95,3.76-3.2,1.31Z"/><path class="cls-12" d="M689.05,259.35s-.06,0-.08,0c-.75-.03-1.39-.5-1.81-1.32-.81-1.59,.13-2.24,.44-2.4,1.06-.55,2.89-.14,3.38,.76,.32,.61,.29,1.3-.09,1.91-.41,.65-1.12,1.05-1.84,1.05Zm-1.27-1.64c.3,.59,.72,.92,1.22,.94,.48,.01,1.01-.27,1.29-.72,.14-.23,.34-.69,.07-1.2-.28-.53-1.66-.88-2.43-.47-.47,.24-.51,.73-.14,1.46h0Z"/></g><g><path class="cls-49" d="M677.48,215.39c-1.36-2.66,2.55-2.52,3.2-1.31,.92,1.72-1.95,3.76-3.2,1.31Z"/><path class="cls-12" d="M679.06,216.88s-.06,0-.08,0c-.75-.03-1.39-.5-1.81-1.32-.81-1.59,.13-2.24,.44-2.4,1.06-.56,2.89-.14,3.38,.76,.32,.61,.29,1.3-.09,1.91-.41,.65-1.12,1.05-1.84,1.05Zm-1.27-1.64c.3,.59,.72,.92,1.22,.94,.5,.02,1.01-.27,1.29-.72,.14-.23,.34-.69,.07-1.2-.28-.53-1.66-.88-2.43-.47-.46,.24-.51,.73-.14,1.46h0Z"/></g><g><path class="cls-49" d="M691.03,235.05c-1.36-2.66,2.55-2.52,3.2-1.31,.92,1.72-1.95,3.76-3.2,1.31Z"/><path class="cls-12" d="M692.61,236.54s-.06,0-.08,0c-.75-.03-1.39-.5-1.81-1.32-.81-1.59,.13-2.24,.44-2.4,1.06-.56,2.89-.14,3.38,.76,.33,.61,.29,1.3-.09,1.91-.41,.65-1.12,1.05-1.84,1.05Zm-.3-3.28c-.3,0-.59,.05-.82,.18-.47,.24-.51,.73-.14,1.46,.3,.59,.72,.92,1.21,.94,.49,.02,1.01-.27,1.29-.72,.14-.23,.34-.69,.07-1.2-.2-.37-.93-.65-1.61-.65Z"/></g><g><path class="cls-49" d="M648.23,229.44c-1.36-2.66,2.55-2.52,3.2-1.31,.92,1.72-1.95,3.76-3.2,1.31Z"/><path class="cls-12" d="M649.82,230.92s-.06,0-.08,0c-.75-.03-1.39-.5-1.81-1.32-.81-1.59,.14-2.24,.44-2.4,1.06-.56,2.89-.14,3.38,.76,.33,.61,.29,1.3-.09,1.91-.41,.65-1.12,1.05-1.84,1.05Zm-1.27-1.64c.3,.59,.72,.92,1.22,.94,.49,.02,1.01-.27,1.29-.72,.14-.23,.34-.69,.07-1.2-.28-.53-1.66-.88-2.43-.47-.47,.24-.51,.73-.14,1.46h0Z"/></g><g><path class="cls-49" d="M668.65,238.84c-1.36-2.66,2.55-2.52,3.2-1.31,.92,1.72-1.95,3.76-3.2,1.31Z"/><path class="cls-12" d="M670.23,240.32s-.06,0-.08,0c-.75-.03-1.39-.5-1.81-1.32-.81-1.59,.13-2.24,.44-2.4,1.06-.56,2.89-.14,3.38,.76,.32,.61,.29,1.3-.09,1.91-.41,.65-1.12,1.05-1.84,1.05Zm-1.27-1.64c.3,.59,.72,.92,1.22,.94,.49,.03,1.01-.27,1.29-.72,.14-.23,.34-.69,.07-1.2-.28-.53-1.66-.88-2.43-.47-.47,.24-.51,.73-.14,1.46h0Z"/></g></g></g><text class="cls-5" transform="translate(436.74 103.81)"><tspan x="0" y="0">Graphic Designer</tspan></text><text class="cls-5" transform="translate(50.65 194.96)"><tspan x="0" y="0">Sponsor</tspan></text><text class="cls-5" transform="translate(216.37 100.03)"><tspan x="0" y="0">Designer</tspan></text><text class="cls-5" transform="translate(333.78 124.03)"><tspan x="0" y="0">Playtester</tspan></text><text class="cls-6" transform="translate(586.43 114.3)"><tspan x="0" y="0">Publisher</tspan></text><text class="cls-5" transform="translate(716.79 158.98)"><tspan x="0" y="0">Content</tspan><tspan x="1.52" y="13.2">Creator</tspan></text></svg>