<?xml version="1.0" encoding="UTF-8"?><svg xmlns="http://www.w3.org/2000/svg" viewBox="0 0 500 500"><defs><style>.d{fill:#bccbd3;}</style></defs><g id="a"/><g id="b"/><g id="c"><g><path class="d" d="M462.3,438.69c-2.66,0-5.32-.02-7.98-.02-3.72,0-3.83,.39-4.08-3.62-.62-10.12-3.64-19.53-9.04-28.15-20.63-32.95-66.76-37.8-93.77-9.83-10.35,10.72-15.86,23.6-16.78,38.4-.23,3.77-.98,3.22-3.5,3.19-.17,0-.33,0-.5,0-2.47-.13-5.39,.91-7.29-.45-1.84-1.32-.7-4.33-1.04-6.58-2.87-19.01-12.02-34.07-28.52-44.07-35.23-21.36-79.26-1.86-89.01,36.07-1.08,4.19-1.97,8.42-1.93,12.76,.01,1.73-.7,2.36-2.37,2.28-1.66-.08-3.32,0-4.99-.01-4.97-.04-5,.67-4.42-4.99,2.88-28.3,17.31-48.55,43.02-60.74,1.19-.56,2.4-1.06,3.56-1.57,.01-1.61-1.28-1.97-2.1-2.72-12.6-11.55-17.68-25.73-13.21-42.32,4.49-16.68,15.75-26.82,32.76-30.5,18.83-4.08,40.76,7.24,47.55,30.66,2.58,8.9,2.19,17.16-.98,25.55-2.39,6.34-6.31,11.65-11.31,16.18-.85,.77-1.76,1.49-3,2.54,4.16,2.76,8.8,4.06,12.72,6.69,4.01,2.69,7.96,5.43,11.48,8.75,3.4,3.2,6.49,6.66,9.27,10.42,2.84,3.85,5.03,8.11,7.78,12.87,4.62-8.91,9.84-16.68,16.82-23.15,7.03-6.52,15.05-11.4,23.82-14.88,.33-1.49-.79-1.86-1.49-2.47-12.73-11.17-17.86-25.14-13.97-41.62,3.72-15.8,13.93-26.2,29.58-30.74,22.11-6.42,44.9,7.36,51.02,29.78,2.24,8.19,2.34,15.87-.25,23.69-2.56,7.74-7.1,14.22-13.54,19.31-.38,.3-.7,.7-1.01,1.09-.09,.11-.05,.31-.08,.57,.99,1.12,2.5,1.34,3.8,1.97,23.53,11.29,37.93,29.51,42.08,55.5,.13,.8,.03,1.68,.89,2.18v7.98Zm-203.68-71.84c16.5,.03,29.93-13.2,30.05-29.61,.12-16.77-13.17-30.26-29.85-30.3-16.51-.04-29.93,13.19-30.05,29.6-.12,16.78,13.18,30.27,29.85,30.3Zm131.42,0c16.58,.14,30.13-12.94,30.35-29.3,.23-16.83-12.93-30.46-29.54-30.6-16.58-.14-30.13,12.94-30.35,29.3-.22,16.84,12.93,30.47,29.54,30.61Z"/><path class="d" d="M68.95,67.72c.83,3.54,1.58,6.75,2.33,9.95,.32,1.36,1.26,1.82,2.58,1.79,1.5-.03,3-.05,4.49,.01,3.56,.16,5.66,1.64,6.46,4.43,.77,2.7-.35,5.38-3.51,6.84-1.89,.87-2.39,1.95-2.24,3.76,.07,.83,.01,1.66,.01,2.49,0,99.94,0,199.87,.02,299.81,0,6.98-1,5.95,6.11,5.96,28.43,.04,56.87,0,85.3,.04,1.77,0,3.64-.5,5.35,.51-.09,1.95-1.09,3.52-1.74,5.21-.76,1.97-.5,4.81-2.43,5.74-1.78,.86-4.22,.42-6.37,.43-30.76,.02-61.52,.01-92.29,.01-1.16,0-2.33-.06-3.49,0-1.62,.1-2.51-.42-2.4-2.23,.09-1.49,.01-2.99,.01-4.49,0-103.26,0-206.52,0-309.78,0-1.33-.1-2.67,.02-3.99,.19-2.12-.59-3.12-2.79-2.86-1.79,.22-2.13-.99-2.48-2.39-1.87-7.57-3.81-15.12-5.71-22.68-.85-3.38-1.66-6.77-2.49-10.15,4.25-.91,296.7-1.32,313.66-.46,.94,.65,.31,1.51,.14,2.19-2.49,10.15-5.06,20.28-7.53,30.44-.48,1.96-.97,3.51-3.5,3.12-1.51-.24-2.02,.69-1.97,2.1,.05,1.33,0,2.66,0,3.99,0,61.69-.04,123.38,.09,185.07,0,4.3-.63,7.63-4.37,10.23-2.69,1.87-4.93,4.39-7.43,6.67-.5-1.5-.19-3.29-.19-5.02-.02-65.51-.02-131.03-.02-196.54,0-1.33-.06-2.66,.01-3.99,.07-1.47-.34-2.26-1.86-2.99-3.35-1.61-4.55-3.97-4.01-6.63,.6-2.98,2.9-4.63,6.64-4.87,2.12-.14,4.62,.85,6.25-.63,1.56-1.43,1.43-3.98,1.88-6.06,.34-1.57,1.37-3.06,.78-5.04H68.95Z"/><path class="d" d="M133.35,115.39c8.97,0,17.95,.03,26.92-.03,1.84-.01,2.67,.44,2.66,2.5-.07,14.29-.09,28.58,.01,42.88,.02,2.56-1.37,2.51-3.15,2.51-14.13-.02-28.25-.01-42.38-.01-3.66,0-7.31,.03-10.97,0-3.29-.04-3.35-.07-3.36-3.21-.03-8.97-.01-17.95-.01-26.92,0-4.99-.04-9.97,.02-14.96,.03-2.64,.1-2.72,2.84-2.73,9.14-.04,18.28-.01,27.42-.01Zm-.37,11.93c-5.14,0-10.29,.06-15.43-.03-1.94-.04-2.61,.64-2.58,2.58,.09,6.3,.09,12.61,0,18.91-.03,1.97,.69,2.58,2.6,2.57,10.28-.07,20.57-.07,30.85,0,1.94,.01,2.61-.64,2.58-2.58-.09-6.3-.09-12.61,0-18.91,.03-1.97-.68-2.6-2.6-2.57-5.14,.09-10.28,.03-15.43,.03Z"/><path class="d" d="M210.69,163.24c-8.97,0-17.95,.02-26.92-.01-2.74-.01-2.83-.09-2.84-2.73-.03-14.13-.03-28.25,0-42.38,0-2.62,.1-2.71,2.86-2.71,17.95-.03,35.9-.03,53.84,0,3,0,3.08,.08,3.09,2.98,.03,13.96,.03,27.92,0,41.88,0,2.88-.09,2.95-3.11,2.96-8.97,.04-17.95,.01-26.92,.01Zm.13-11.93c5.14,0,10.28-.06,15.43,.03,1.93,.04,2.62-.62,2.59-2.57-.09-6.3-.09-12.61,0-18.91,.03-1.95-.66-2.59-2.59-2.58-10.28,.07-20.57,.07-30.85,0-1.93-.01-2.62,.62-2.59,2.57,.09,6.3,.09,12.61,0,18.91-.03,1.95,.66,2.61,2.59,2.58,5.14-.09,10.28-.03,15.43-.03Z"/><path class="d" d="M288.4,163.24c-8.81,0-17.62,.02-26.42-.01-3.15-.01-3.21-.07-3.21-3.36-.03-13.63-.02-27.25,0-40.88,0-3.52,.06-3.58,3.49-3.58,11.3-.03,22.6-.01,33.9-.01,6.48,0,12.96-.03,19.44,.02,2.88,.02,2.96,.09,2.96,3.11,.03,13.79,.03,27.59,0,41.38,0,3.26-.07,3.32-3.24,3.33-8.97,.03-17.95,.01-26.92,.01Zm.27-11.93c5.14,0,10.29-.06,15.43,.03,1.94,.04,2.62-.63,2.59-2.58-.09-6.3-.09-12.61,0-18.91,.03-1.96-.67-2.58-2.6-2.57-10.28,.07-20.57,.07-30.85,0-1.93-.01-2.62,.63-2.59,2.58,.09,6.3,.09,12.61,0,18.91-.03,1.96,.67,2.61,2.6,2.57,5.14-.09,10.28-.03,15.43-.03Z"/><path class="d" d="M132.85,235.09c-8.97,0-17.95,.02-26.92-.01-2.74-.01-2.83-.09-2.84-2.73-.03-14.13-.03-28.25,0-42.38,0-2.62,.1-2.7,2.86-2.71,17.95-.03,35.9-.03,53.84,0,3,0,3.08,.08,3.09,2.98,.03,13.96,.03,27.92,0,41.88,0,2.88-.09,2.95-3.11,2.96-8.97,.04-17.95,.01-26.92,.01Zm.65-35.92c-5.31,0-10.62,.06-15.92-.03-1.9-.03-2.64,.57-2.61,2.55,.09,6.3,.09,12.61,0,18.91-.03,1.92,.61,2.61,2.57,2.6,10.28-.07,20.57-.07,30.85,0,1.9,.01,2.64-.57,2.61-2.55-.09-6.3-.09-12.61,0-18.91,.03-1.92-.61-2.64-2.57-2.6-4.97,.1-9.95,.03-14.93,.03Z"/><path class="d" d="M210.84,235.09c-8.97,0-17.95,.02-26.92-.01-2.91-.01-2.98-.09-2.99-3.08-.03-13.96-.03-27.92,0-41.88,0-2.76,.09-2.85,2.71-2.86,18.11-.03,36.23-.03,54.34,0,2.65,0,2.73,.09,2.74,2.83,.03,13.96,.03,27.92,0,41.88,0,3.05-.08,3.1-3.46,3.11-8.81,.03-17.62,.01-26.42,0Zm0-11.93c5.14,0,10.29-.07,15.43,.03,1.96,.04,2.6-.67,2.57-2.6-.08-6.3-.09-12.61,0-18.91,.03-1.98-.72-2.56-2.61-2.55-10.28,.06-20.57,.07-30.85,0-1.96-.01-2.6,.67-2.57,2.6,.08,6.3,.09,12.61,0,18.91-.03,1.98,.71,2.59,2.61,2.55,5.14-.09,10.28-.03,15.43-.03Z"/><path class="d" d="M288.53,235.09c-8.97,0-17.95,.02-26.92-.01-2.74-.01-2.83-.09-2.84-2.73-.03-14.13-.03-28.25,0-42.38,0-2.62,.1-2.7,2.86-2.71,17.95-.03,35.9-.03,53.84,0,3,0,3.08,.08,3.09,2.98,.03,13.96,.03,27.92,0,41.88,0,2.88-.09,2.95-3.11,2.96-8.97,.04-17.95,.01-26.92,.01Zm.15-35.92c-5.14,0-10.28,.06-15.43-.03-1.92-.03-2.63,.59-2.6,2.56,.09,6.3,.09,12.61,0,18.91-.03,1.94,.64,2.6,2.58,2.59,10.28-.07,20.57-.07,30.85,0,1.91,.01,2.63-.59,2.6-2.56-.09-6.3-.09-12.61,0-18.91,.03-1.94-.63-2.62-2.58-2.59-5.14,.1-10.28,.03-15.43,.03Z"/><path class="d" d="M133.1,306.94c-8.97,0-17.95,.02-26.92-.01-3-.01-3.09-.08-3.09-2.98-.03-13.96-.03-27.92,0-41.88,0-2.88,.09-2.96,3.11-2.96,17.95-.03,35.9-.03,53.84,0,2.75,0,2.84,.09,2.84,2.73,.03,14.13,.03,28.25,0,42.38,0,2.62-.1,2.7-2.85,2.71-8.97,.04-17.95,.01-26.92,.01Zm-.64-11.93c5.31,0,10.62-.06,15.92,.03,1.9,.03,2.65-.56,2.62-2.55-.09-6.3-.09-12.61,0-18.91,.03-1.92-.61-2.61-2.57-2.6-10.28,.07-20.57,.07-30.85,0-1.9-.01-2.65,.56-2.62,2.55,.09,6.3,.09,12.61,0,18.91-.03,1.92,.6,2.64,2.57,2.6,4.97-.1,9.95-.03,14.93-.03Z"/><path class="d" d="M132.76,378.79c-8.97,0-17.95,.02-26.92-.02-2.65-.01-2.74-.09-2.74-2.82-.03-13.96-.03-27.92,0-41.88,0-3.05,.08-3.11,3.46-3.12,9.64-.03,19.28-.01,28.92-.01,8.14,0,16.29-.03,24.43,.02,2.91,.01,2.99,.09,2.99,3.07,.03,13.79,0,27.59,.02,41.38,0,3.58-.14,3.39-3.73,3.38-8.81-.02-17.62,0-26.42,0Zm.73-35.92c-5.31,0-10.62,.06-15.92-.03-1.92-.03-2.63,.61-2.6,2.57,.09,6.3,.09,12.61,0,18.91-.03,1.94,.65,2.59,2.59,2.58,10.28-.07,20.57-.07,30.85,0,1.92,.01,2.63-.6,2.6-2.57-.09-6.3-.09-12.61,0-18.91,.03-1.94-.64-2.62-2.59-2.58-4.97,.1-9.95,.03-14.93,.03Z"/><path class="d" d="M228.81,284.75c0-3.95-.09-7.59,.03-11.22,.07-2.01-.74-2.55-2.63-2.54-10.3,.06-20.59,.07-30.89,0-2.03-.02-2.54,.8-2.52,2.65,.07,6.31,.1,12.62,0,18.93-.04,2.09,.9,2.5,2.7,2.47,4.98-.07,9.96-.06,14.94,0,1.59,.02,3.25-.4,5.01,.5-2.77,3-5.3,6.06-7.34,9.49-.74,1.24-1.64,1.94-3.18,1.93-7.31-.05-14.61-.04-21.92-.01-1.42,0-2.2-.47-2.11-1.99,.03-.5,0-1,0-1.49,0-13.62-.01-27.23,0-40.85,0-3.45,.06-3.5,3.57-3.51,17.6-.02,35.2-.02,52.81,0,3.38,0,3.41,.07,3.43,3.64,.03,4.65-.09,9.3,.05,13.95,.06,2.1-.45,3.34-2.6,4.08-2.96,1.02-5.79,2.44-9.37,3.99Z"/><path class="d" d="M302.04,295.71c.82-.88,1.66-.7,2.43-.68,1.37,.03,2.2-.35,2.19-1.93-.03-6.65-.05-13.29,.01-19.94,.02-1.86-.94-2.16-2.48-2.16-8.31,.03-16.61,.01-24.92,.01-2.16,0-4.32,.04-6.48,0-1.43-.03-2.15,.51-2.1,2.01,.05,1.47,.01,2.94,.01,4.84-3.73-.32-7.12-.6-10.51-.89-1.02-.09-1.41-.71-1.41-1.65,0-4.82,0-9.64-.01-14.45,0-1.25,.59-1.8,1.81-1.77,.83,.02,1.66-.01,2.49-.01,17.11,0,34.22,0,51.34,0,.66,0,1.33,.06,1.99,0,1.83-.17,2.27,.84,2.19,2.42-.06,1.33,0,2.66,0,3.99,0,12.63,.02,25.25,0,37.88,0,3.51-.07,3.34-3.52,3.61-3.14,.24-5.3-.52-6.84-3.56-1.49-2.93-3.81-5.4-6.17-7.72Z"/><path class="d" d="M204.73,366.85c-4.17,3.74-8.04,6.62-11.2,10.26-1.08,1.24-2.27,1.77-3.89,1.7-2.32-.1-4.64-.05-6.97-.03-1.28,.01-1.76-.65-1.75-1.84,.01-1-.01-1.99-.01-2.99,0-12.77,0-25.55,0-38.32,0-1,.03-1.99,.01-2.99-.01-1.28,.7-1.7,1.87-1.7,4.81,.01,9.62,0,14.43,.02,1.26,0,1.69,.72,1.66,1.9-.05,1.82-.06,3.65-.04,5.47,.03,4.05,.05,4.12-3.96,4.5-1.44,.14-2.06,.61-2.06,2.08,.03,6.64,.03,13.27,0,19.91,0,1.47,.62,2.06,2.07,2.04,2.98-.04,5.96-.01,9.82-.01Z"/><path class="d" d="M204.76,85.65c-.13,3.22-3.08,5.9-6.26,5.69-3.24-.21-5.83-3.19-5.56-6.39,.26-3.05,2.96-5.5,6.01-5.44,3.25,.06,5.95,2.91,5.82,6.14Z"/><path class="d" d="M228.71,85.61c-.11,3.22-3.04,5.92-6.23,5.73-3.24-.19-5.85-3.16-5.59-6.36,.24-3.05,2.93-5.51,5.98-5.48,3.24,.04,5.96,2.88,5.85,6.11Z"/><path class="d" d="M246.98,79.51c3.23,.14,5.9,3.08,5.69,6.27-.2,3.05-2.86,5.56-5.9,5.57-3.25,.01-5.99-2.78-5.93-6.02,.06-3.25,2.91-5.94,6.14-5.81Z"/><path class="d" d="M270.87,91.34c-3.23,.1-6.06-2.62-6.09-5.87-.03-3.25,2.74-6.01,5.99-5.97,3.04,.04,5.68,2.57,5.85,5.62,.18,3.2-2.52,6.11-5.74,6.22Z"/><path class="d" d="M288.73,85.19c.13-3.23,3.07-5.89,6.27-5.69,3.05,.2,5.55,2.86,5.56,5.9,.01,3.24-2.79,6-6.02,5.94-3.25-.07-5.94-2.92-5.81-6.15Z"/><path class="d" d="M318.48,91.34c-3.25-.07-5.94-2.92-5.8-6.15,.14-3.23,3.07-5.89,6.27-5.68,3.05,.2,5.55,2.86,5.56,5.9,0,3.24-2.8,6-6.03,5.93Z"/><path class="d" d="M175.12,79.51c3.23,.14,5.9,3.08,5.69,6.27-.21,3.24-3.2,5.84-6.39,5.56-3.04-.27-5.5-2.98-5.44-6.01,.06-3.25,2.91-5.94,6.14-5.81Z"/><path class="d" d="M108.96,85.21c.12,3.22-2.59,6.08-5.83,6.13-3.24,.05-6.02-2.72-6-5.96,.02-3.06,2.52-5.69,5.58-5.87,3.2-.2,6.13,2.47,6.25,5.71Z"/><path class="d" d="M127.22,79.51c3.23,.14,5.9,3.08,5.69,6.27-.2,3.05-2.86,5.56-5.9,5.57-3.25,.01-5.99-2.78-5.93-6.02,.06-3.25,2.91-5.94,6.14-5.81Z"/><path class="d" d="M156.86,85.48c-.04,3.24-2.88,5.97-6.1,5.86-3.24-.11-5.91-3.02-5.73-6.23,.17-3.06,2.79-5.57,5.85-5.61,3.24-.04,6.02,2.74,5.98,5.98Z"/><path class="d" d="M228.71,432.92c-.13,3.22-3.08,5.9-6.26,5.69-3.24-.21-5.83-3.19-5.56-6.39,.26-3.05,2.96-5.5,6.01-5.44,3.25,.06,5.95,2.91,5.82,6.14Z"/><path class="d" d="M252.66,432.83c-.08,3.23-2.97,5.94-6.18,5.78-3.24-.16-5.88-3.1-5.65-6.3,.21-3.05,2.88-5.54,5.93-5.53,3.25,0,5.99,2.82,5.9,6.05Z"/><path class="d" d="M276.61,432.52c.1,3.23-2.63,6.06-5.87,6.09-3.24,.03-6.01-2.75-5.96-5.99,.04-3.05,2.56-5.67,5.62-5.84,3.2-.18,6.11,2.51,6.21,5.74Z"/><path class="d" d="M294.7,426.78c3.25,.03,5.97,2.87,5.86,6.1-.1,3.05-2.68,5.63-5.73,5.74-3.24,.11-6.06-2.6-6.1-5.85-.04-3.25,2.72-6.02,5.97-5.98Z"/><path class="d" d="M360.44,432.67c.02,3.24-2.78,6.01-6.01,5.95-3.25-.06-5.95-2.9-5.82-6.13,.12-3.05,2.7-5.61,5.76-5.7,3.24-.09,6.05,2.64,6.07,5.88Z"/><path class="d" d="M384.39,432.81c-.07,3.24-2.94,5.95-6.15,5.8-3.23-.14-5.89-3.08-5.68-6.28,.2-3.05,2.85-5.55,5.9-5.55,3.24,0,6,2.79,5.93,6.03Z"/><path class="d" d="M408.34,432.64c.03,3.24-2.75,6.02-5.99,5.97-3.25-.04-5.96-2.88-5.85-6.11,.11-3.05,2.68-5.62,5.73-5.72,3.23-.11,6.06,2.61,6.1,5.86Z"/><path class="d" d="M432.29,432.71c-.01,3.24-2.83,5.99-6.06,5.9-3.25-.09-5.93-2.96-5.77-6.18,.15-3.06,2.75-5.59,5.81-5.65,3.24-.07,6.04,2.69,6.02,5.93Z"/></g></g></svg>