<?xml version="1.0" encoding="UTF-8"?><svg xmlns="http://www.w3.org/2000/svg" viewBox="0 0 500 500"><defs><style>.d{fill:#bccbd3;}</style></defs><g id="a"><g><path class="d" d="M385.66,311.77c25.75,25.76,51.3,51.32,76.86,76.88-1.57,.62-3.25,.3-4.88,.31-21,.02-42,.02-63,.02-1.17,0-2.33,.05-3.5,0-1.4-.05-2.22,.42-2.16,1.97,.04,1.16,0,2.33,0,3.5,0,21,0,42,0,63v5.35c-2.02-1-3.08-2.48-4.3-3.71-22.29-22.25-44.59-44.51-66.81-66.84-2.23-2.24-4.36-3.78-7.77-3.31-3.54,.49-6.93-.7-10.18-2.03-4.62-1.88-9.26-3.74-13.79-5.82-2.42-1.11-4.12-1.14-6.07,1.09-3.18,3.63-6.85,6.81-10.17,10.33-10.59,11.21-27.12,11.22-37.7,.02-3.32-3.51-7-6.7-10.17-10.32-1.94-2.21-3.64-2.22-6.06-1.12-4.54,2.07-9.18,3.93-13.8,5.81-3.42,1.39-6.96,2.5-10.68,2.06-2.98-.35-4.91,.86-6.93,2.9-22.33,22.45-44.75,44.82-67.12,67.23-1.17,1.17-2.12,2.56-3.65,4.43-1.01-2.43-.71-4.01-.72-5.51-.02-21.5-.01-43-.02-64.5,0-4.96,.38-4.54-4.59-4.54-21.17,0-42.33,0-63.5,0h-6.35c26.22-26.22,51.84-51.84,77.47-77.47-1.4-1.75-3.12-2-4.61-2.64-4.28-1.84-8.57-3.64-12.89-5.38-12.46-5.03-19.35-19.54-13.62-33.17,2.13-5.06,4.09-10.19,6.31-15.21,.8-1.81,.63-2.99-.8-4.36-3.85-3.69-7.6-7.48-11.33-11.3-10.86-11.09-10.83-25.83,.06-36.93,3.27-3.33,6.59-6.6,9.89-9.9q3.19-3.2,1.37-7.6c-1.72-4.15-3.39-8.32-5.19-12.44-6.36-14.53,.88-29.47,14.28-34.51,4.67-1.76,9.18-3.93,13.85-5.67,2.27-.85,3.04-2.12,2.97-4.47-.14-5-.09-10-.03-15,.13-9.84,3.86-17.76,12.47-23.04,4.42-2.71,9.33-3.44,14.36-3.56,5-.11,10-.1,15,0,2.12,.04,3.33-.63,4.13-2.71,1.98-5.12,4.14-10.17,6.35-15.19,4.59-10.44,13.73-16.03,25.02-15.47,2.88,.14,5.56,.97,8.19,2.03,4.32,1.74,8.6,3.58,12.93,5.31,5.47,2.18,3.89,2.6,7.99-1.41,3.22-3.14,6.35-6.38,9.56-9.53,11.29-11.12,26-11.15,37.3-.08,3.69,3.61,7.4,7.22,10.93,10.99,1.52,1.63,2.81,1.77,4.78,.9,5.17-2.28,10.4-4.47,15.68-6.47,10.47-3.98,21.49-1.11,28.52,7.23,1.84,2.19,3.17,4.68,4.26,7.3,1.92,4.61,3.93,9.18,5.69,13.85,.89,2.36,2.18,3.38,4.78,3.28,4.83-.18,9.67-.14,14.5-.03,5.03,.11,9.94,.82,14.38,3.51,8.64,5.24,12.39,13.15,12.56,22.98,.08,4.33,0,8.67,.02,13,.02,6.32-.39,5.06,5.15,7.45,4.28,1.84,8.62,3.54,12.87,5.43,12.9,5.72,18.55,19.15,13.56,32.36-2,5.29-4.17,10.52-6.48,15.68-.9,2.02-.66,3.3,.97,4.77,2.72,2.45,5.05,5.35,7.84,7.71,14.93,12.6,15.39,30.56-.16,43.75-2.79,2.36-5.15,5.22-7.83,7.72-1.4,1.32-1.72,2.47-.89,4.34,2.35,5.32,4.6,10.7,6.64,16.15,3.87,10.34,1.12,20.97-7.07,28.14-1.9,1.66-4.01,2.96-6.34,3.92-4.46,1.84-8.91,3.7-13.34,5.6-1.49,.64-3.2,.92-4.96,2.93Zm-37.91,32.01h0c4-.01,8.01,.14,12-.04,8.63-.4,13.44-5.23,14-13.82,.08-1.16,.02-2.33,.02-3.5,0-6.33-.01-12.67,0-19,.01-4.55,.03-4.55,4.03-6.21,6.45-2.68,12.91-5.34,19.35-8.04,9.39-3.93,12.11-10.25,8.35-19.56-2.62-6.48-5.32-12.92-7.99-19.37q-1.83-4.43,1.71-7.98c4.47-4.48,8.95-8.96,13.43-13.44,.82-.83,1.68-1.62,2.46-2.49,5.22-5.78,5.28-12.64,.16-18.44-.77-.87-1.62-1.68-2.45-2.5-4.47-4.48-8.95-8.96-13.43-13.44q-3.72-3.72-1.79-8.38c2.67-6.45,5.36-12.9,8-19.37,.63-1.53,1.27-3.06,1.45-4.75,.68-6.43-2.26-11.4-8.72-14.16-6.88-2.94-13.78-5.87-20.77-8.51-2.99-1.13-3.96-2.8-3.86-5.92,.22-6.83,.04-13.66,.08-20.5,.01-2.01-.14-3.99-.62-5.94-1.26-5.19-4.49-8.38-9.7-9.6-1.96-.46-3.94-.6-5.95-.59-7,.03-14-.15-21,.09-2.87,.1-4.16-1.03-5.13-3.52-2.73-6.97-5.6-13.88-8.53-20.77-3.55-8.36-10.24-11.13-18.7-7.75-5.56,2.22-11.07,4.58-16.61,6.84-2.45,1-5,2.79-7.4,2.62-2.74-.19-4.27-3.4-6.28-5.34-4.55-4.4-8.88-9.04-13.48-13.38-5.88-5.53-12.84-5.46-18.78-.04-.86,.79-1.66,1.64-2.49,2.46-4.83,4.83-9.73,9.59-14.47,14.52-1.74,1.81-3.21,2.23-5.62,1.15-6.83-3.04-13.87-5.63-20.71-8.67-9.8-4.35-16.84,1.01-19.42,8-2.47,6.7-5.52,13.2-8.09,19.87-1.1,2.87-2.61,4.12-5.84,4-6.82-.25-13.66-.05-20.49-.09-2.18-.02-4.33,.15-6.44,.7-4.75,1.24-7.8,4.27-9.11,8.99-.58,2.09-.76,4.24-.74,6.43,.05,6.5,.05,13,0,19.5-.04,5.78,.81,4.95-5.17,7.44-6.14,2.56-12.2,5.34-18.45,7.59-7.07,2.55-12.5,9.5-8.25,19.33,2.71,6.26,5.23,12.6,7.82,18.9q2.13,5.18-1.89,9.2c-4.71,4.71-9.29,9.57-14.17,14.11-6.75,6.29-6.97,14.93,.16,21.34,1.86,1.67,3.55,3.52,5.31,5.29,3.3,3.3,6.45,6.76,9.94,9.85,2.42,2.14,2.55,4.07,1.27,6.9-3.01,6.67-5.75,13.46-8.49,20.25-3.5,8.68-.68,15.3,8.03,18.96,5.98,2.52,12.03,4.86,17.99,7.43,7.13,3.07,5.8,1.52,5.89,8.97,.08,6.5-.08,13,.04,19.5,.18,9.67,5.24,14.66,14.95,14.9,2,.05,4,0,6,0,5.5,0,11,.12,16.5-.05,2.58-.08,3.87,.86,4.8,3.24,2.72,6.97,5.82,13.8,8.5,20.78,2.67,6.95,9.5,12.03,19.07,7.96,6.89-2.93,13.86-5.66,20.7-8.68,2.48-1.1,4.09-.96,6.07,1.14,5.36,5.7,10.94,11.22,16.59,16.64,6,5.76,13.11,5.78,19.12,.05,5.19-4.94,10.16-10.1,15.24-15.17,.83-.82,1.69-1.61,2.47-2.48,1.02-1.13,2.12-1.5,3.54-.74,.73,.39,1.53,.65,2.3,.97,6.91,2.87,13.79,5.84,20.75,8.57,7.67,3.01,14.25,.21,17.71-7.29,.28-.6,.47-1.24,.73-1.86,2.75-6.6,5.6-13.17,8.22-19.82,.92-2.33,2.13-3.45,4.75-3.31,3.82,.2,7.66,.05,11.5,.05Zm-21.13,39.12c17.01,17,33.69,33.68,50.4,50.39v-4.65c0-15.32,0-30.64,0-45.96,0-1.17,.05-2.33,0-3.5-.06-1.4,.42-2.21,1.96-2.15,1.16,.05,2.33,0,3.5,0,15.82,0,31.64,0,47.46-.02,1.22,0,2.52,.28,3.22-.14-15.76-15.76-31.48-31.48-47.23-47.23-.22,1.26-.55,2.87-.76,4.49-.98,7.6-4.92,13.27-11.18,17.49-4.61,3.11-9.83,3.94-15.21,4.06-4.99,.11-9.99,.1-14.99-.01-2.15-.05-3.33,.7-4.09,2.76-1.38,3.74-3.12,7.34-4.56,11.06-2,5.17-4.35,10.09-8.53,13.4Zm-201.39,50.43c16.69-16.66,33.4-33.35,50.17-50.09-1.33-1.59-2.96-3.45-4.48-5.39-1.56-1.99-2.39-4.37-3.35-6.67-1.61-3.83-3.29-7.64-4.69-11.55-1.03-2.88-2.6-4.2-5.84-4.01-4.65,.28-9.32,.15-13.98,.06-14.97-.3-24.21-8.44-26.49-23.19-.17-1.08,.11-2.36-.63-2.95-15.79,15.79-31.53,31.55-47.22,47.24,1.24,.61,2.91,.22,4.52,.22,15.49,.03,30.98,.02,46.46,.02,1.17,0,2.33,.03,3.5,.01,1.27-.03,1.79,.61,1.77,1.82-.02,1.17,.01,2.33,.01,3.5,0,15.49-.01,30.98,.02,46.46,0,1.59-.37,3.25,.24,4.5Z"/><path class="d" d="M173,148.74c.04-3.32,2.8-5.89,6.14-5.73,3.12,.15,5.64,2.69,5.7,5.77,.07,3.16-2.8,6.07-5.97,6.07-3.26,0-5.91-2.77-5.87-6.1Z"/><path class="d" d="M328.99,148.58c.13,3.3-2.48,6.15-5.72,6.27-3.15,.11-6.1-2.73-6.13-5.91-.03-3.05,2.45-5.69,5.54-5.93,3.32-.25,6.18,2.27,6.31,5.57Z"/><path class="d" d="M328.99,292.97c.11,3.32-2.54,6.05-5.86,6.03-3.14-.02-5.74-2.41-5.98-5.5-.24-3.15,2.46-6.18,5.68-6.35,3.2-.17,6.05,2.53,6.16,5.82Z"/><path class="d" d="M179.05,298.99c-3.13,.12-5.8-2.23-6.04-5.33-.27-3.52,2.5-6.56,5.95-6.52,2.97,.03,5.71,2.67,5.89,5.66,.19,3.21-2.49,6.06-5.8,6.18Z"/><path class="d" d="M190.01,88.03c-.08-3.29,2.62-6.01,5.93-5.98,3.05,.04,5.72,2.56,5.92,5.58,.2,3.12-2.58,6.14-5.75,6.26-3.23,.12-6.01-2.56-6.09-5.86Z"/><path class="d" d="M311.99,87.8c.05,3.31-2.61,6.08-5.86,6.1-3.22,.03-6.05-2.82-5.99-6.02,.06-3.03,2.62-5.65,5.68-5.82,3.29-.18,6.12,2.45,6.17,5.73Z"/><path class="d" d="M384,281.98c-3.31-.06-6.01-2.83-5.91-6.06,.1-3.17,3.1-5.95,6.24-5.79,3.02,.16,5.58,2.83,5.62,5.87,.04,3.32-2.66,6.03-5.95,5.97Z"/><path class="d" d="M384.07,160.01c3.28-.01,5.97,2.76,5.88,6.05-.08,3.06-2.65,5.66-5.7,5.79-3.19,.13-6.1-2.64-6.15-5.86-.06-3.26,2.66-5.97,5.98-5.98Z"/><path class="d" d="M117.79,281.98c-3.26-.05-5.89-2.89-5.74-6.18,.14-3.03,2.8-5.62,5.82-5.66,3.2-.05,6.05,2.79,6.03,5.99-.03,3.25-2.8,5.91-6.11,5.85Z"/><path class="d" d="M190.01,354.31c-.11-3.3,2.49-6.1,5.76-6.21,3.18-.11,6.09,2.72,6.09,5.91,0,3.03-2.53,5.73-5.56,5.94-3.27,.22-6.18-2.39-6.29-5.63Z"/><path class="d" d="M311.99,353.99c.06,3.29-2.65,5.98-5.97,5.95-3.03-.03-5.69-2.57-5.87-5.62-.19-3.14,2.59-6.14,5.78-6.23,3.24-.09,6.01,2.6,6.07,5.9Z"/><path class="d" d="M118.21,160.01c3.26,.12,5.92,3.04,5.69,6.24-.21,3.01-2.93,5.59-5.91,5.6-3.23,.01-6.02-2.82-5.94-6.04,.07-3.26,2.9-5.92,6.16-5.8Z"/><path class="d" d="M156.87,169.85c.07-3.33,2.85-5.97,6.08-5.77,3.01,.19,5.63,2.88,5.68,5.83,.06,3.12-2.84,6.04-6,6.04-3.25,0-5.83-2.74-5.77-6.1Z"/><path class="d" d="M345.11,170.1c-.04,3.33-2.78,5.96-6.03,5.81-2.98-.14-5.63-2.81-5.73-5.77-.1-3.13,2.75-6.04,5.93-6.07,3.26-.03,5.87,2.68,5.82,6.03Z"/><path class="d" d="M107.05,215.07c3.25,.03,5.98,2.87,5.87,6.11-.1,3.05-2.69,5.64-5.74,5.75-3.24,.11-6.08-2.6-6.12-5.86-.04-3.25,2.73-6.03,5.98-5.99Z"/><path class="d" d="M148.81,215.07c3.24-.11,6.08,2.61,6.12,5.86,.04,3.25-2.75,6.03-5.99,5.99-3.06-.04-5.69-2.56-5.86-5.62-.19-3.22,2.48-6.13,5.74-6.24Z"/><path class="d" d="M358.93,221.23c-.14,3.24-3.09,5.91-6.29,5.69-3.26-.22-5.84-3.2-5.56-6.41,.27-3.06,2.98-5.51,6.03-5.44,3.25,.07,5.96,2.94,5.82,6.16Z"/><path class="d" d="M155.02,119.28c-.03,3.32-2.76,5.89-6.09,5.74-3.12-.14-5.64-2.65-5.74-5.71-.1-3,2.94-6.12,5.96-6.12,3.22,0,5.9,2.78,5.87,6.09Z"/><path class="d" d="M162.56,266.06c3.15-.04,6.09,2.84,6.07,5.96-.02,3.14-2.95,5.99-6.1,5.93-3.03-.06-5.55-2.61-5.66-5.72-.11-3.37,2.43-6.13,5.69-6.17Z"/><path class="d" d="M200.06,315.13c-3.36,.03-6.05-2.58-6.01-5.84,.04-3.17,3-6.03,6.11-5.89,3.01,.13,5.64,2.75,5.76,5.74,.13,3.26-2.51,5.96-5.86,6Z"/><path class="d" d="M301.96,315.12c-3.35-.02-6.01-2.71-5.9-5.96,.1-3,2.74-5.66,5.72-5.78,3.14-.13,6.09,2.69,6.15,5.86,.06,3.29-2.6,5.9-5.97,5.88Z"/><path class="d" d="M256.92,77.22c-.13,3.23-3.09,5.91-6.28,5.71-3.25-.21-5.84-3.19-5.57-6.4,.26-3.06,2.97-5.51,6.02-5.45,3.25,.06,5.96,2.92,5.83,6.15Z"/><path class="d" d="M155.01,322.9c-.07,3.31-2.84,6.02-6.04,5.91-3.04-.11-5.98-3.31-5.78-6.29,.22-3.24,3.09-5.73,6.41-5.54,3.06,.17,5.47,2.81,5.41,5.92Z"/><path class="d" d="M256.93,323.11c-.07,3.25-2.95,5.96-6.17,5.82-3.24-.14-5.9-3.08-5.69-6.29,.2-3.06,2.86-5.56,5.91-5.57,3.25,0,6.01,2.8,5.94,6.04Z"/><path class="d" d="M352.66,316.97c3.32-.05,6.11,2.59,6.15,5.82,.04,3.02-3.05,6.08-6.07,6.02-3.25-.06-5.85-2.85-5.77-6.19,.07-3.1,2.59-5.6,5.69-5.65Z"/><path class="d" d="M256.93,118.94c.03,3.25-2.75,6.03-5.99,5.99-3.26-.04-5.97-2.88-5.86-6.12,.1-3.06,2.68-5.64,5.74-5.74,3.24-.11,6.08,2.61,6.11,5.87Z"/><path class="d" d="M400.93,221.17c-.1,3.23-3.02,5.94-6.22,5.76-3.24-.18-5.87-3.15-5.63-6.35,.23-3.05,2.92-5.54,5.97-5.51,3.25,.03,5.99,2.86,5.88,6.1Z"/><path class="d" d="M352.58,125.02c-3.29-.1-5.81-2.92-5.59-6.23,.21-3.08,2.82-5.58,5.85-5.59,3.02-.02,6.06,3.1,5.97,6.1-.1,3.24-2.91,5.83-6.23,5.72Z"/><path class="d" d="M199.83,126.89c3.37-.07,6.1,2.5,6.1,5.76,0,3.16-2.91,6.05-6.03,5.98-2.96-.06-5.66-2.69-5.83-5.68-.19-3.26,2.41-5.99,5.77-6.06Z"/><path class="d" d="M245.07,364.77c.14-3.24,3.07-5.91,6.28-5.7,3.05,.2,5.57,2.86,5.58,5.91,.01,3.25-2.8,6.01-6.04,5.95-3.26-.07-5.95-2.92-5.82-6.16Z"/><path class="d" d="M301.93,126.9c3.41-.03,6.05,2.54,6,5.84-.05,3.18-3,6.04-6.11,5.91-2.96-.12-5.63-2.8-5.76-5.77-.14-3.25,2.5-5.94,5.87-5.98Z"/><path class="d" d="M345.11,272.03c-.01,3.35-2.69,6.01-5.93,5.91-3.18-.1-5.99-3.08-5.83-6.18,.16-2.96,2.91-5.64,5.83-5.67,3.3-.04,5.94,2.6,5.93,5.94Z"/><path class="d" d="M283.16,319.36c.08,3.52-2.43,6.14-5.83,6.09-3.14-.05-5.72-2.58-5.85-5.72-.13-3.38,2.47-5.98,5.96-5.96,3.37,.02,5.64,2.24,5.72,5.6Z"/><path class="d" d="M277.48,116.71c3.6,.06,5.84,2.47,5.67,6.12-.16,3.35-2.45,5.47-5.85,5.42-3.27-.05-5.75-2.43-5.82-5.61-.08-3.38,2.56-5.98,6.01-5.93Z"/><path class="d" d="M224.62,128.25c-3.41,.02-5.65-2.1-5.78-5.5-.14-3.62,2.16-6.04,5.74-6.05,3.44-.01,6.05,2.64,5.92,6.01-.12,3.19-2.59,5.51-5.89,5.54Z"/><path class="d" d="M355.28,247.55c-.07,3.57-2.53,5.81-6.16,5.63-3.35-.17-5.43-2.46-5.36-5.9,.07-3.29,2.46-5.73,5.64-5.77,3.41-.04,5.95,2.57,5.88,6.05Z"/><path class="d" d="M158.23,247.61c-.09,3.37-2.34,5.57-5.71,5.59-3.58,.02-5.89-2.38-5.8-6,.08-3.24,2.54-5.71,5.7-5.73,3.32-.02,5.9,2.71,5.81,6.15Z"/><path class="d" d="M224.81,313.78c3.28,.1,5.69,2.52,5.7,5.71,0,3.39-2.64,5.89-6.13,5.79-3.57-.11-5.76-2.57-5.53-6.23,.21-3.36,2.49-5.38,5.97-5.27Z"/><path class="d" d="M152.46,188.83c3.6,.01,5.88,2.39,5.76,6.02-.1,3.24-2.58,5.7-5.74,5.69-3.37,0-5.88-2.69-5.77-6.17,.11-3.38,2.36-5.55,5.74-5.54Z"/><path class="d" d="M355.27,194.62c-.02,3.45-2.66,6.04-6.02,5.89-3.18-.14-5.49-2.61-5.5-5.9-.02-3.59,2.38-5.89,6-5.75,3.34,.13,5.54,2.43,5.53,5.77Z"/></g></g><g id="b"/><g id="c"/></svg>